<?xml version="1.0" encoding="UTF-8" standalone="no"?>
<!DOCTYPE svg PUBLIC "-//W3C//DTD SVG 1.1//EN" "http://www.w3.org/Graphics/SVG/1.1/DTD/svg11.dtd">
<svg xmlns="http://www.w3.org/2000/svg" version="1.1" viewBox="0 0 512 307">
<path fill="#252f3e" d="
  M 379.72 53.50
  C 375.06 27.75 394.22 8.33 418.03 3.52
  Q 438.60 -0.63 460.19 5.40
  C 468.28 7.66 479.78 10.03 479.73 20.75
  C 479.70 27.19 481.86 36.51 470.99 31.72
  Q 448.17 21.67 423.24 25.97
  C 415.63 27.28 408.15 32.84 407.06 41.57
  C 405.21 56.26 418.55 61.61 429.92 65.31
  C 443.91 69.85 459.56 73.51 472.00 81.48
  C 488.45 92.03 492.19 115.29 484.05 132.04
  C 468.03 165.06 420.40 163.98 391.41 154.14
  C 386.60 152.51 379.05 149.51 377.64 143.83
  Q 376.51 139.26 377.49 131.18
  C 378.45 123.33 390.53 130.54 394.46 131.92
  Q 414.35 138.92 435.24 137.02
  C 450.12 135.67 463.39 127.36 459.51 110.23
  C 456.79 98.24 428.44 91.98 417.50 88.77
  C 399.45 83.47 383.24 72.95 379.72 53.50
  Z"
/>
<path fill="#252f3e" d="
  M 118.61 137.05
  Q 98.03 161.01 67.41 159.58
  C 39.39 158.27 22.03 139.74 23.91 111.28
  C 25.69 84.46 48.11 69.06 73.33 67.78
  Q 95.14 66.68 116.38 72.29
  A 0.95 0.95 0.0 0 0 117.58 71.35
  C 117.19 53.50 119.59 30.67 95.91 26.59
  C 75.66 23.11 59.72 28.07 40.85 35.03
  C 37.98 36.09 33.93 36.57 33.83 32.46
  Q 33.68 26.33 33.77 20.24
  Q 33.81 17.06 36.32 15.12
  Q 39.17 12.91 43.44 11.12
  Q 70.73 -0.36 100.25 3.01
  C 132.15 6.65 144.86 26.55 145.09 57.06
  Q 145.29 83.03 145.25 109.00
  C 145.23 119.94 146.98 127.93 152.73 139.32
  C 156.29 146.39 148.96 149.36 144.32 152.37
  C 137.42 156.86 134.45 159.08 128.75 152.01
  Q 123.33 145.28 120.00 137.27
  A 0.83 0.82 53.9 0 0 118.61 137.05
  Z
  M 117.02 91.17
  C 98.68 86.79 60.19 80.56 53.96 106.80
  Q 52.27 113.90 53.98 121.03
  C 58.87 141.41 82.82 139.86 97.55 133.31
  C 116.37 124.94 117.56 110.84 117.83 92.21
  A 1.06 1.05 -83.2 0 0 117.02 91.17
  Z"
/>
<path fill="#252f3e" d="
  M 306.64 126.76
  L 306.81 126.74
  A 0.23 0.19 84.1 0 0 306.96 126.51
  Q 306.96 125.36 307.39 123.67
  Q 320.84 71.12 334.48 18.62
  C 336.75 9.88 337.36 6.27 346.83 6.25
  Q 354.09 6.24 361.24 6.28
  C 366.39 6.31 365.57 12.04 364.40 15.80
  Q 343.70 82.04 322.99 148.29
  C 321.66 152.53 319.47 155.85 314.96 155.93
  Q 306.20 156.08 297.49 155.95
  C 291.45 155.87 290.01 152.31 288.68 146.78
  Q 275.79 93.28 262.99 39.73
  Q 262.72 38.64 262.46 39.74
  Q 249.85 92.90 237.30 146.12
  Q 236.35 150.15 234.49 153.05
  Q 232.82 155.68 229.70 155.70
  Q 221.45 155.77 213.20 155.76
  C 207.50 155.75 204.59 154.48 202.93 149.02
  Q 182.45 81.98 162.21 14.87
  C 161.60 12.86 161.44 10.97 161.52 8.98
  Q 161.62 6.29 164.31 6.28
  Q 173.55 6.25 182.80 6.22
  C 190.05 6.20 191.08 11.77 192.79 18.45
  Q 206.43 71.91 219.90 125.44
  Q 220.12 126.28 220.31 125.43
  Q 233.39 69.65 246.60 13.82
  C 247.97 8.02 250.49 6.48 256.51 6.34
  Q 262.14 6.21 270.74 6.31
  C 277.26 6.38 278.69 9.94 280.08 15.92
  Q 292.97 71.18 306.24 126.37
  A 0.48 0.32 78.2 0 0 306.64 126.76
  Z"
/>
<path fill="#ff9900" d="
  M 469.87 284.02
  C 468.18 282.77 468.51 280.67 469.28 278.77
  C 476.34 261.54 482.87 244.51 485.44 225.26
  C 487.38 210.72 470.87 210.69 461.26 210.76
  Q 440.79 210.90 420.48 213.79
  Q 417.34 214.23 415.97 213.56
  Q 414.14 212.67 414.43 210.45
  Q 414.73 208.21 416.94 206.73
  C 439.84 191.32 470.18 188.00 496.65 193.27
  C 500.82 194.10 507.46 195.91 508.50 200.76
  C 509.39 204.94 509.20 210.70 508.62 215.41
  Q 505.23 242.76 490.26 266.02
  C 486.31 272.16 479.54 280.90 473.00 284.26
  Q 471.36 285.11 469.87 284.02
  Z"
/>
<path fill="#ff9900" d="
  M 394.35 278.41
  C 260.22 330.83 111.40 304.78 4.38 208.85
  Q 2.18 206.88 3.00 204.04
  C 4.39 199.18 9.12 201.21 12.37 203.04
  C 141.24 275.64 294.69 289.11 433.87 236.76
  Q 443.05 233.31 452.22 229.81
  C 462.92 225.72 469.61 236.18 459.75 243.03
  Q 427.43 265.49 394.35 278.41
  Z"
/>
</svg>
