<?xml version="1.0" encoding="UTF-8" standalone="no"?>
<!DOCTYPE svg PUBLIC "-//W3C//DTD SVG 1.1//EN" "http://www.w3.org/Graphics/SVG/1.1/DTD/svg11.dtd">
<svg xmlns="http://www.w3.org/2000/svg" version="1.1" viewBox="0 0 526 667">
<g stroke-width="2.00" fill="none" stroke-linecap="butt">
<path stroke="#1c1e1e" vector-effect="non-scaling-stroke" d="
  M 524.46 434.75
  Q 518.10 436.44 524.46 437.25"
/>
<path stroke="#1c1e1e" vector-effect="non-scaling-stroke" d="
  M 243.54 549.25
  Q 243.47 548.04 242.67 547.16
  A 0.52 0.52 0.0 0 0 241.92 547.14
  Q 240.99 548.05 242.25 548.79"
/>
<path stroke="#1c1e1e" vector-effect="non-scaling-stroke" d="
  M 165.25 610.29
  C 165.92 608.59 162.31 609.16 164.25 610.29"
/>
<path stroke="#0b0b0c" vector-effect="non-scaling-stroke" d="
  M 159.54 608.69
  Q 155.55 606.48 150.99 606.56"
/>
<path stroke="#5d656d" vector-effect="non-scaling-stroke" d="
  M 84.15 558.10
  Q 96.24 567.92 109.12 577.02"
/>
<path stroke="#4e5a68" vector-effect="non-scaling-stroke" d="
  M 109.12 577.02
  Q 127.90 591.23 150.71 598.00"
/>
<path stroke="#5d656d" vector-effect="non-scaling-stroke" d="
  M 150.71 598.00
  Q 163.17 602.15 173.82 603.14
  C 196.83 605.28 226.24 593.43 232.44 568.79
  C 235.28 557.50 232.27 544.75 230.47 533.40
  C 230.09 530.97 228.99 528.73 228.45 526.25
  C 225.44 512.34 219.28 496.53 222.03 482.19
  C 224.82 467.59 236.31 457.29 249.75 451.96"
/>
<path stroke="#1c1e1e" vector-effect="non-scaling-stroke" d="
  M 249.75 451.96
  L 250.04 452.50"
/>
<path stroke="#5d656d" vector-effect="non-scaling-stroke" d="
  M 250.04 452.50
  Q 245.63 457.64 242.35 463.78"
/>
<path stroke="#4e5a68" vector-effect="non-scaling-stroke" d="
  M 242.35 463.78
  Q 233.63 486.21 237.51 510.16"
/>
<path stroke="#5d656d" vector-effect="non-scaling-stroke" d="
  M 237.51 510.16
  C 239.26 527.51 247.48 541.29 258.14 555.61
  Q 267.06 567.61 279.83 575.52
  A 1.07 1.04 51.1 0 0 280.73 575.63
  C 290.23 572.36 311.50 563.75 318.02 566.16
  C 331.27 571.06 343.87 576.91 356.78 582.65
  A 1.26 1.26 0.0 0 0 357.71 582.68
  C 386.05 572.40 404.96 554.43 406.01 522.75
  C 406.86 497.22 393.70 476.79 372.00 464.21"
/>
<path stroke="#1c1e1e" vector-effect="non-scaling-stroke" d="
  M 372.00 464.21
  Q 369.12 461.43 365.25 460.54"
/>
<path stroke="#5d656d" vector-effect="non-scaling-stroke" d="
  M 365.25 460.54
  C 348.60 452.12 317.31 443.74 308.41 467.35
  C 305.83 474.18 308.07 480.23 313.71 484.55
  C 329.58 496.69 340.33 476.36 328.43 466.79
  Q 327.43 465.99 328.23 465.99
  L 329.25 466.00
  A 0.93 0.68 72.9 0 1 329.95 466.52
  Q 330.50 467.63 330.77 466.49
  A 0.68 0.64 -79.7 0 1 331.48 465.97
  C 361.88 469.30 391.14 504.78 370.07 534.22
  C 358.11 550.92 333.80 560.81 313.45 557.14
  C 297.94 554.34 284.96 543.70 277.00 530.21"
/>
<path stroke="#4e5a68" vector-effect="non-scaling-stroke" d="
  M 277.00 530.21
  Q 270.24 518.25 269.96 504.50"
/>
<path stroke="#5d656d" vector-effect="non-scaling-stroke" d="
  M 269.96 504.50
  Q 269.94 483.07 281.68 465.36
  A 0.95 0.04 -86.7 0 0 281.77 464.49
  L 282.44 453.56
  Q 282.59 451.21 283.16 453.56
  Q 283.57 455.26 283.58 457.00
  C 283.86 493.02 304.66 517.41 339.88 523.46"
/>
<path stroke="#444c55" vector-effect="non-scaling-stroke" d="
  M 339.88 523.46
  Q 352.31 526.20 364.86 525.65
  A 0.91 0.87 12.8 0 0 365.61 525.20
  C 371.23 515.31 371.57 502.19 365.64 492.28
  A 1.20 1.17 -8.9 0 0 364.88 491.74
  Q 349.44 488.36 337.36 478.14"
/>
<path stroke="#5d656d" vector-effect="non-scaling-stroke" d="
  M 337.36 478.14
  L 335.96 476.84
  Q 335.57 476.48 335.55 477.03
  C 335.15 486.59 327.39 493.06 317.93 489.32
  C 299.13 481.89 301.39 461.42 315.90 451.61
  A 0.77 0.58 -30.7 0 0 316.24 450.79
  L 313.77 445.27
  A 0.43 0.21 62.3 0 1 313.76 444.84
  C 314.25 444.42 317.64 449.18 318.02 449.78
  A 0.64 0.63 61.9 0 0 318.79 450.02
  Q 325.16 447.41 331.98 446.62
  A 3.01 0.87 -46.6 0 0 333.66 445.63
  Q 350.75 430.80 366.50 414.79"
/>
<path stroke="#444c55" vector-effect="non-scaling-stroke" d="
  M 366.50 414.79
  C 386.82 395.73 407.70 373.29 423.04 349.34
  C 451.12 305.50 449.72 256.26 417.79 215.25"
/>
<path stroke="#5d656d" vector-effect="non-scaling-stroke" d="
  M 417.79 215.25
  Q 413.60 209.25 408.81 203.70
  C 395.72 188.52 382.67 173.40 370.56 157.41
  C 361.58 145.54 355.81 133.27 364.30 119.32
  Q 368.80 111.94 377.64 106.35
  A 0.28 0.27 42.5 0 0 377.61 105.87
  L 365.75 99.21"
/>
<path stroke="#1c1e1e" vector-effect="non-scaling-stroke" d="
  M 365.75 99.21
  Q 364.56 96.58 361.50 97.04"
/>
<path stroke="#5d656d" vector-effect="non-scaling-stroke" d="
  M 361.50 97.04
  L 359.75 95.96"
/>
<path stroke="#1c1e1e" vector-effect="non-scaling-stroke" d="
  M 359.75 95.96
  Q 359.20 94.24 357.75 94.71"
/>
<path stroke="#5d656d" vector-effect="non-scaling-stroke" d="
  M 357.75 94.71
  C 330.13 101.29 319.18 124.44 325.72 151.01
  C 326.52 154.27 326.88 156.69 330.28 158.07
  Q 362.07 170.96 386.29 195.25"
/>
<path stroke="#0b0b0c" vector-effect="non-scaling-stroke" d="
  M 386.29 195.25
  Q 386.62 196.68 385.64 197.25
  A 0.93 0.20 -29.6 0 0 384.97 197.85
  Q 385.75 200.87 388.28 202.73
  Q 390.17 204.12 390.61 204.18
  C 391.40 204.30 392.26 206.71 392.69 207.35
  Q 394.78 210.42 398.87 212.79
  A 1.21 1.19 19.3 0 1 399.46 213.99
  Q 399.14 216.43 400.38 218.23
  C 401.99 220.57 402.96 222.35 404.90 223.49
  A 1.09 0.11 30.7 0 1 405.73 224.10
  Q 405.76 225.92 404.01 224.90
  Q 403.34 224.51 403.68 225.48
  C 405.08 229.51 407.84 231.12 409.79 234.05
  Q 410.12 234.54 410.51 234.75
  Q 412.65 235.92 411.27 238.00
  A 0.66 0.61 -53.9 0 0 411.37 238.85
  Q 413.40 240.50 412.73 242.98
  A 1.21 0.82 43.0 0 0 412.92 243.82
  L 413.81 245.21
  A 1.02 0.47 -42.9 0 1 413.42 246.16
  L 412.16 247.42
  A 1.18 0.20 -47.0 0 1 411.43 247.98
  C 408.18 248.52 414.37 252.32 414.96 252.87
  A 1.10 1.06 -67.4 0 1 415.29 253.72
  C 415.06 256.98 414.97 261.65 416.65 264.54
  Q 417.70 266.33 415.40 266.83
  A 0.78 0.66 -0.5 0 0 414.83 267.32
  L 413.71 271.20
  A 1.63 1.12 -58.1 0 0 413.76 272.25
  L 414.94 274.56
  A 1.74 1.12 45.1 0 1 415.14 275.49
  C 414.20 281.89 414.48 288.29 413.37 294.68
  C 412.71 298.41 410.62 302.44 410.03 306.80
  Q 409.50 310.74 408.37 311.34
  Q 404.80 313.26 405.43 317.25
  A 1.45 0.51 -55.0 0 1 405.19 318.10
  Q 404.68 319.07 404.71 320.22
  A 1.26 1.16 67.8 0 1 404.39 321.08
  C 402.38 323.23 401.65 326.07 400.26 328.12
  Q 395.03 335.84 389.78 343.58
  Q 389.51 343.99 389.04 344.22
  Q 386.27 345.59 384.80 348.05
  C 382.29 352.27 379.84 354.84 375.74 357.57
  A 1.34 0.53 -26.9 0 0 375.08 358.32
  L 375.01 358.75
  A 0.58 0.46 21.5 0 1 374.19 359.00
  Q 372.59 358.08 370.82 358.90
  A 0.98 0.77 -9.8 0 0 370.29 359.49
  Q 369.83 361.49 371.34 362.65
  Q 372.39 363.46 371.65 363.75
  L 370.05 364.38
  A 1.15 0.24 60.5 0 1 369.30 363.52
  Q 368.34 361.83 367.00 363.25
  Q 363.20 367.24 361.05 368.55
  C 359.03 369.78 357.58 373.15 356.20 374.72
  Q 351.09 380.55 344.31 384.48
  A 1.62 0.89 -79.6 0 0 343.78 385.13
  Q 343.66 385.39 343.50 385.49
  Q 337.16 389.69 332.90 393.13
  C 331.32 394.41 330.81 396.34 329.30 397.56
  C 327.87 398.71 325.88 399.59 325.79 401.75"
/>
<path stroke="#444c55" vector-effect="non-scaling-stroke" d="
  M 325.79 401.75
  Q 315.73 411.59 308.17 423.50"
/>
<path stroke="#5d656d" vector-effect="non-scaling-stroke" d="
  M 308.17 423.50
  L 304.14 432.74
  Q 303.93 433.21 303.87 432.72
  Q 303.65 430.99 304.20 428.98
  C 308.41 413.65 317.67 399.45 328.65 388.28
  C 337.01 379.77 349.88 370.33 360.45 361.68
  C 386.16 340.64 403.53 315.10 408.73 281.91
  C 410.48 270.78 409.20 261.28 406.80 247.04
  C 403.84 229.50 392.11 212.36 379.50 200.21"
/>
<path stroke="#1c1e1e" vector-effect="non-scaling-stroke" d="
  M 379.50 200.21
  Q 378.85 197.64 376.25 197.04"
/>
<path stroke="#5d656d" vector-effect="non-scaling-stroke" d="
  M 376.25 197.04
  L 365.21 187.25"
/>
<path stroke="#1c1e1e" vector-effect="non-scaling-stroke" d="
  M 365.21 187.25
  Q 356.56 179.14 345.55 174.67"
/>
<path stroke="#5d656d" vector-effect="non-scaling-stroke" d="
  M 345.55 174.67
  L 338.81 171.13"
/>
<path stroke="#1c1e1e" vector-effect="non-scaling-stroke" d="
  M 338.81 171.13
  Q 332.99 166.30 325.47 165.07"
/>
<path stroke="#5d656d" vector-effect="non-scaling-stroke" d="
  M 325.47 165.07
  L 321.50 163.46"
/>
<path stroke="#1c1e1e" vector-effect="non-scaling-stroke" d="
  M 321.50 163.46
  Q 314.86 159.82 307.25 159.29"
/>
<path stroke="#5d656d" vector-effect="non-scaling-stroke" d="
  M 307.25 159.29
  C 270.60 150.23 229.93 152.99 196.75 171.54"
/>
<path stroke="#4e5a68" vector-effect="non-scaling-stroke" d="
  M 196.75 171.54
  Q 162.40 191.20 147.50 227.96"
/>
<path stroke="#5d656d" vector-effect="non-scaling-stroke" d="
  M 147.50 227.96
  C 129.70 271.60 138.39 311.45 167.10 347.39
  C 178.46 361.62 191.61 376.23 199.49 392.52
  C 204.77 403.40 206.51 418.96 201.03 430.26
  C 187.18 458.80 153.81 474.49 123.51 475.82
  C 105.84 476.60 85.71 472.23 73.02 459.73
  C 50.89 437.91 64.20 404.83 77.29 382.75"
/>
<path stroke="#444c55" vector-effect="non-scaling-stroke" d="
  M 77.29 382.75
  Q 86.36 369.77 89.96 361.69
  C 94.98 350.41 92.65 338.44 86.06 328.28
  A 1.09 1.09 0.0 0 0 84.66 327.90
  Q 75.49 332.47 65.54 335.98
  C 58.83 338.34 53.08 333.17 47.96 329.75"
/>
<path stroke="#1c1e1e" vector-effect="non-scaling-stroke" d="
  M 47.96 329.75
  Q 47.73 327.47 45.00 328.04"
/>
<path stroke="#444c55" vector-effect="non-scaling-stroke" d="
  M 45.00 328.04
  L 44.71 327.75"
/>
<path stroke="#1c1e1e" vector-effect="non-scaling-stroke" d="
  M 44.71 327.75
  Q 43.37 325.87 41.00 326.04"
/>
<path stroke="#444c55" vector-effect="non-scaling-stroke" d="
  M 41.00 326.04
  L 26.76 317.27"
/>
<path stroke="#5d656d" vector-effect="non-scaling-stroke" d="
  M 26.76 317.27
  Q 21.10 313.79 20.56 306.23
  Q 19.53 291.85 18.76 279.75
  Q 18.49 275.57 15.47 278.46
  C 8.30 285.30 7.09 292.70 7.11 302.60
  C 7.14 322.70 18.17 326.76 36.00 331.29"
/>
<path stroke="#444c55" vector-effect="non-scaling-stroke" d="
  M 36.00 331.29
  C 50.65 336.12 63.20 346.75 61.74 363.60"
/>
<path stroke="#5d656d" vector-effect="non-scaling-stroke" d="
  M 61.74 363.60
  C 60.48 374.43 54.78 382.19 49.84 391.11
  C 39.47 409.79 33.89 428.42 33.44 449.99
  C 33.22 461.08 34.93 472.26 42.10 481.14
  C 60.12 503.45 94.65 511.12 121.75 507.30
  C 146.27 503.84 169.74 498.02 190.35 484.30
  A 0.90 0.89 -18.1 0 0 190.75 483.52
  C 190.51 478.55 189.51 473.15 190.09 468.66
  C 193.23 444.23 230.76 417.51 254.84 428.44
  Q 254.95 428.49 255.01 428.58
  Q 255.09 428.67 255.13 428.75
  Q 255.33 429.09 254.92 428.95
  Q 242.13 424.36 228.97 430.01
  C 217.37 434.99 205.73 443.74 200.15 454.39
  C 194.51 465.14 196.46 475.73 199.03 487.13
  C 202.14 500.88 203.88 513.83 203.72 527.77"
/>
<path stroke="#1c1e1e" vector-effect="non-scaling-stroke" d="
  M 203.72 527.77
  Q 202.16 529.62 202.96 531.50"
/>
<path stroke="#5d656d" vector-effect="non-scaling-stroke" d="
  M 202.96 531.50
  Q 201.84 544.64 190.98 551.94
  C 172.64 564.28 145.55 561.61 126.71 552.25"
/>
<path stroke="#1c1e1e" vector-effect="non-scaling-stroke" d="
  M 126.71 552.25
  Q 123.19 549.36 118.75 548.46"
/>
<path stroke="#5d656d" vector-effect="non-scaling-stroke" d="
  M 118.75 548.46
  C 95.23 535.43 65.91 507.05 37.74 526.25
  C 20.73 537.85 12.56 559.52 22.37 578.65
  C 28.00 589.64 37.93 599.87 50.77 601.49
  C 62.36 602.96 69.26 590.40 60.29 581.93
  C 54.71 576.65 48.37 573.16 44.70 566.06
  C 41.44 559.76 42.54 553.03 48.50 548.87
  C 59.58 541.13 74.77 550.89 83.25 557.71"
/>
<path stroke="#4f5760" vector-effect="non-scaling-stroke" d="
  M 411.75 232.29
  Q 428.10 279.97 404.58 324.19
  Q 392.05 347.75 373.27 363.51
  Q 351.88 381.47 336.96 392.46
  Q 329.59 397.89 325.79 401.75"
/>
<path stroke="#79828b" vector-effect="non-scaling-stroke" d="
  M 361.50 97.04
  L 365.75 99.21"
/>
<path stroke="#a1b1c1" vector-effect="non-scaling-stroke" d="
  M 417.79 215.25
  Q 415.48 223.44 412.82 231.52
  Q 412.57 232.27 411.75 232.29"
/>
<path stroke="#687078" vector-effect="non-scaling-stroke" d="
  M 411.75 232.29
  Q 402.77 211.19 386.29 195.25"
/>
<path stroke="#606a73" vector-effect="non-scaling-stroke" d="
  M 41.00 326.04
  L 44.71 327.75"
/>
<path stroke="#606a73" vector-effect="non-scaling-stroke" d="
  M 45.00 328.04
  Q 46.28 329.26 47.96 329.75"
/>
<path stroke="#a1b1c1" vector-effect="non-scaling-stroke" d="
  M 26.76 317.27
  L 36.48 330.37
  A 0.63 0.46 52.2 0 1 36.50 331.13
  Q 36.31 331.30 36.00 331.29"
/>
<path stroke="#79828b" vector-effect="non-scaling-stroke" d="
  M 307.25 159.29
  L 321.50 163.46"
/>
<path stroke="#79828b" vector-effect="non-scaling-stroke" d="
  M 325.47 165.07
  L 338.81 171.13"
/>
<path stroke="#79828b" vector-effect="non-scaling-stroke" d="
  M 345.55 174.67
  L 365.21 187.25"
/>
<path stroke="#79828b" vector-effect="non-scaling-stroke" d="
  M 376.25 197.04
  L 379.50 200.21"
/>
<path stroke="#a1b1c1" vector-effect="non-scaling-stroke" d="
  M 308.17 423.50
  Q 312.79 419.56 317.97 416.80
  C 331.50 409.56 352.11 410.85 366.50 414.79"
/>
<path stroke="#a1b1c1" vector-effect="non-scaling-stroke" d="
  M 337.36 478.14
  Q 341.68 488.85 342.33 492.73
  Q 344.96 508.36 339.88 523.46"
/>
<path stroke="#abbfd4" vector-effect="non-scaling-stroke" d="
  M 269.96 504.50
  L 269.68 505.52
  A 0.79 0.71 5.1 0 1 269.00 506.03
  C 264.01 506.37 257.13 510.10 256.31 515.79
  C 255.96 518.19 254.98 521.74 255.33 523.46
  C 257.62 534.85 268.74 535.80 277.00 530.21"
/>
<path stroke="#79828b" vector-effect="non-scaling-stroke" d="
  M 365.25 460.54
  L 372.00 464.21"
/>
<path stroke="#abbfd4" vector-effect="non-scaling-stroke" d="
  M 237.51 510.16
  Q 244.12 509.19 248.99 506.48
  C 254.87 503.23 261.54 496.60 262.73 489.48
  Q 263.12 487.15 263.12 486.72
  C 262.97 475.76 256.67 466.14 245.44 464.57
  Q 243.91 464.36 242.35 463.78"
/>
<path stroke="#79828b" vector-effect="non-scaling-stroke" d="
  M 250.04 452.50
  Q 257.96 448.81 249.75 451.96"
/>
<path stroke="#abbfd4" vector-effect="non-scaling-stroke" d="
  M 150.71 598.00
  Q 154.01 594.57 153.10 589.71
  C 150.20 574.09 134.25 557.76 117.26 563.25
  Q 107.67 566.35 109.12 577.02"
/>
<path stroke="#79828b" vector-effect="non-scaling-stroke" d="
  M 118.75 548.46
  L 126.71 552.25"
/>
<path stroke="#79828b" vector-effect="non-scaling-stroke" d="
  M 202.96 531.50
  Q 203.77 529.66 203.72 527.77"
/>
<path stroke="#a1b1c1" vector-effect="non-scaling-stroke" d="
  M 61.74 363.60
  Q 70.04 372.71 77.29 382.75"
/>
<path stroke="#abbfd4" vector-effect="non-scaling-stroke" d="
  M 147.50 227.96
  C 149.92 229.34 150.36 231.49 151.57 233.17
  Q 158.00 242.03 169.57 239.64
  C 183.46 236.76 195.38 225.72 203.12 214.09
  C 210.96 202.33 215.77 182.52 200.41 174.35
  C 199.49 173.86 198.32 173.84 197.30 173.77
  A 0.56 0.53 1.7 0 1 196.77 173.24
  L 196.75 171.54"
/>
<path stroke="#79828b" vector-effect="non-scaling-stroke" d="
  M 359.75 95.96
  L 357.75 94.71"
/>
<path stroke="#5d656d" vector-effect="non-scaling-stroke" d="
  M 405.87 14.01
  A 1.14 1.13 35.2 0 0 406.17 15.72
  Q 417.27 22.21 428.93 28.55
  C 430.03 29.15 431.40 28.97 432.31 30.23
  Q 432.64 30.70 433.03 30.89
  Q 443.57 36.22 453.95 41.87
  C 456.60 43.32 458.36 45.12 458.44 48.06
  Q 458.76 59.33 456.83 70.02
  Q 456.65 71.02 457.27 70.21
  C 465.46 59.46 466.85 47.94 461.84 35.16
  C 457.89 25.09 451.39 13.28 440.90 8.66
  C 429.67 3.73 414.46 3.87 405.87 14.01"
/>
<path stroke="#1c1e1e" vector-effect="non-scaling-stroke" d="
  M 446.75 44.46
  Q 446.15 42.85 444.25 43.04"
/>
<path stroke="#3a6880" vector-effect="non-scaling-stroke" d="
  M 444.25 43.04
  C 431.63 36.85 419.46 29.50 407.19 22.63
  C 404.98 21.40 402.24 19.93 400.28 18.61
  C 391.97 12.96 384.35 13.04 374.75 14.18
  Q 354.96 16.53 335.84 18.73
  Q 334.41 18.89 335.62 19.67
  C 347.49 27.25 358.90 35.30 370.99 42.14
  Q 386.01 50.64 389.47 53.01
  Q 393.29 55.63 397.92 54.85
  Q 423.93 50.44 449.95 45.99
  Q 450.38 45.92 449.97 45.75
  L 446.75 44.46"
/>
<path stroke="#56869e" vector-effect="non-scaling-stroke" d="
  M 444.25 43.04
  L 446.75 44.46"
/>
<path stroke="#155c80" vector-effect="non-scaling-stroke" d="
  M 331.69 25.19
  Q 327.59 45.80 326.77 66.00
  Q 326.69 67.80 328.09 68.93
  Q 332.45 72.50 337.08 75.41
  Q 344.31 79.96 378.22 99.26
  Q 381.57 101.17 385.22 102.56
  A 0.37 0.37 0.0 0 0 385.72 102.24
  Q 386.72 80.75 389.75 64.25
  Q 390.34 61.06 390.44 59.82
  A 0.97 0.89 22.3 0 0 390.06 59.01
  Q 384.95 55.12 381.92 53.33
  Q 356.68 38.39 331.94 22.63
  Q 331.54 22.37 331.64 22.85
  Q 331.89 24.15 331.69 25.19"
/>
<path stroke="#082f45" vector-effect="non-scaling-stroke" d="
  M 394.54 59.98
  C 392.54 74.46 391.47 89.07 389.83 103.30
  Q 389.46 106.52 392.61 105.78
  C 410.40 101.62 428.04 98.27 445.50 92.63
  C 450.09 91.16 449.18 87.34 449.94 83.59
  C 452.18 72.61 454.80 60.89 455.41 49.70
  A 0.94 0.94 0.0 0 0 454.26 48.73
  C 434.68 53.30 415.06 55.91 395.16 59.34
  A 0.75 0.74 -1.1 0 0 394.54 59.98"
/>
<path stroke="#0b0b0c" vector-effect="non-scaling-stroke" d="
  M 385.08 105.92
  Q 385.98 104.42 384.56 104.22
  Q 383.10 104.01 383.73 105.02
  L 384.39 106.08
  A 0.48 0.35 -49.2 0 0 385.08 105.92"
/>
<path stroke="#3a6880" vector-effect="non-scaling-stroke" d="
  M 87.30 256.43
  C 81.79 254.09 73.03 254.24 67.45 256.04
  Q 46.27 262.84 25.24 270.14
  Q 24.76 270.30 25.20 270.53
  C 37.41 276.89 50.16 282.75 61.85 290.01
  A 0.99 0.95 -40.0 0 0 62.74 290.07
  Q 88.95 278.80 109.07 270.84
  Q 112.85 269.35 115.56 267.77
  Q 115.99 267.52 115.52 267.35
  Q 101.20 262.31 87.30 256.43"
/>
<path stroke="#155c80" vector-effect="non-scaling-stroke" d="
  M 63.74 294.07
  A 2.91 1.51 77.6 0 0 63.29 295.75
  L 63.17 331.07
  A 0.35 0.19 84.2 0 0 63.43 331.45
  Q 88.18 319.39 112.20 305.96
  Q 113.05 305.49 116.34 302.74
  A 1.01 0.93 -21.4 0 0 116.70 302.00
  L 116.61 271.25
  A 0.31 0.30 78.7 0 0 116.19 270.96
  Q 93.50 280.56 70.76 290.14
  C 67.51 291.51 66.37 290.74 63.74 294.07"
/>
<path stroke="#082f45" vector-effect="non-scaling-stroke" d="
  M 32.61 279.41
  C 29.31 277.82 26.28 275.41 22.99 273.51
  Q 22.56 273.26 22.60 273.77
  Q 23.32 281.86 24.16 289.95
  C 24.74 295.54 24.90 303.02 25.89 309.45
  Q 26.24 311.71 28.24 312.81
  Q 44.36 321.66 59.79 331.64
  Q 60.35 332.01 60.34 331.50
  Q 59.98 313.36 60.79 295.26
  Q 60.90 292.90 58.73 292.16
  Q 57.18 291.63 54.49 290.26
  Q 43.61 284.72 32.61 279.41"
/>
<path stroke="#1c1e1e" vector-effect="non-scaling-stroke" d="
  M 154.2031 335.3695
  A 1.12 0.63 42.7 0 0 153.8072 334.1470
  A 1.12 0.63 42.7 0 0 152.5569 333.8505
  A 1.12 0.63 42.7 0 0 152.9528 335.0730
  A 1.12 0.63 42.7 0 0 154.2031 335.3695"
/>
<path stroke="#5d656d" vector-effect="non-scaling-stroke" d="
  M 438.56 392.54
  C 444.19 389.15 457.10 392.59 463.35 395.90
  C 480.83 405.15 490.81 423.69 489.97 443.24
  C 488.61 474.76 465.74 496.16 435.49 500.72
  Q 423.18 502.58 410.65 502.21
  A 0.49 0.40 82.8 0 0 410.27 502.81
  Q 413.70 516.90 411.03 531.18
  A 0.37 0.31 -0.1 0 0 411.45 531.54
  Q 446.17 527.22 477.29 511.22
  Q 512.98 492.88 516.35 453.28
  C 518.01 433.86 514.67 413.15 503.54 396.71
  C 490.34 377.22 465.96 367.53 442.51 371.76
  C 427.17 374.53 411.86 384.58 407.50 400.26
  A 1.05 1.05 0.0 0 0 408.77 401.55
  C 418.52 399.04 429.65 397.92 438.56 392.54"
/>
<path stroke="#3a6880" vector-effect="non-scaling-stroke" d="
  M 397.93 407.39
  C 402.74 410.63 406.85 412.41 413.00 414.12
  Q 425.92 417.70 437.99 423.54
  C 439.93 424.48 442.39 424.84 444.51 425.38
  A 1.69 1.43 38.2 0 0 445.45 425.35
  L 475.22 414.90
  A 1.55 0.39 -23.4 0 1 476.25 414.73
  Q 476.96 414.93 477.45 414.44
  A 1.07 0.39 53.6 0 0 477.15 413.41
  C 472.54 406.76 458.46 393.32 449.64 394.90
  Q 444.52 395.82 437.02 398.08
  Q 428.48 400.65 402.03 406.38
  Q 399.83 406.86 398.12 406.80
  Q 397.00 406.76 397.93 407.39"
/>
<path stroke="#3a6880" vector-effect="non-scaling-stroke" d="
  M 518.79 398.43
  A 0.38 0.38 0.0 0 0 518.77 397.71
  L 510.98 395.08
  A 0.38 0.38 0.0 0 0 510.54 395.64
  L 513.34 400.19
  A 0.38 0.38 0.0 0 0 513.80 400.35
  L 518.79 398.43"
/>
<path stroke="#155c80" vector-effect="non-scaling-stroke" d="
  M 520.80 414.56
  Q 521.18 407.58 521.23 400.54
  A 0.43 0.32 81.8 0 0 520.79 400.09
  L 515.24 402.46
  A 0.55 0.51 62.6 0 0 515.03 403.23
  Q 518.20 408.48 519.72 414.35
  C 519.82 414.77 520.69 416.63 520.80 414.56"
/>
<path stroke="#082f45" vector-effect="non-scaling-stroke" d="
  M 400.38 446.73
  C 414.31 455.18 429.70 460.51 444.56 466.98
  A 0.40 0.30 13.5 0 0 445.11 466.74
  Q 444.00 448.00 444.98 429.25
  A 0.68 0.61 10.4 0 0 444.49 428.61
  Q 425.92 422.96 407.72 416.22
  Q 402.21 414.18 397.27 411.04
  A 0.30 0.29 18.3 0 0 396.81 411.26
  Q 396.48 416.93 396.95 420.50
  Q 398.57 432.84 399.09 444.54
  A 2.70 2.70 0.0 0 0 400.38 446.73"
/>
<path stroke="#155c80" vector-effect="non-scaling-stroke" d="
  M 447.44 433.19
  Q 446.80 450.00 447.39 467.05
  A 0.65 0.65 0.0 0 0 448.29 467.63
  Q 459.44 463.03 470.96 458.49
  Q 477.10 456.07 481.10 455.13
  A 1.02 0.94 -86.2 0 0 481.80 454.47
  Q 488.25 435.38 479.20 417.50
  A 0.64 0.58 64.9 0 0 478.43 417.18
  Q 463.57 423.46 448.03 427.86
  A 0.72 0.68 -8.5 0 0 447.51 428.52
  Q 447.53 430.84 447.44 433.19"
/>
<path stroke="#0b0b0c" vector-effect="non-scaling-stroke" d="
  M 520.1723 419.0231
  A 1.05 0.34 100.3 0 0 520.6945 418.0508
  A 1.05 0.34 100.3 0 0 520.5477 416.9569
  A 1.05 0.34 100.3 0 0 520.0255 417.9292
  A 1.05 0.34 100.3 0 0 520.1723 419.0231"
/>
<path stroke="#1c1e1e" vector-effect="non-scaling-stroke" d="
  M 227.29 499.75
  Q 227.73 503.37 228.21 499.50"
/>
<path stroke="#5d656d" vector-effect="non-scaling-stroke" d="
  M 244.04 457.25
  Q 245.16 456.65 245.55 455.54
  Q 245.75 454.99 245.21 455.19
  Q 244.12 455.57 243.71 456.75"
/>
<path stroke="#1c1e1e" vector-effect="non-scaling-stroke" d="
  M 360.71 485.50
  Q 361.10 486.39 361.94 486.61
  A 0.36 0.35 0.7 0 0 362.38 486.19
  Q 362.16 485.28 361.00 485.21"
/>
<path stroke="#1c1e1e" vector-effect="non-scaling-stroke" d="
  M 273.96 488.75
  Q 272.43 490.14 273.71 491.75"
/>
<path stroke="#1c1e1e" vector-effect="non-scaling-stroke" d="
  M 357.54 535.00
  Q 358.20 535.31 358.66 534.84
  A 0.60 0.56 45.8 0 0 358.64 534.04
  Q 357.88 533.23 357.25 534.46"
/>
<path stroke="#1c1e1e" vector-effect="non-scaling-stroke" d="
  M 246.4178 539.6686
  A 0.96 0.53 42.5 0 0 246.0681 538.6292
  A 0.96 0.53 42.5 0 0 245.0022 538.3714
  A 0.96 0.53 42.5 0 0 245.3519 539.4108
  A 0.96 0.53 42.5 0 0 246.4178 539.6686"
/>
<path stroke="#1c1e1e" vector-effect="non-scaling-stroke" d="
  M 382.17 600.77
  Q 382.88 600.02 382.81 599.61
  A 0.62 0.34 -18.7 0 0 382.05 599.48
  Q 381.20 599.82 380.25 599.54"
/>
<path stroke="#3a6880" vector-effect="non-scaling-stroke" d="
  M 380.25 599.54
  L 376.14 597.57"
/>
<path stroke="#1c1e1e" vector-effect="non-scaling-stroke" d="
  M 376.14 597.57
  Q 374.43 594.67 370.95 595.18"
/>
<path stroke="#3a6880" vector-effect="non-scaling-stroke" d="
  M 370.95 595.18
  L 369.75 594.71"
/>
<path stroke="#1c1e1e" vector-effect="non-scaling-stroke" d="
  M 369.75 594.71
  Q 369.88 592.92 368.29 593.50"
/>
<path stroke="#3a6880" vector-effect="non-scaling-stroke" d="
  M 368.29 593.50
  Q 363.90 592.31 360.10 590.12"
/>
<path stroke="#1c1e1e" vector-effect="non-scaling-stroke" d="
  M 360.10 590.12
  Q 358.11 587.80 355.20 586.66
  A 1.50 0.81 -30.9 0 0 354.29 586.70
  L 353.25 587.04"
/>
<path stroke="#3a6880" vector-effect="non-scaling-stroke" d="
  M 353.25 587.04
  C 340.42 582.22 328.23 575.14 315.70 567.85
  A 1.29 0.98 -33.5 0 0 314.76 567.79
  L 273.69 581.17
  Q 270.91 582.07 273.32 583.64
  C 295.18 597.78 319.64 606.71 341.43 620.74
  A 2.14 2.13 45.1 0 0 343.73 620.75
  Q 362.09 609.10 382.17 600.77"
/>
<path stroke="#56869e" vector-effect="non-scaling-stroke" d="
  M 353.25 587.04
  Q 356.34 589.15 360.10 590.12"
/>
<path stroke="#56869e" vector-effect="non-scaling-stroke" d="
  M 368.29 593.50
  L 369.75 594.71"
/>
<path stroke="#56869e" vector-effect="non-scaling-stroke" d="
  M 370.95 595.18
  Q 373.14 597.25 376.14 597.57"
/>
<path stroke="#56869e" vector-effect="non-scaling-stroke" d="
  M 380.25 599.54
  L 382.17 600.77"
/>
<path stroke="#155c80" vector-effect="non-scaling-stroke" d="
  M 341.83 661.53
  C 339.90 650.64 341.10 638.54 341.03 627.40
  Q 341.02 625.31 339.19 624.27
  Q 321.45 614.22 302.50 604.65
  C 291.09 598.89 280.94 591.51 270.02 585.00
  Q 269.59 584.74 269.60 585.25
  Q 269.95 599.42 271.56 613.53
  Q 271.90 616.51 273.98 618.02
  Q 288.26 628.39 305.94 639.52
  C 315.64 645.63 329.23 654.95 341.53 661.74
  Q 341.90 661.95 341.83 661.53"
/>
<path stroke="#082f45" vector-effect="non-scaling-stroke" d="
  M 344.57 625.50
  L 344.91 659.25
  A 0.35 0.33 77.6 0 0 345.39 659.58
  C 354.92 654.70 362.71 647.90 372.10 643.01
  Q 379.44 639.18 386.31 634.51
  A 1.26 0.60 -26.4 0 0 386.90 633.76
  L 389.21 604.26
  Q 389.45 601.22 386.80 602.55
  L 346.14 622.83
  Q 344.55 623.62 344.57 625.50"
/>
<path stroke="#0a4f79" vector-effect="non-scaling-stroke" d="
  M 450.00 52.27
  C 442.65 50.72 441.92 59.07 441.47 63.75
  Q 440.21 76.76 437.24 89.51
  Q 436.76 91.57 438.71 91.42
  Q 442.00 91.16 444.87 89.69
  A 1.38 0.61 -85.5 0 0 445.37 88.76
  C 447.62 77.38 448.93 66.13 451.59 54.79
  Q 452.08 52.71 450.00 52.27"
/>
<path stroke="#0a4f79" vector-effect="non-scaling-stroke" d="
  M 430.56 56.47
  L 425.70 90.74
  Q 425.38 92.97 427.83 93.12
  C 432.09 93.40 432.89 92.36 433.65 88.23
  Q 436.20 74.27 438.33 60.23
  C 438.55 58.80 439.55 57.09 439.23 55.31
  A 1.02 0.88 79.4 0 0 438.16 54.46
  L 431.23 55.88
  A 0.87 0.66 -4.0 0 0 430.56 56.47"
/>
<path stroke="#0a4f79" vector-effect="non-scaling-stroke" d="
  M 419.57 58.92
  C 417.01 69.52 416.24 83.18 414.39 95.47
  A 1.34 1.23 -88.3 0 0 415.72 97.01
  Q 418.98 96.63 421.62 94.94
  A 1.26 1.26 0.0 0 0 422.19 94.03
  L 426.68 56.99
  A 0.73 0.69 4.4 0 0 425.98 56.22
  Q 422.70 56.10 420.01 58.04
  A 1.45 0.54 -83.7 0 0 419.57 58.92"
/>
<path stroke="#0a4f79" vector-effect="non-scaling-stroke" d="
  M 409.07 62.18
  C 406.09 74.25 405.79 83.75 403.76 94.50
  Q 403.30 96.92 405.75 97.22
  C 408.79 97.59 410.50 96.26 411.10 93.21
  C 413.14 82.76 413.63 72.12 416.20 61.82
  Q 417.09 58.26 413.96 59.40
  L 409.40 61.07
  A 1.21 0.07 -76.6 0 0 409.07 62.18"
/>
<path stroke="#0a4f79" vector-effect="non-scaling-stroke" d="
  M 397.49 64.34
  C 396.86 68.95 395.98 73.38 395.67 78.01
  Q 395.00 87.87 393.27 98.65
  Q 392.90 100.94 395.22 100.89
  C 400.71 100.77 399.82 95.27 400.67 91.83
  C 403.11 82.04 403.73 72.75 405.52 63.24
  Q 406.02 60.57 403.34 61.65
  L 398.02 63.79
  A 0.87 0.55 -13.8 0 0 397.49 64.34"
/>
<path stroke="#0a4f79" vector-effect="non-scaling-stroke" d="
  M 444.74 57.80
  Q 442.53 73.34 439.50 88.75
  A 0.75 0.49 -87.5 0 0 440.05 89.67
  L 443.27 88.67
  A 1.34 0.29 -82.3 0 0 443.69 87.52
  C 445.45 76.70 446.65 65.89 449.09 55.16
  A 0.45 0.45 0.0 0 0 448.68 54.62
  C 446.05 54.49 445.12 55.15 444.74 57.80"
/>
<path stroke="#0a4f79" vector-effect="non-scaling-stroke" d="
  M 432.37 58.94
  Q 430.23 74.64 427.98 90.34
  Q 427.71 92.24 429.77 91.70
  A 2.10 2.10 0.0 0 0 431.30 90.12
  Q 433.12 81.94 434.12 73.54
  C 434.78 67.95 435.88 62.88 436.84 57.51
  A 0.50 0.48 -80.9 0 0 436.44 56.93
  Q 434.33 56.64 432.79 58.08
  A 1.51 1.22 77.1 0 0 432.37 58.94"
/>
<path stroke="#0a4f79" vector-effect="non-scaling-stroke" d="
  M 424.38 58.68
  A 0.31 0.31 0.0 0 0 423.97 58.35
  L 421.20 59.37
  A 0.31 0.31 0.0 0 0 421.00 59.62
  L 416.64 94.59
  A 0.31 0.31 0.0 0 0 417.04 94.93
  L 420.28 93.92
  A 0.31 0.31 0.0 0 0 420.49 93.66
  L 424.38 58.68"
/>
<path stroke="#0a4f79" vector-effect="non-scaling-stroke" d="
  M 410.59 63.77
  Q 407.63 79.01 406.12 94.46
  A 0.83 0.66 90.0 0 0 406.86 95.39
  C 409.92 94.89 410.13 87.13 410.55 84.57
  C 411.54 78.48 411.89 70.90 413.33 65.00
  Q 414.72 59.33 411.05 62.84
  A 1.83 1.09 85.5 0 0 410.59 63.77"
/>
<path stroke="#0a4f79" vector-effect="non-scaling-stroke" d="
  M 398.83 65.63
  C 396.89 76.70 396.72 87.55 395.00 98.52
  Q 394.83 99.60 395.68 99.18
  L 397.67 98.16
  A 1.26 0.65 -88.9 0 0 398.15 97.27
  L 403.21 64.49
  A 0.41 0.36 86.7 0 0 402.75 64.02
  L 399.20 65.21
  A 0.55 0.55 0.0 0 0 398.83 65.63"
/>
<path stroke="#abbfd4" vector-effect="non-scaling-stroke" d="
  M 255.05 165.50
  C 241.97 162.99 229.92 171.07 224.16 181.99
  C 221.39 187.24 220.56 192.58 224.80 197.03
  C 234.90 207.63 263.47 192.70 265.89 180.09
  C 267.32 172.62 262.32 166.90 255.05 165.50"
/>
<path stroke="#79828b" vector-effect="non-scaling-stroke" d="
  M 257.04 365.25
  L 257.46 362.50"
/>
<path stroke="#5d656d" vector-effect="non-scaling-stroke" d="
  M 257.46 362.50
  Q 258.48 356.32 257.45 353.04
  C 247.29 320.51 201.27 334.33 206.24 366.42
  C 207.52 374.73 211.51 380.55 219.50 383.19
  C 235.12 388.35 252.31 381.81 257.04 365.25"
/>
<path stroke="#1c1e1e" vector-effect="non-scaling-stroke" d="
  M 257.46 362.50
  Q 256.63 363.74 257.04 365.25"
/>
<path stroke="#5d656d" vector-effect="non-scaling-stroke" d="
  M 266.95 387.79
  C 276.14 394.97 290.29 394.34 299.36 388.40
  Q 308.02 382.72 310.75 372.58
  C 315.42 355.16 299.19 338.87 281.59 343.04
  C 271.49 345.43 263.50 351.78 260.68 362.09
  C 258.27 370.92 259.20 381.74 266.95 387.79"
/>
<path stroke="#0a4f79" vector-effect="non-scaling-stroke" d="
  M 35.02 313.49
  L 38.06 315.46
  Q 39.66 316.49 39.44 314.18
  L 36.94 287.98
  A 1.42 1.04 -80.5 0 0 36.46 287.03
  L 33.42 284.84
  Q 31.88 283.74 32.19 285.76
  Q 34.19 298.80 34.50 312.00
  A 1.93 0.84 -85.7 0 0 35.02 313.49"
/>
<path stroke="#0a4f79" vector-effect="non-scaling-stroke" d="
  M 42.84 289.59
  L 40.04 288.82
  A 0.85 0.41 -88.4 0 0 39.56 289.75
  L 40.34 316.51
  A 1.66 1.39 -68.3 0 0 40.62 317.36
  Q 41.88 319.04 44.01 319.02
  A 0.66 0.64 -85.6 0 0 44.63 318.47
  C 45.92 310.08 44.16 300.20 43.74 291.61
  A 2.31 1.04 -89.8 0 0 42.84 289.59"
/>
<path stroke="#0d5682" vector-effect="non-scaling-stroke" d="
  M 50.07 291.69
  Q 48.51 290.28 46.43 290.61
  A 0.88 0.30 87.3 0 0 46.18 291.47
  Q 46.79 304.63 46.77 317.81
  C 46.77 319.74 48.08 321.58 49.72 322.15
  A 1.33 1.32 -79.8 0 0 51.46 320.93
  Q 51.92 307.18 50.88 293.43
  A 2.80 2.35 -74.9 0 0 50.07 291.69"
/>
<path stroke="#0d5682" vector-effect="non-scaling-stroke" d="
  M 56.55 326.02
  A 0.93 0.92 16.5 0 0 57.94 325.27
  Q 58.54 314.87 58.11 304.06
  C 58.02 301.71 58.51 298.59 58.06 295.79
  A 1.24 0.50 86.2 0 0 57.62 294.87
  L 55.39 293.81
  Q 53.35 292.85 53.44 295.59
  Q 53.86 308.82 53.77 320.60
  C 53.74 323.33 54.27 324.71 56.55 326.02"
/>
<path stroke="#808080" vector-effect="non-scaling-stroke" d="
  M 229.81 337.81
  C 233.18 336.05 229.56 336.36 228.97 336.49
  Q 209.39 340.66 208.47 358.76
  C 207.92 369.59 212.16 378.85 223.48 380.97
  Q 239.21 383.91 247.91 373.70
  C 257.17 362.85 256.00 348.59 244.09 339.95
  Q 242.31 338.66 243.31 340.57
  A 1.51 1.33 39.6 0 1 243.46 341.50
  C 241.94 349.66 231.15 347.89 228.69 341.03
  Q 227.90 338.81 229.81 337.81"
/>
<path stroke="#808080" vector-effect="non-scaling-stroke" d="
  M 296.95 349.48
  C 294.83 360.79 276.84 351.69 283.94 345.38
  Q 285.49 344.01 283.45 344.36
  Q 265.61 347.47 262.58 362.69
  Q 260.57 372.77 264.74 380.34
  C 271.71 392.97 292.74 391.84 301.68 381.67
  C 308.16 374.31 309.82 362.64 304.20 354.21
  C 303.65 353.39 295.33 344.49 296.84 348.53
  A 1.99 1.37 49.0 0 1 296.95 349.48"
/>
<path stroke="#0a4f79" vector-effect="non-scaling-stroke" d="
  M 402.01 444.47
  L 406.08 446.67
  A 1.15 1.12 -73.4 0 0 407.73 445.75
  C 408.57 436.65 406.76 428.10 405.43 419.16
  A 1.13 0.78 -87.3 0 0 404.92 418.35
  L 400.99 416.51
  A 1.00 0.93 -79.2 0 0 399.66 417.49
  C 399.92 426.30 401.43 434.80 401.51 443.61
  A 0.99 0.95 -76.4 0 0 402.01 444.47"
/>
<path stroke="#0a4f79" vector-effect="non-scaling-stroke" d="
  M 410.23 446.67
  C 410.30 449.06 414.22 450.79 416.10 450.27
  A 0.68 0.64 81.2 0 0 416.56 449.60
  Q 416.16 437.44 415.08 425.32
  C 414.74 421.45 411.89 421.84 409.58 420.10
  Q 408.28 419.12 408.45 420.74
  Q 409.84 433.68 410.23 446.67"
/>
<path stroke="#0a4f79" vector-effect="non-scaling-stroke" d="
  M 419.57 423.76
  C 418.18 421.54 417.97 424.41 418.00 425.12
  Q 418.51 438.27 419.22 451.47
  A 1.50 0.43 -89.0 0 0 419.50 452.52
  Q 421.76 454.75 425.03 454.76
  A 1.16 0.95 85.6 0 0 425.94 453.45
  C 424.78 444.40 425.01 434.99 423.23 426.12
  A 1.24 0.53 83.5 0 0 422.72 425.22
  L 420.18 424.32
  A 1.38 0.79 72.4 0 1 419.57 423.76"
/>
<path stroke="#0a4f79" vector-effect="non-scaling-stroke" d="
  M 428.44 456.09
  L 432.48 457.87
  Q 434.83 458.91 434.47 455.84
  Q 433.03 443.42 432.76 430.97
  Q 432.65 425.94 427.58 426.93
  A 1.51 1.26 -7.3 0 0 426.36 428.25
  L 427.28 454.00
  A 2.52 1.85 -82.7 0 0 428.44 456.09"
/>
<path stroke="#0a4f79" vector-effect="non-scaling-stroke" d="
  M 436.96 459.38
  C 442.26 464.11 441.87 459.26 441.53 456.11
  Q 440.24 444.10 440.53 432.00
  A 1.27 0.36 -86.5 0 0 440.28 430.86
  L 436.35 429.03
  A 0.67 0.46 -82.4 0 0 435.70 429.75
  L 436.17 458.00
  A 2.21 1.32 29.4 0 0 436.96 459.38"
/>
<path stroke="#0a4f79" vector-effect="non-scaling-stroke" d="
  M 403.94 443.56
  Q 404.67 444.37 405.75 444.44
  A 0.51 0.45 -87.9 0 0 406.24 443.93
  Q 406.19 432.28 404.07 420.85
  C 403.79 419.35 402.86 418.59 401.39 418.67
  A 0.52 0.50 84.3 0 0 400.92 419.26
  Q 402.57 430.82 403.09 442.50
  A 1.20 0.82 -80.9 0 0 403.50 443.37
  Q 403.71 443.51 403.94 443.56"
/>
<path stroke="#0a4f79" vector-effect="non-scaling-stroke" d="
  M 414.33 448.44
  A 0.38 0.37 -80.3 0 0 414.85 448.07
  Q 414.25 436.85 413.51 425.50
  Q 413.35 423.06 410.94 422.63
  A 0.38 0.37 -87.9 0 0 410.50 423.05
  Q 411.82 434.43 412.11 445.83
  C 412.15 447.57 412.95 447.85 414.33 448.44"
/>
<path stroke="#0a4f79" vector-effect="non-scaling-stroke" d="
  M 421.28 452.00
  L 423.49 453.02
  A 0.49 0.30 -86.0 0 0 423.89 452.46
  Q 422.99 440.50 422.11 428.57
  C 421.96 426.51 419.55 424.18 419.85 428.47
  Q 420.64 439.98 420.90 451.02
  A 1.17 0.53 -87.0 0 0 421.28 452.00"
/>
<path stroke="#0a4f79" vector-effect="non-scaling-stroke" d="
  M 432.19 455.90
  A 0.41 0.38 -82.1 0 0 432.72 455.47
  Q 431.43 443.38 431.03 431.03
  C 430.97 429.24 430.25 428.37 428.53 428.11
  A 0.38 0.38 0.0 0 0 428.09 428.50
  L 429.13 453.75
  A 1.24 0.51 -88.8 0 0 429.53 454.79
  L 432.19 455.90"
/>
<path stroke="#0a4f79" vector-effect="non-scaling-stroke" d="
  M 438.7793 431.6488
  A 0.27 0.27 0.0 0 0 438.4995 431.3888
  L 437.3803 431.4299
  A 0.27 0.27 0.0 0 0 437.1204 431.7096
  L 438.1207 458.9912
  A 0.27 0.27 0.0 0 0 438.4005 459.2512
  L 439.5197 459.2101
  A 0.27 0.27 0.0 0 0 439.7796 458.9304
  L 438.7793 431.6488"
/>
<path stroke="#0a4f79" vector-effect="non-scaling-stroke" d="
  M 380.47 610.19
  Q 379.83 621.81 380.39 633.24
  A 1.17 1.17 0.0 0 0 382.06 634.24
  C 384.96 632.84 384.68 630.79 384.75 627.36
  Q 384.97 617.21 385.49 607.45
  A 0.77 0.77 0.0 0 0 384.61 606.65
  Q 380.63 607.23 380.47 610.19"
/>
<path stroke="#0a4f79" vector-effect="non-scaling-stroke" d="
  M 372.67 613.18
  Q 372.43 620.30 372.70 627.41
  C 372.82 630.41 371.90 634.93 373.21 638.94
  A 0.76 0.35 72.1 0 0 373.76 639.54
  Q 376.38 638.90 378.19 636.95
  A 1.25 0.36 85.0 0 0 378.37 636.03
  C 378.28 627.49 377.33 618.98 377.57 610.64
  Q 377.61 609.21 376.63 609.79
  L 372.85 612.03
  A 1.26 0.16 -88.4 0 0 372.67 613.18"
/>
<path stroke="#0a4f79" vector-effect="non-scaling-stroke" d="
  M 364.95 641.02
  A 1.21 1.21 0.0 0 0 366.86 642.00
  L 370.41 639.52
  A 1.21 1.21 0.0 0 0 370.92 638.50
  L 370.36 615.34
  A 1.21 1.21 0.0 0 0 368.64 614.27
  L 365.36 615.81
  A 1.21 1.21 0.0 0 0 364.67 616.92
  L 364.95 641.02"
/>
<path stroke="#0a4f79" vector-effect="non-scaling-stroke" d="
  M 358.67 647.06
  C 361.83 647.11 363.63 645.43 363.42 642.10
  Q 362.73 631.37 363.08 619.95
  Q 363.17 617.23 360.75 618.19
  L 358.00 619.29
  A 2.39 1.99 -12.8 0 0 356.49 621.26
  Q 356.53 633.91 357.96 646.50
  A 0.74 0.63 -2.1 0 0 358.67 647.06"
/>
<path stroke="#0a4f79" vector-effect="non-scaling-stroke" d="
  M 382.44 609.10
  C 381.55 610.17 381.83 629.04 382.05 631.78
  A 0.24 0.20 86.9 0 0 382.25 632.00
  L 382.50 632.00
  A 0.41 0.20 -85.0 0 0 382.72 631.63
  C 383.25 626.76 382.72 621.52 383.13 617.14
  Q 383.49 613.22 383.91 609.27
  A 0.56 0.49 -84.0 0 0 383.48 608.66
  Q 382.86 608.60 382.44 609.10"
/>
<path stroke="#0a4f79" vector-effect="non-scaling-stroke" d="
  M 375.9849 612.6017
  A 0.26 0.26 0.0 0 0 375.7195 612.3472
  L 374.2398 612.3782
  A 0.26 0.26 0.0 0 0 373.9854 612.6436
  L 374.4951 636.9783
  A 0.26 0.26 0.0 0 0 374.7605 637.2328
  L 376.2402 637.2018
  A 0.26 0.26 0.0 0 0 376.4946 636.9364
  L 375.9849 612.6017"
/>
<path stroke="#0a4f79" vector-effect="non-scaling-stroke" d="
  M 366.44 622.69
  Q 366.47 631.05 366.46 639.45
  A 0.42 0.40 83.6 0 0 366.95 639.87
  C 368.55 639.46 369.19 638.35 369.10 636.65
  Q 368.52 626.68 368.87 616.68
  Q 368.91 615.78 368.33 616.09
  L 366.40 617.14
  A 1.17 0.35 81.4 0 0 366.25 618.21
  Q 366.43 619.59 366.44 622.69"
/>
<path stroke="#0a4f79" vector-effect="non-scaling-stroke" d="
  M 361.55 643.10
  Q 361.45 631.84 361.17 620.54
  A 0.55 0.31 82.0 0 0 360.72 619.95
  L 358.93 620.92
  A 1.04 0.75 80.6 0 0 358.52 621.75
  Q 358.34 633.03 359.57 644.24
  A 0.71 0.59 89.9 0 0 360.08 644.85
  C 361.13 644.99 361.56 644.09 361.55 643.10"
/>
</g>
<path fill="#000000" d="
  M 524.46 434.75
  Q 518.10 436.44 524.46 437.25
  Q 525.67 443.71 525.08 450.99
  C 523.00 476.76 514.39 498.17 491.35 512.62
  C 467.77 527.41 439.05 534.49 411.31 534.15
  A 1.28 1.28 0.0 0 0 410.06 535.11
  C 407.20 546.23 401.29 554.11 394.07 562.73
  C 385.67 572.77 374.63 579.60 362.08 583.36
  Q 360.50 583.83 362.25 584.69
  L 390.99 598.94
  Q 394.18 600.52 394.02 603.75
  L 392.36 635.51
  Q 392.28 637.08 390.70 638.04
  Q 368.22 651.78 345.76 664.98
  C 338.17 669.44 333.16 664.01 326.69 659.81
  C 309.27 648.52 292.43 638.02 275.44 624.81
  Q 269.90 620.50 268.66 614.02
  C 266.69 603.66 264.83 592.67 267.06 582.21
  A 1.11 0.43 -83.1 0 1 267.47 581.44
  L 276.19 577.12
  Q 277.30 576.58 276.20 576.07
  C 270.20 573.29 265.51 570.48 260.31 565.71
  C 254.66 560.53 247.46 555.92 243.54 549.25
  Q 243.47 548.04 242.67 547.16
  A 0.52 0.52 0.0 0 0 241.92 547.14
  Q 240.99 548.05 242.25 548.79
  Q 242.95 558.65 242.44 565.28
  Q 242.18 568.58 241.26 571.76
  C 235.08 593.12 214.62 606.75 193.56 610.67
  Q 193.36 610.70 193.16 610.81
  Q 192.69 611.05 192.39 611.08
  C 189.13 611.38 170.00 612.63 168.10 611.05
  A 0.90 0.85 -33.0 0 0 167.27 610.90
  Q 166.13 611.27 165.25 610.29
  C 165.92 608.59 162.31 609.16 164.25 610.29
  Q 161.74 610.04 159.54 608.69
  Q 155.55 606.48 150.99 606.56
  L 149.43 605.51
  Q 148.97 605.20 148.54 605.17
  C 145.48 604.90 143.54 603.29 141.36 602.26
  C 121.34 592.82 108.44 580.83 90.75 565.25
  Q 86.53 561.53 84.15 558.10
  Q 96.24 567.92 109.12 577.02
  Q 127.90 591.23 150.71 598.00
  Q 163.17 602.15 173.82 603.14
  C 196.83 605.28 226.24 593.43 232.44 568.79
  C 235.28 557.50 232.27 544.75 230.47 533.40
  C 230.09 530.97 228.99 528.73 228.45 526.25
  C 225.44 512.34 219.28 496.53 222.03 482.19
  C 224.82 467.59 236.31 457.29 249.75 451.96
  L 250.04 452.50
  Q 245.63 457.64 242.35 463.78
  Q 233.63 486.21 237.51 510.16
  C 239.26 527.51 247.48 541.29 258.14 555.61
  Q 267.06 567.61 279.83 575.52
  A 1.07 1.04 51.1 0 0 280.73 575.63
  C 290.23 572.36 311.50 563.75 318.02 566.16
  C 331.27 571.06 343.87 576.91 356.78 582.65
  A 1.26 1.26 0.0 0 0 357.71 582.68
  C 386.05 572.40 404.96 554.43 406.01 522.75
  C 406.86 497.22 393.70 476.79 372.00 464.21
  Q 369.12 461.43 365.25 460.54
  C 348.60 452.12 317.31 443.74 308.41 467.35
  C 305.83 474.18 308.07 480.23 313.71 484.55
  C 329.58 496.69 340.33 476.36 328.43 466.79
  Q 327.43 465.99 328.23 465.99
  L 329.25 466.00
  A 0.93 0.68 72.9 0 1 329.95 466.52
  Q 330.50 467.63 330.77 466.49
  A 0.68 0.64 -79.7 0 1 331.48 465.97
  C 361.88 469.30 391.14 504.78 370.07 534.22
  C 358.11 550.92 333.80 560.81 313.45 557.14
  C 297.94 554.34 284.96 543.70 277.00 530.21
  Q 270.24 518.25 269.96 504.50
  Q 269.94 483.07 281.68 465.36
  A 0.95 0.04 -86.7 0 0 281.77 464.49
  L 282.44 453.56
  Q 282.59 451.21 283.16 453.56
  Q 283.57 455.26 283.58 457.00
  C 283.86 493.02 304.66 517.41 339.88 523.46
  Q 352.31 526.20 364.86 525.65
  A 0.91 0.87 12.8 0 0 365.61 525.20
  C 371.23 515.31 371.57 502.19 365.64 492.28
  A 1.20 1.17 -8.9 0 0 364.88 491.74
  Q 349.44 488.36 337.36 478.14
  L 335.96 476.84
  Q 335.57 476.48 335.55 477.03
  C 335.15 486.59 327.39 493.06 317.93 489.32
  C 299.13 481.89 301.39 461.42 315.90 451.61
  A 0.77 0.58 -30.7 0 0 316.24 450.79
  L 313.77 445.27
  A 0.43 0.21 62.3 0 1 313.76 444.84
  C 314.25 444.42 317.64 449.18 318.02 449.78
  A 0.64 0.63 61.9 0 0 318.79 450.02
  Q 325.16 447.41 331.98 446.62
  A 3.01 0.87 -46.6 0 0 333.66 445.63
  Q 350.75 430.80 366.50 414.79
  C 386.82 395.73 407.70 373.29 423.04 349.34
  C 451.12 305.50 449.72 256.26 417.79 215.25
  Q 413.60 209.25 408.81 203.70
  C 395.72 188.52 382.67 173.40 370.56 157.41
  C 361.58 145.54 355.81 133.27 364.30 119.32
  Q 368.80 111.94 377.64 106.35
  A 0.28 0.27 42.5 0 0 377.61 105.87
  L 365.75 99.21
  Q 364.56 96.58 361.50 97.04
  L 359.75 95.96
  Q 359.20 94.24 357.75 94.71
  C 330.13 101.29 319.18 124.44 325.72 151.01
  C 326.52 154.27 326.88 156.69 330.28 158.07
  Q 362.07 170.96 386.29 195.25
  Q 386.62 196.68 385.64 197.25
  A 0.93 0.20 -29.6 0 0 384.97 197.85
  Q 385.75 200.87 388.28 202.73
  Q 390.17 204.12 390.61 204.18
  C 391.40 204.30 392.26 206.71 392.69 207.35
  Q 394.78 210.42 398.87 212.79
  A 1.21 1.19 19.3 0 1 399.46 213.99
  Q 399.14 216.43 400.38 218.23
  C 401.99 220.57 402.96 222.35 404.90 223.49
  A 1.09 0.11 30.7 0 1 405.73 224.10
  Q 405.76 225.92 404.01 224.90
  Q 403.34 224.51 403.68 225.48
  C 405.08 229.51 407.84 231.12 409.79 234.05
  Q 410.12 234.54 410.51 234.75
  Q 412.65 235.92 411.27 238.00
  A 0.66 0.61 -53.9 0 0 411.37 238.85
  Q 413.40 240.50 412.73 242.98
  A 1.21 0.82 43.0 0 0 412.92 243.82
  L 413.81 245.21
  A 1.02 0.47 -42.9 0 1 413.42 246.16
  L 412.16 247.42
  A 1.18 0.20 -47.0 0 1 411.43 247.98
  C 408.18 248.52 414.37 252.32 414.96 252.87
  A 1.10 1.06 -67.4 0 1 415.29 253.72
  C 415.06 256.98 414.97 261.65 416.65 264.54
  Q 417.70 266.33 415.40 266.83
  A 0.78 0.66 -0.5 0 0 414.83 267.32
  L 413.71 271.20
  A 1.63 1.12 -58.1 0 0 413.76 272.25
  L 414.94 274.56
  A 1.74 1.12 45.1 0 1 415.14 275.49
  C 414.20 281.89 414.48 288.29 413.37 294.68
  C 412.71 298.41 410.62 302.44 410.03 306.80
  Q 409.50 310.74 408.37 311.34
  Q 404.80 313.26 405.43 317.25
  A 1.45 0.51 -55.0 0 1 405.19 318.10
  Q 404.68 319.07 404.71 320.22
  A 1.26 1.16 67.8 0 1 404.39 321.08
  C 402.38 323.23 401.65 326.07 400.26 328.12
  Q 395.03 335.84 389.78 343.58
  Q 389.51 343.99 389.04 344.22
  Q 386.27 345.59 384.80 348.05
  C 382.29 352.27 379.84 354.84 375.74 357.57
  A 1.34 0.53 -26.9 0 0 375.08 358.32
  L 375.01 358.75
  A 0.58 0.46 21.5 0 1 374.19 359.00
  Q 372.59 358.08 370.82 358.90
  A 0.98 0.77 -9.8 0 0 370.29 359.49
  Q 369.83 361.49 371.34 362.65
  Q 372.39 363.46 371.65 363.75
  L 370.05 364.38
  A 1.15 0.24 60.5 0 1 369.30 363.52
  Q 368.34 361.83 367.00 363.25
  Q 363.20 367.24 361.05 368.55
  C 359.03 369.78 357.58 373.15 356.20 374.72
  Q 351.09 380.55 344.31 384.48
  A 1.62 0.89 -79.6 0 0 343.78 385.13
  Q 343.66 385.39 343.50 385.49
  Q 337.16 389.69 332.90 393.13
  C 331.32 394.41 330.81 396.34 329.30 397.56
  C 327.87 398.71 325.88 399.59 325.79 401.75
  Q 315.73 411.59 308.17 423.50
  L 304.14 432.74
  Q 303.93 433.21 303.87 432.72
  Q 303.65 430.99 304.20 428.98
  C 308.41 413.65 317.67 399.45 328.65 388.28
  C 337.01 379.77 349.88 370.33 360.45 361.68
  C 386.16 340.64 403.53 315.10 408.73 281.91
  C 410.48 270.78 409.20 261.28 406.80 247.04
  C 403.84 229.50 392.11 212.36 379.50 200.21
  Q 378.85 197.64 376.25 197.04
  L 365.21 187.25
  Q 356.56 179.14 345.55 174.67
  L 338.81 171.13
  Q 332.99 166.30 325.47 165.07
  L 321.50 163.46
  Q 314.86 159.82 307.25 159.29
  C 270.60 150.23 229.93 152.99 196.75 171.54
  Q 162.40 191.20 147.50 227.96
  C 129.70 271.60 138.39 311.45 167.10 347.39
  C 178.46 361.62 191.61 376.23 199.49 392.52
  C 204.77 403.40 206.51 418.96 201.03 430.26
  C 187.18 458.80 153.81 474.49 123.51 475.82
  C 105.84 476.60 85.71 472.23 73.02 459.73
  C 50.89 437.91 64.20 404.83 77.29 382.75
  Q 86.36 369.77 89.96 361.69
  C 94.98 350.41 92.65 338.44 86.06 328.28
  A 1.09 1.09 0.0 0 0 84.66 327.90
  Q 75.49 332.47 65.54 335.98
  C 58.83 338.34 53.08 333.17 47.96 329.75
  Q 47.73 327.47 45.00 328.04
  L 44.71 327.75
  Q 43.37 325.87 41.00 326.04
  L 26.76 317.27
  Q 21.10 313.79 20.56 306.23
  Q 19.53 291.85 18.76 279.75
  Q 18.49 275.57 15.47 278.46
  C 8.30 285.30 7.09 292.70 7.11 302.60
  C 7.14 322.70 18.17 326.76 36.00 331.29
  C 50.65 336.12 63.20 346.75 61.74 363.60
  C 60.48 374.43 54.78 382.19 49.84 391.11
  C 39.47 409.79 33.89 428.42 33.44 449.99
  C 33.22 461.08 34.93 472.26 42.10 481.14
  C 60.12 503.45 94.65 511.12 121.75 507.30
  C 146.27 503.84 169.74 498.02 190.35 484.30
  A 0.90 0.89 -18.1 0 0 190.75 483.52
  C 190.51 478.55 189.51 473.15 190.09 468.66
  C 193.23 444.23 230.76 417.51 254.84 428.44
  Q 254.95 428.49 255.01 428.58
  Q 255.09 428.67 255.13 428.75
  Q 255.33 429.09 254.92 428.95
  Q 242.13 424.36 228.97 430.01
  C 217.37 434.99 205.73 443.74 200.15 454.39
  C 194.51 465.14 196.46 475.73 199.03 487.13
  C 202.14 500.88 203.88 513.83 203.72 527.77
  Q 202.16 529.62 202.96 531.50
  Q 201.84 544.64 190.98 551.94
  C 172.64 564.28 145.55 561.61 126.71 552.25
  Q 123.19 549.36 118.75 548.46
  C 95.23 535.43 65.91 507.05 37.74 526.25
  C 20.73 537.85 12.56 559.52 22.37 578.65
  C 28.00 589.64 37.93 599.87 50.77 601.49
  C 62.36 602.96 69.26 590.40 60.29 581.93
  C 54.71 576.65 48.37 573.16 44.70 566.06
  C 41.44 559.76 42.54 553.03 48.50 548.87
  C 59.58 541.13 74.77 550.89 83.25 557.71
  C 72.88 552.21 57.06 541.92 47.99 555.33
  A 1.71 1.65 -28.0 0 0 47.69 556.25
  C 47.21 576.44 76.87 574.75 70.29 595.98
  C 66.60 607.89 54.36 610.38 43.73 606.94
  C 25.92 601.18 11.74 581.31 11.25 562.84
  C 10.67 541.31 25.77 521.79 45.88 515.14
  C 65.36 508.69 83.69 517.23 99.60 527.15
  C 112.77 535.37 125.35 543.25 139.31 547.96
  C 151.68 552.12 162.74 552.63 175.23 549.72
  C 197.62 544.51 196.15 523.11 193.00 505.75
  Q 192.82 504.75 193.10 503.06
  A 1.49 1.32 38.0 0 0 192.93 502.14
  C 192.05 500.58 191.84 494.91 191.76 493.24
  A 0.82 0.81 74.9 0 0 190.57 492.55
  Q 179.47 498.40 168.07 503.58
  Q 155.96 509.09 146.57 511.49
  Q 132.28 515.15 117.61 516.41
  C 115.98 516.55 113.36 516.28 111.22 516.86
  A 1.14 0.98 52.0 0 1 110.32 516.68
  Q 109.65 516.21 109.05 516.80
  A 1.18 0.90 -59.1 0 1 108.20 517.14
  Q 100.80 516.34 93.37 516.36
  C 92.36 516.36 91.74 515.94 90.70 515.78
  Q 79.38 513.97 68.70 509.74
  C 67.94 509.44 67.59 508.80 66.46 508.96
  A 1.60 1.16 -27.4 0 1 65.53 508.82
  Q 61.88 506.75 57.96 505.28
  Q 55.59 504.39 48.11 499.16
  Q 39.23 492.96 33.51 483.74
  Q 32.49 482.09 32.07 481.20
  Q 25.57 467.46 26.50 452.24
  Q 28.57 418.38 46.84 390.25
  C 52.85 381.01 65.21 366.34 58.62 354.68
  C 54.81 347.94 45.61 342.09 38.73 339.27
  C 29.43 335.46 17.46 333.74 10.09 327.41
  C 1.71 320.22 0.38 304.95 2.35 294.07
  C 3.76 286.29 9.11 275.11 18.31 274.54
  A 0.62 0.62 0.0 0 0 18.89 273.81
  Q 18.38 271.16 19.39 268.67
  A 1.19 0.98 -85.9 0 1 19.99 268.04
  C 29.42 264.39 38.67 260.73 48.49 257.77
  Q 59.60 254.41 70.69 251.01
  C 76.48 249.23 83.31 248.93 88.43 250.84
  C 99.40 254.93 110.66 258.53 121.08 263.91
  C 125.17 266.02 123.39 268.19 123.29 271.62
  Q 122.84 288.02 122.49 303.55
  Q 122.42 306.43 120.18 308.23
  C 116.28 311.36 112.50 313.07 108.25 315.37
  Q 97.83 321.01 87.61 326.27
  A 0.73 0.72 -31.0 0 0 87.34 327.33
  Q 95.08 338.34 94.82 351.15
  C 94.65 359.47 91.06 366.71 86.83 374.08
  C 76.27 392.50 61.07 419.21 69.79 441.83
  C 81.26 471.59 125.96 471.67 150.07 462.84
  Q 174.07 454.05 191.82 435.16
  C 197.59 429.02 200.15 422.49 200.63 414.40
  C 201.24 404.13 194.77 391.65 188.80 383.69
  C 177.62 368.78 164.09 354.12 151.79 339.01
  C 148.35 334.78 145.91 330.28 142.82 325.18
  Q 133.99 310.60 130.89 291.22
  Q 126.33 262.67 135.55 234.06
  C 143.76 208.58 158.30 188.02 179.13 172.09
  Q 180.20 171.27 183.30 169.48
  C 185.25 168.36 186.99 166.73 188.74 165.74
  C 228.86 142.87 277.66 140.37 320.89 154.40
  Q 321.93 154.74 321.48 153.74
  C 309.07 125.98 319.35 96.78 351.81 92.42
  Q 353.70 92.17 352.07 91.19
  C 343.28 85.91 334.75 80.22 326.43 73.81
  C 322.70 70.94 321.55 68.93 321.87 63.93
  C 322.76 50.32 323.91 35.76 328.64 22.48
  C 331.41 14.70 342.31 14.20 348.83 12.86
  Q 360.66 10.43 372.69 9.29
  C 384.94 8.14 392.65 7.29 401.80 13.58
  A 1.54 1.54 0.0 0 0 403.92 13.21
  Q 409.06 6.08 417.40 3.42
  C 435.08 -2.23 450.14 4.64 459.90 19.30
  C 465.91 28.32 470.83 37.17 471.81 48.00
  C 473.03 61.52 465.25 74.09 455.36 82.68
  A 1.44 0.42 -36.2 0 0 454.77 83.45
  L 453.60 90.23
  Q 453.04 93.52 450.57 94.40
  C 445.24 96.30 439.93 98.51 434.75 100.00
  Q 417.60 104.92 400.11 108.48
  C 396.84 109.14 393.29 110.32 389.76 111.00
  C 387.23 111.50 385.63 110.46 383.45 109.44
  A 1.09 1.03 42.7 0 0 382.54 109.45
  C 370.50 115.33 361.20 125.73 362.55 140.01
  Q 362.93 144.03 365.85 147.65
  Q 380.75 166.07 403.71 187.30
  Q 418.77 201.22 432.50 222.02
  Q 450.31 249.02 452.15 281.46
  Q 452.30 284.10 452.14 286.73
  C 452.03 288.43 452.29 290.76 452.13 292.78
  Q 449.66 323.52 432.29 349.55
  C 427.11 357.32 421.15 366.36 414.56 372.00
  C 413.56 372.85 413.16 374.34 412.34 375.22
  Q 377.25 412.98 336.82 444.94
  C 335.23 446.20 335.61 447.11 338.03 446.24
  Q 339.04 445.88 342.27 446.47
  C 370.05 451.50 396.90 468.64 408.04 495.45
  A 0.87 0.86 76.6 0 0 408.89 495.98
  C 420.69 495.15 430.22 495.20 443.01 491.68
  Q 467.42 484.97 478.73 462.47
  Q 479.68 460.58 477.50 461.50
  Q 464.28 467.09 450.81 472.05
  Q 448.40 472.94 444.04 473.46
  A 1.46 1.42 56.4 0 1 443.12 473.26
  Q 437.72 470.03 431.02 467.45
  Q 418.45 462.60 405.04 455.88
  C 400.59 453.65 394.95 450.82 394.10 445.95
  C 393.05 439.91 393.01 433.21 392.59 428.29
  Q 391.76 418.80 392.48 408.50
  Q 392.63 406.34 394.63 405.50
  C 396.14 404.86 403.76 403.75 403.56 401.75
  Q 403.50 401.18 403.67 400.80
  C 413.70 377.88 436.05 365.80 460.33 366.89
  C 478.94 367.72 493.86 376.35 506.45 390.14
  A 4.75 2.76 -0.5 0 0 508.49 391.30
  L 523.19 395.54
  Q 524.94 396.05 525.00 397.99
  Q 525.40 413.15 524.04 428.25
  Q 523.88 430.03 524.46 434.75
  Z
  M 405.87 14.01
  A 1.14 1.13 35.2 0 0 406.17 15.72
  Q 417.27 22.21 428.93 28.55
  C 430.03 29.15 431.40 28.97 432.31 30.23
  Q 432.64 30.70 433.03 30.89
  Q 443.57 36.22 453.95 41.87
  C 456.60 43.32 458.36 45.12 458.44 48.06
  Q 458.76 59.33 456.83 70.02
  Q 456.65 71.02 457.27 70.21
  C 465.46 59.46 466.85 47.94 461.84 35.16
  C 457.89 25.09 451.39 13.28 440.90 8.66
  C 429.67 3.73 414.46 3.87 405.87 14.01
  Z
  M 446.75 44.46
  Q 446.15 42.85 444.25 43.04
  C 431.63 36.85 419.46 29.50 407.19 22.63
  C 404.98 21.40 402.24 19.93 400.28 18.61
  C 391.97 12.96 384.35 13.04 374.75 14.18
  Q 354.96 16.53 335.84 18.73
  Q 334.41 18.89 335.62 19.67
  C 347.49 27.25 358.90 35.30 370.99 42.14
  Q 386.01 50.64 389.47 53.01
  Q 393.29 55.63 397.92 54.85
  Q 423.93 50.44 449.95 45.99
  Q 450.38 45.92 449.97 45.75
  L 446.75 44.46
  Z
  M 331.69 25.19
  Q 327.59 45.80 326.77 66.00
  Q 326.69 67.80 328.09 68.93
  Q 332.45 72.50 337.08 75.41
  Q 344.31 79.96 378.22 99.26
  Q 381.57 101.17 385.22 102.56
  A 0.37 0.37 0.0 0 0 385.72 102.24
  Q 386.72 80.75 389.75 64.25
  Q 390.34 61.06 390.44 59.82
  A 0.97 0.89 22.3 0 0 390.06 59.01
  Q 384.95 55.12 381.92 53.33
  Q 356.68 38.39 331.94 22.63
  Q 331.54 22.37 331.64 22.85
  Q 331.89 24.15 331.69 25.19
  Z
  M 394.54 59.98
  C 392.54 74.46 391.47 89.07 389.83 103.30
  Q 389.46 106.52 392.61 105.78
  C 410.40 101.62 428.04 98.27 445.50 92.63
  C 450.09 91.16 449.18 87.34 449.94 83.59
  C 452.18 72.61 454.80 60.89 455.41 49.70
  A 0.94 0.94 0.0 0 0 454.26 48.73
  C 434.68 53.30 415.06 55.91 395.16 59.34
  A 0.75 0.74 -1.1 0 0 394.54 59.98
  Z
  M 385.08 105.92
  Q 385.98 104.42 384.56 104.22
  Q 383.10 104.01 383.73 105.02
  L 384.39 106.08
  A 0.48 0.35 -49.2 0 0 385.08 105.92
  Z
  M 87.30 256.43
  C 81.79 254.09 73.03 254.24 67.45 256.04
  Q 46.27 262.84 25.24 270.14
  Q 24.76 270.30 25.20 270.53
  C 37.41 276.89 50.16 282.75 61.85 290.01
  A 0.99 0.95 -40.0 0 0 62.74 290.07
  Q 88.95 278.80 109.07 270.84
  Q 112.85 269.35 115.56 267.77
  Q 115.99 267.52 115.52 267.35
  Q 101.20 262.31 87.30 256.43
  Z
  M 63.74 294.07
  A 2.91 1.51 77.6 0 0 63.29 295.75
  L 63.17 331.07
  A 0.35 0.19 84.2 0 0 63.43 331.45
  Q 88.18 319.39 112.20 305.96
  Q 113.05 305.49 116.34 302.74
  A 1.01 0.93 -21.4 0 0 116.70 302.00
  L 116.61 271.25
  A 0.31 0.30 78.7 0 0 116.19 270.96
  Q 93.50 280.56 70.76 290.14
  C 67.51 291.51 66.37 290.74 63.74 294.07
  Z
  M 32.61 279.41
  C 29.31 277.82 26.28 275.41 22.99 273.51
  Q 22.56 273.26 22.60 273.77
  Q 23.32 281.86 24.16 289.95
  C 24.74 295.54 24.90 303.02 25.89 309.45
  Q 26.24 311.71 28.24 312.81
  Q 44.36 321.66 59.79 331.64
  Q 60.35 332.01 60.34 331.50
  Q 59.98 313.36 60.79 295.26
  Q 60.90 292.90 58.73 292.16
  Q 57.18 291.63 54.49 290.26
  Q 43.61 284.72 32.61 279.41
  Z
  M 154.2031 335.3695
  A 1.12 0.63 42.7 0 0 153.8072 334.1470
  A 1.12 0.63 42.7 0 0 152.5569 333.8505
  A 1.12 0.63 42.7 0 0 152.9528 335.0730
  A 1.12 0.63 42.7 0 0 154.2031 335.3695
  Z
  M 438.56 392.54
  C 444.19 389.15 457.10 392.59 463.35 395.90
  C 480.83 405.15 490.81 423.69 489.97 443.24
  C 488.61 474.76 465.74 496.16 435.49 500.72
  Q 423.18 502.58 410.65 502.21
  A 0.49 0.40 82.8 0 0 410.27 502.81
  Q 413.70 516.90 411.03 531.18
  A 0.37 0.31 -0.1 0 0 411.45 531.54
  Q 446.17 527.22 477.29 511.22
  Q 512.98 492.88 516.35 453.28
  C 518.01 433.86 514.67 413.15 503.54 396.71
  C 490.34 377.22 465.96 367.53 442.51 371.76
  C 427.17 374.53 411.86 384.58 407.50 400.26
  A 1.05 1.05 0.0 0 0 408.77 401.55
  C 418.52 399.04 429.65 397.92 438.56 392.54
  Z
  M 397.93 407.39
  C 402.74 410.63 406.85 412.41 413.00 414.12
  Q 425.92 417.70 437.99 423.54
  C 439.93 424.48 442.39 424.84 444.51 425.38
  A 1.69 1.43 38.2 0 0 445.45 425.35
  L 475.22 414.90
  A 1.55 0.39 -23.4 0 1 476.25 414.73
  Q 476.96 414.93 477.45 414.44
  A 1.07 0.39 53.6 0 0 477.15 413.41
  C 472.54 406.76 458.46 393.32 449.64 394.90
  Q 444.52 395.82 437.02 398.08
  Q 428.48 400.65 402.03 406.38
  Q 399.83 406.86 398.12 406.80
  Q 397.00 406.76 397.93 407.39
  Z
  M 518.79 398.43
  A 0.38 0.38 0.0 0 0 518.77 397.71
  L 510.98 395.08
  A 0.38 0.38 0.0 0 0 510.54 395.64
  L 513.34 400.19
  A 0.38 0.38 0.0 0 0 513.80 400.35
  L 518.79 398.43
  Z
  M 520.80 414.56
  Q 521.18 407.58 521.23 400.54
  A 0.43 0.32 81.8 0 0 520.79 400.09
  L 515.24 402.46
  A 0.55 0.51 62.6 0 0 515.03 403.23
  Q 518.20 408.48 519.72 414.35
  C 519.82 414.77 520.69 416.63 520.80 414.56
  Z
  M 400.38 446.73
  C 414.31 455.18 429.70 460.51 444.56 466.98
  A 0.40 0.30 13.5 0 0 445.11 466.74
  Q 444.00 448.00 444.98 429.25
  A 0.68 0.61 10.4 0 0 444.49 428.61
  Q 425.92 422.96 407.72 416.22
  Q 402.21 414.18 397.27 411.04
  A 0.30 0.29 18.3 0 0 396.81 411.26
  Q 396.48 416.93 396.95 420.50
  Q 398.57 432.84 399.09 444.54
  A 2.70 2.70 0.0 0 0 400.38 446.73
  Z
  M 447.44 433.19
  Q 446.80 450.00 447.39 467.05
  A 0.65 0.65 0.0 0 0 448.29 467.63
  Q 459.44 463.03 470.96 458.49
  Q 477.10 456.07 481.10 455.13
  A 1.02 0.94 -86.2 0 0 481.80 454.47
  Q 488.25 435.38 479.20 417.50
  A 0.64 0.58 64.9 0 0 478.43 417.18
  Q 463.57 423.46 448.03 427.86
  A 0.72 0.68 -8.5 0 0 447.51 428.52
  Q 447.53 430.84 447.44 433.19
  Z
  M 520.1723 419.0231
  A 1.05 0.34 100.3 0 0 520.6945 418.0508
  A 1.05 0.34 100.3 0 0 520.5477 416.9569
  A 1.05 0.34 100.3 0 0 520.0255 417.9292
  A 1.05 0.34 100.3 0 0 520.1723 419.0231
  Z
  M 243.71 456.75
  Q 243.36 456.39 242.94 456.69
  Q 220.80 472.54 227.29 499.75
  Q 227.73 503.37 228.21 499.50
  Q 230.01 476.01 244.04 457.25
  Q 245.16 456.65 245.55 455.54
  Q 245.75 454.99 245.21 455.19
  Q 244.12 455.57 243.71 456.75
  Z
  M 360.71 485.50
  Q 361.10 486.39 361.94 486.61
  A 0.36 0.35 0.7 0 0 362.38 486.19
  Q 362.16 485.28 361.00 485.21
  L 361.00 484.98
  A 0.70 0.38 -77.7 0 0 360.88 484.56
  Q 349.76 471.37 332.95 467.12
  C 329.40 466.22 331.62 468.28 332.54 469.03
  Q 345.15 479.38 360.29 485.62
  A 0.38 0.12 -27.7 0 0 360.56 485.57
  L 360.71 485.50
  Z
  M 273.96 488.75
  Q 272.43 490.14 273.71 491.75
  Q 270.60 520.69 292.53 538.98
  Q 307.89 551.78 327.17 549.44
  C 338.44 548.08 349.44 543.01 357.54 535.00
  Q 358.20 535.31 358.66 534.84
  A 0.60 0.56 45.8 0 0 358.64 534.04
  Q 357.88 533.23 357.25 534.46
  L 354.97 534.43
  A 1.79 0.63 -7.8 0 1 354.00 534.23
  Q 352.59 533.38 351.07 534.12
  A 1.19 0.80 36.7 0 1 350.19 534.08
  Q 348.24 533.26 346.24 533.65
  A 1.16 0.76 49.7 0 1 345.43 533.41
  C 343.93 532.28 339.34 532.70 338.59 532.39
  C 336.14 531.35 333.55 531.36 331.23 530.55
  C 327.80 529.34 324.28 528.86 320.92 527.34
  C 307.86 521.46 297.44 515.95 290.36 502.66
  C 284.86 492.33 282.50 480.11 282.06 468.46
  Q 282.01 466.93 281.29 468.29
  Q 276.16 477.99 273.96 488.75
  Z
  M 246.4178 539.6686
  A 0.96 0.53 42.5 0 0 246.0681 538.6292
  A 0.96 0.53 42.5 0 0 245.0022 538.3714
  A 0.96 0.53 42.5 0 0 245.3519 539.4108
  A 0.96 0.53 42.5 0 0 246.4178 539.6686
  Z
  M 382.17 600.77
  Q 382.88 600.02 382.81 599.61
  A 0.62 0.34 -18.7 0 0 382.05 599.48
  Q 381.20 599.82 380.25 599.54
  L 376.14 597.57
  Q 374.43 594.67 370.95 595.18
  L 369.75 594.71
  Q 369.88 592.92 368.29 593.50
  Q 363.90 592.31 360.10 590.12
  Q 358.11 587.80 355.20 586.66
  A 1.50 0.81 -30.9 0 0 354.29 586.70
  L 353.25 587.04
  C 340.42 582.22 328.23 575.14 315.70 567.85
  A 1.29 0.98 -33.5 0 0 314.76 567.79
  L 273.69 581.17
  Q 270.91 582.07 273.32 583.64
  C 295.18 597.78 319.64 606.71 341.43 620.74
  A 2.14 2.13 45.1 0 0 343.73 620.75
  Q 362.09 609.10 382.17 600.77
  Z
  M 341.83 661.53
  C 339.90 650.64 341.10 638.54 341.03 627.40
  Q 341.02 625.31 339.19 624.27
  Q 321.45 614.22 302.50 604.65
  C 291.09 598.89 280.94 591.51 270.02 585.00
  Q 269.59 584.74 269.60 585.25
  Q 269.95 599.42 271.56 613.53
  Q 271.90 616.51 273.98 618.02
  Q 288.26 628.39 305.94 639.52
  C 315.64 645.63 329.23 654.95 341.53 661.74
  Q 341.90 661.95 341.83 661.53
  Z
  M 344.57 625.50
  L 344.91 659.25
  A 0.35 0.33 77.6 0 0 345.39 659.58
  C 354.92 654.70 362.71 647.90 372.10 643.01
  Q 379.44 639.18 386.31 634.51
  A 1.26 0.60 -26.4 0 0 386.90 633.76
  L 389.21 604.26
  Q 389.45 601.22 386.80 602.55
  L 346.14 622.83
  Q 344.55 623.62 344.57 625.50
  Z"
/>
<path fill="#bac9d9" d="
  M 405.87 14.01
  C 414.46 3.87 429.67 3.73 440.90 8.66
  C 451.39 13.28 457.89 25.09 461.84 35.16
  C 466.85 47.94 465.46 59.46 457.27 70.21
  Q 456.65 71.02 456.83 70.02
  Q 458.76 59.33 458.44 48.06
  C 458.36 45.12 456.60 43.32 453.95 41.87
  Q 443.57 36.22 433.03 30.89
  Q 432.64 30.70 432.31 30.23
  C 431.40 28.97 430.03 29.15 428.93 28.55
  Q 417.27 22.21 406.17 15.72
  A 1.14 1.13 35.2 0 1 405.87 14.01
  Z"
/>
<path fill="#74d0ff" d="
  M 444.25 43.04
  L 446.75 44.46
  L 449.97 45.75
  Q 450.38 45.92 449.95 45.99
  Q 423.93 50.44 397.92 54.85
  Q 393.29 55.63 389.47 53.01
  Q 386.01 50.64 370.99 42.14
  C 358.90 35.30 347.49 27.25 335.62 19.67
  Q 334.41 18.89 335.84 18.73
  Q 354.96 16.53 374.75 14.18
  C 384.35 13.04 391.97 12.96 400.28 18.61
  C 402.24 19.93 404.98 21.40 407.19 22.63
  C 419.46 29.50 431.63 36.85 444.25 43.04
  Z"
/>
<path fill="#2ab7ff" d="
  M 331.69 25.19
  Q 331.89 24.15 331.64 22.85
  Q 331.54 22.37 331.94 22.63
  Q 356.68 38.39 381.92 53.33
  Q 384.95 55.12 390.06 59.01
  A 0.97 0.89 22.3 0 1 390.44 59.82
  Q 390.34 61.06 389.75 64.25
  Q 386.72 80.75 385.72 102.24
  A 0.37 0.37 0.0 0 1 385.22 102.56
  Q 381.57 101.17 378.22 99.26
  Q 344.31 79.96 337.08 75.41
  Q 332.45 72.50 328.09 68.93
  Q 326.69 67.80 326.77 66.00
  Q 327.59 45.80 331.69 25.19
  Z"
/>
<path fill="#383b3c" d="
  M 444.25 43.04
  Q 446.15 42.85 446.75 44.46
  L 444.25 43.04
  Z"
/>
<path fill="#105e8a" d="
  M 394.54 59.98
  A 0.75 0.74 -1.1 0 1 395.16 59.34
  C 415.06 55.91 434.68 53.30 454.26 48.73
  A 0.94 0.94 0.0 0 1 455.41 49.70
  C 454.80 60.89 452.18 72.61 449.94 83.59
  C 449.18 87.34 450.09 91.16 445.50 92.63
  C 428.04 98.27 410.40 101.62 392.61 105.78
  Q 389.46 106.52 389.83 103.30
  C 391.47 89.07 392.54 74.46 394.54 59.98
  Z
  M 450.00 52.27
  C 442.65 50.72 441.92 59.07 441.47 63.75
  Q 440.21 76.76 437.24 89.51
  Q 436.76 91.57 438.71 91.42
  Q 442.00 91.16 444.87 89.69
  A 1.38 0.61 -85.5 0 0 445.37 88.76
  C 447.62 77.38 448.93 66.13 451.59 54.79
  Q 452.08 52.71 450.00 52.27
  Z
  M 430.56 56.47
  L 425.70 90.74
  Q 425.38 92.97 427.83 93.12
  C 432.09 93.40 432.89 92.36 433.65 88.23
  Q 436.20 74.27 438.33 60.23
  C 438.55 58.80 439.55 57.09 439.23 55.31
  A 1.02 0.88 79.4 0 0 438.16 54.46
  L 431.23 55.88
  A 0.87 0.66 -4.0 0 0 430.56 56.47
  Z
  M 419.57 58.92
  C 417.01 69.52 416.24 83.18 414.39 95.47
  A 1.34 1.23 -88.3 0 0 415.72 97.01
  Q 418.98 96.63 421.62 94.94
  A 1.26 1.26 0.0 0 0 422.19 94.03
  L 426.68 56.99
  A 0.73 0.69 4.4 0 0 425.98 56.22
  Q 422.70 56.10 420.01 58.04
  A 1.45 0.54 -83.7 0 0 419.57 58.92
  Z
  M 409.07 62.18
  C 406.09 74.25 405.79 83.75 403.76 94.50
  Q 403.30 96.92 405.75 97.22
  C 408.79 97.59 410.50 96.26 411.10 93.21
  C 413.14 82.76 413.63 72.12 416.20 61.82
  Q 417.09 58.26 413.96 59.40
  L 409.40 61.07
  A 1.21 0.07 -76.6 0 0 409.07 62.18
  Z
  M 397.49 64.34
  C 396.86 68.95 395.98 73.38 395.67 78.01
  Q 395.00 87.87 393.27 98.65
  Q 392.90 100.94 395.22 100.89
  C 400.71 100.77 399.82 95.27 400.67 91.83
  C 403.11 82.04 403.73 72.75 405.52 63.24
  Q 406.02 60.57 403.34 61.65
  L 398.02 63.79
  A 0.87 0.55 -13.8 0 0 397.49 64.34
  Z"
/>
<path fill="#033f68" d="
  M 441.47 63.75
  C 441.92 59.07 442.65 50.72 450.00 52.27
  Q 452.08 52.71 451.59 54.79
  C 448.93 66.13 447.62 77.38 445.37 88.76
  A 1.38 0.61 -85.5 0 1 444.87 89.69
  Q 442.00 91.16 438.71 91.42
  Q 436.76 91.57 437.24 89.51
  Q 440.21 76.76 441.47 63.75
  Z
  M 444.74 57.80
  Q 442.53 73.34 439.50 88.75
  A 0.75 0.49 -87.5 0 0 440.05 89.67
  L 443.27 88.67
  A 1.34 0.29 -82.3 0 0 443.69 87.52
  C 445.45 76.70 446.65 65.89 449.09 55.16
  A 0.45 0.45 0.0 0 0 448.68 54.62
  C 446.05 54.49 445.12 55.15 444.74 57.80
  Z"
/>
<path fill="#033f68" d="
  M 430.56 56.47
  A 0.87 0.66 -4.0 0 1 431.23 55.88
  L 438.16 54.46
  A 1.02 0.88 79.4 0 1 439.23 55.31
  C 439.55 57.09 438.55 58.80 438.33 60.23
  Q 436.20 74.27 433.65 88.23
  C 432.89 92.36 432.09 93.40 427.83 93.12
  Q 425.38 92.97 425.70 90.74
  L 430.56 56.47
  Z
  M 432.37 58.94
  Q 430.23 74.64 427.98 90.34
  Q 427.71 92.24 429.77 91.70
  A 2.10 2.10 0.0 0 0 431.30 90.12
  Q 433.12 81.94 434.12 73.54
  C 434.78 67.95 435.88 62.88 436.84 57.51
  A 0.50 0.48 -80.9 0 0 436.44 56.93
  Q 434.33 56.64 432.79 58.08
  A 1.51 1.22 77.1 0 0 432.37 58.94
  Z"
/>
<path fill="#105e8a" d="
  M 444.74 57.80
  C 445.12 55.15 446.05 54.49 448.68 54.62
  A 0.45 0.45 0.0 0 1 449.09 55.16
  C 446.65 65.89 445.45 76.70 443.69 87.52
  A 1.34 0.29 -82.3 0 1 443.27 88.67
  L 440.05 89.67
  A 0.75 0.49 -87.5 0 1 439.50 88.75
  Q 442.53 73.34 444.74 57.80
  Z"
/>
<path fill="#033f68" d="
  M 420.01 58.04
  Q 422.70 56.10 425.98 56.22
  A 0.73 0.69 4.4 0 1 426.68 56.99
  L 422.19 94.03
  A 1.26 1.26 0.0 0 1 421.62 94.94
  Q 418.98 96.63 415.72 97.01
  A 1.34 1.23 -88.3 0 1 414.39 95.47
  C 416.24 83.18 417.01 69.52 419.57 58.92
  A 1.45 0.54 -83.7 0 1 420.01 58.04
  Z
  M 424.38 58.68
  A 0.31 0.31 0.0 0 0 423.97 58.35
  L 421.20 59.37
  A 0.31 0.31 0.0 0 0 421.00 59.62
  L 416.64 94.59
  A 0.31 0.31 0.0 0 0 417.04 94.93
  L 420.28 93.92
  A 0.31 0.31 0.0 0 0 420.49 93.66
  L 424.38 58.68
  Z"
/>
<path fill="#105e8a" d="
  M 432.79 58.08
  Q 434.33 56.64 436.44 56.93
  A 0.50 0.48 -80.9 0 1 436.84 57.51
  C 435.88 62.88 434.78 67.95 434.12 73.54
  Q 433.12 81.94 431.30 90.12
  A 2.10 2.10 0.0 0 1 429.77 91.70
  Q 427.71 92.24 427.98 90.34
  Q 430.23 74.64 432.37 58.94
  A 1.51 1.22 77.1 0 1 432.79 58.08
  Z"
/>
<path fill="#105e8a" d="
  M 424.38 58.68
  L 420.49 93.66
  A 0.31 0.31 0.0 0 1 420.28 93.92
  L 417.04 94.93
  A 0.31 0.31 0.0 0 1 416.64 94.59
  L 421.00 59.62
  A 0.31 0.31 0.0 0 1 421.20 59.37
  L 423.97 58.35
  A 0.31 0.31 0.0 0 1 424.38 58.68
  Z"
/>
<path fill="#033f68" d="
  M 409.40 61.07
  L 413.96 59.40
  Q 417.09 58.26 416.20 61.82
  C 413.63 72.12 413.14 82.76 411.10 93.21
  C 410.50 96.26 408.79 97.59 405.75 97.22
  Q 403.30 96.92 403.76 94.50
  C 405.79 83.75 406.09 74.25 409.07 62.18
  A 1.21 0.07 -76.6 0 1 409.40 61.07
  Z
  M 410.59 63.77
  Q 407.63 79.01 406.12 94.46
  A 0.83 0.66 90.0 0 0 406.86 95.39
  C 409.92 94.89 410.13 87.13 410.55 84.57
  C 411.54 78.48 411.89 70.90 413.33 65.00
  Q 414.72 59.33 411.05 62.84
  A 1.83 1.09 85.5 0 0 410.59 63.77
  Z"
/>
<path fill="#033f68" d="
  M 397.49 64.34
  A 0.87 0.55 -13.8 0 1 398.02 63.79
  L 403.34 61.65
  Q 406.02 60.57 405.52 63.24
  C 403.73 72.75 403.11 82.04 400.67 91.83
  C 399.82 95.27 400.71 100.77 395.22 100.89
  Q 392.90 100.94 393.27 98.65
  Q 395.00 87.87 395.67 78.01
  C 395.98 73.38 396.86 68.95 397.49 64.34
  Z
  M 398.83 65.63
  C 396.89 76.70 396.72 87.55 395.00 98.52
  Q 394.83 99.60 395.68 99.18
  L 397.67 98.16
  A 1.26 0.65 -88.9 0 0 398.15 97.27
  L 403.21 64.49
  A 0.41 0.36 86.7 0 0 402.75 64.02
  L 399.20 65.21
  A 0.55 0.55 0.0 0 0 398.83 65.63
  Z"
/>
<path fill="#105e8a" d="
  M 411.05 62.84
  Q 414.72 59.33 413.33 65.00
  C 411.89 70.90 411.54 78.48 410.55 84.57
  C 410.13 87.13 409.92 94.89 406.86 95.39
  A 0.83 0.66 90.0 0 1 406.12 94.46
  Q 407.63 79.01 410.59 63.77
  A 1.83 1.09 85.5 0 1 411.05 62.84
  Z"
/>
<path fill="#105e8a" d="
  M 398.83 65.63
  A 0.55 0.55 0.0 0 1 399.20 65.21
  L 402.75 64.02
  A 0.41 0.36 86.7 0 1 403.21 64.49
  L 398.15 97.27
  A 1.26 0.65 -88.9 0 1 397.67 98.16
  L 395.68 99.18
  Q 394.83 99.60 395.00 98.52
  C 396.72 87.55 396.89 76.70 398.83 65.63
  Z"
/>
<path fill="#383b3c" d="
  M 359.75 95.96
  L 357.75 94.71
  Q 359.20 94.24 359.75 95.96
  Z"
/>
<path fill="#bac9d9" d="
  M 357.75 94.71
  L 359.75 95.96
  L 361.50 97.04
  L 365.75 99.21
  L 377.61 105.87
  A 0.28 0.27 42.5 0 1 377.64 106.35
  Q 368.80 111.94 364.30 119.32
  C 355.81 133.27 361.58 145.54 370.56 157.41
  C 382.67 173.40 395.72 188.52 408.81 203.70
  Q 413.60 209.25 417.79 215.25
  Q 415.48 223.44 412.82 231.52
  Q 412.57 232.27 411.75 232.29
  Q 402.77 211.19 386.29 195.25
  Q 362.07 170.96 330.28 158.07
  C 326.88 156.69 326.52 154.27 325.72 151.01
  C 319.18 124.44 330.13 101.29 357.75 94.71
  Z"
/>
<path fill="#383b3c" d="
  M 361.50 97.04
  Q 364.56 96.58 365.75 99.21
  L 361.50 97.04
  Z"
/>
<path fill="#161617" d="
  M 385.08 105.92
  A 0.48 0.35 -49.2 0 1 384.39 106.08
  L 383.73 105.02
  Q 383.10 104.01 384.56 104.22
  Q 385.98 104.42 385.08 105.92
  Z"
/>
<path fill="#bac9d9" d="
  M 307.25 159.29
  L 321.50 163.46
  L 325.47 165.07
  L 338.81 171.13
  L 345.55 174.67
  L 365.21 187.25
  L 376.25 197.04
  L 379.50 200.21
  C 392.11 212.36 403.84 229.50 406.80 247.04
  C 409.20 261.28 410.48 270.78 408.73 281.91
  C 403.53 315.10 386.16 340.64 360.45 361.68
  C 349.88 370.33 337.01 379.77 328.65 388.28
  C 317.67 399.45 308.41 413.65 304.20 428.98
  Q 303.65 430.99 303.87 432.72
  Q 303.93 433.21 304.14 432.74
  L 308.17 423.50
  Q 312.79 419.56 317.97 416.80
  C 331.50 409.56 352.11 410.85 366.50 414.79
  Q 350.75 430.80 333.66 445.63
  A 3.01 0.87 -46.6 0 1 331.98 446.62
  Q 325.16 447.41 318.79 450.02
  A 0.64 0.63 61.9 0 1 318.02 449.78
  C 317.64 449.18 314.25 444.42 313.76 444.84
  A 0.43 0.21 62.3 0 0 313.77 445.27
  L 316.24 450.79
  A 0.77 0.58 -30.7 0 1 315.90 451.61
  C 301.39 461.42 299.13 481.89 317.93 489.32
  C 327.39 493.06 335.15 486.59 335.55 477.03
  Q 335.57 476.48 335.96 476.84
  L 337.36 478.14
  Q 341.68 488.85 342.33 492.73
  Q 344.96 508.36 339.88 523.46
  C 304.66 517.41 283.86 493.02 283.58 457.00
  Q 283.57 455.26 283.16 453.56
  Q 282.59 451.21 282.44 453.56
  L 281.77 464.49
  A 0.95 0.04 -86.7 0 1 281.68 465.36
  Q 269.94 483.07 269.96 504.50
  L 269.68 505.52
  A 0.79 0.71 5.1 0 1 269.00 506.03
  C 264.01 506.37 257.13 510.10 256.31 515.79
  C 255.96 518.19 254.98 521.74 255.33 523.46
  C 257.62 534.85 268.74 535.80 277.00 530.21
  C 284.96 543.70 297.94 554.34 313.45 557.14
  C 333.80 560.81 358.11 550.92 370.07 534.22
  C 391.14 504.78 361.88 469.30 331.48 465.97
  A 0.68 0.64 -79.7 0 0 330.77 466.49
  Q 330.50 467.63 329.95 466.52
  A 0.93 0.68 72.9 0 0 329.25 466.00
  L 328.23 465.99
  Q 327.43 465.99 328.43 466.79
  C 340.33 476.36 329.58 496.69 313.71 484.55
  C 308.07 480.23 305.83 474.18 308.41 467.35
  C 317.31 443.74 348.60 452.12 365.25 460.54
  L 372.00 464.21
  C 393.70 476.79 406.86 497.22 406.01 522.75
  C 404.96 554.43 386.05 572.40 357.71 582.68
  A 1.26 1.26 0.0 0 1 356.78 582.65
  C 343.87 576.91 331.27 571.06 318.02 566.16
  C 311.50 563.75 290.23 572.36 280.73 575.63
  A 1.07 1.04 51.1 0 1 279.83 575.52
  Q 267.06 567.61 258.14 555.61
  C 247.48 541.29 239.26 527.51 237.51 510.16
  Q 244.12 509.19 248.99 506.48
  C 254.87 503.23 261.54 496.60 262.73 489.48
  Q 263.12 487.15 263.12 486.72
  C 262.97 475.76 256.67 466.14 245.44 464.57
  Q 243.91 464.36 242.35 463.78
  Q 245.63 457.64 250.04 452.50
  Q 257.96 448.81 249.75 451.96
  C 236.31 457.29 224.82 467.59 222.03 482.19
  C 219.28 496.53 225.44 512.34 228.45 526.25
  C 228.99 528.73 230.09 530.97 230.47 533.40
  C 232.27 544.75 235.28 557.50 232.44 568.79
  C 226.24 593.43 196.83 605.28 173.82 603.14
  Q 163.17 602.15 150.71 598.00
  Q 154.01 594.57 153.10 589.71
  C 150.20 574.09 134.25 557.76 117.26 563.25
  Q 107.67 566.35 109.12 577.02
  Q 96.24 567.92 84.15 558.10
  L 83.25 557.71
  C 74.77 550.89 59.58 541.13 48.50 548.87
  C 42.54 553.03 41.44 559.76 44.70 566.06
  C 48.37 573.16 54.71 576.65 60.29 581.93
  C 69.26 590.40 62.36 602.96 50.77 601.49
  C 37.93 599.87 28.00 589.64 22.37 578.65
  C 12.56 559.52 20.73 537.85 37.74 526.25
  C 65.91 507.05 95.23 535.43 118.75 548.46
  L 126.71 552.25
  C 145.55 561.61 172.64 564.28 190.98 551.94
  Q 201.84 544.64 202.96 531.50
  Q 203.77 529.66 203.72 527.77
  C 203.88 513.83 202.14 500.88 199.03 487.13
  C 196.46 475.73 194.51 465.14 200.15 454.39
  C 205.73 443.74 217.37 434.99 228.97 430.01
  Q 242.13 424.36 254.92 428.95
  Q 255.33 429.09 255.13 428.75
  Q 255.09 428.67 255.01 428.58
  Q 254.95 428.49 254.84 428.44
  C 230.76 417.51 193.23 444.23 190.09 468.66
  C 189.51 473.15 190.51 478.55 190.75 483.52
  A 0.90 0.89 -18.1 0 1 190.35 484.30
  C 169.74 498.02 146.27 503.84 121.75 507.30
  C 94.65 511.12 60.12 503.45 42.10 481.14
  C 34.93 472.26 33.22 461.08 33.44 449.99
  C 33.89 428.42 39.47 409.79 49.84 391.11
  C 54.78 382.19 60.48 374.43 61.74 363.60
  Q 70.04 372.71 77.29 382.75
  C 64.20 404.83 50.89 437.91 73.02 459.73
  C 85.71 472.23 105.84 476.60 123.51 475.82
  C 153.81 474.49 187.18 458.80 201.03 430.26
  C 206.51 418.96 204.77 403.40 199.49 392.52
  C 191.61 376.23 178.46 361.62 167.10 347.39
  C 138.39 311.45 129.70 271.60 147.50 227.96
  C 149.92 229.34 150.36 231.49 151.57 233.17
  Q 158.00 242.03 169.57 239.64
  C 183.46 236.76 195.38 225.72 203.12 214.09
  C 210.96 202.33 215.77 182.52 200.41 174.35
  C 199.49 173.86 198.32 173.84 197.30 173.77
  A 0.56 0.53 1.7 0 1 196.77 173.24
  L 196.75 171.54
  C 229.93 152.99 270.60 150.23 307.25 159.29
  Z
  M 255.05 165.50
  C 241.97 162.99 229.92 171.07 224.16 181.99
  C 221.39 187.24 220.56 192.58 224.80 197.03
  C 234.90 207.63 263.47 192.70 265.89 180.09
  C 267.32 172.62 262.32 166.90 255.05 165.50
  Z
  M 257.04 365.25
  L 257.46 362.50
  Q 258.48 356.32 257.45 353.04
  C 247.29 320.51 201.27 334.33 206.24 366.42
  C 207.52 374.73 211.51 380.55 219.50 383.19
  C 235.12 388.35 252.31 381.81 257.04 365.25
  Z
  M 266.95 387.79
  C 276.14 394.97 290.29 394.34 299.36 388.40
  Q 308.02 382.72 310.75 372.58
  C 315.42 355.16 299.19 338.87 281.59 343.04
  C 271.49 345.43 263.50 351.78 260.68 362.09
  C 258.27 370.92 259.20 381.74 266.95 387.79
  Z"
/>
<path fill="#383b3c" d="
  M 307.25 159.29
  Q 314.86 159.82 321.50 163.46
  L 307.25 159.29
  Z"
/>
<path fill="#9cb4cf" d="
  M 255.05 165.50
  C 262.32 166.90 267.32 172.62 265.89 180.09
  C 263.47 192.70 234.90 207.63 224.80 197.03
  C 220.56 192.58 221.39 187.24 224.16 181.99
  C 229.92 171.07 241.97 162.99 255.05 165.50
  Z"
/>
<path fill="#383b3c" d="
  M 325.47 165.07
  Q 332.99 166.30 338.81 171.13
  L 325.47 165.07
  Z"
/>
<path fill="#9cb4cf" d="
  M 196.75 171.54
  L 196.77 173.24
  A 0.56 0.53 1.7 0 0 197.30 173.77
  C 198.32 173.84 199.49 173.86 200.41 174.35
  C 215.77 182.52 210.96 202.33 203.12 214.09
  C 195.38 225.72 183.46 236.76 169.57 239.64
  Q 158.00 242.03 151.57 233.17
  C 150.36 231.49 149.92 229.34 147.50 227.96
  Q 162.40 191.20 196.75 171.54
  Z"
/>
<path fill="#383b3c" d="
  M 345.55 174.67
  Q 356.56 179.14 365.21 187.25
  L 345.55 174.67
  Z"
/>
<path fill="#161617" d="
  M 386.29 195.25
  Q 402.77 211.19 411.75 232.29
  Q 428.10 279.97 404.58 324.19
  Q 392.05 347.75 373.27 363.51
  Q 351.88 381.47 336.96 392.46
  Q 329.59 397.89 325.79 401.75
  C 325.88 399.59 327.87 398.71 329.30 397.56
  C 330.81 396.34 331.32 394.41 332.90 393.13
  Q 337.16 389.69 343.50 385.49
  Q 343.66 385.39 343.78 385.13
  A 1.62 0.89 -79.6 0 1 344.31 384.48
  Q 351.09 380.55 356.20 374.72
  C 357.58 373.15 359.03 369.78 361.05 368.55
  Q 363.20 367.24 367.00 363.25
  Q 368.34 361.83 369.30 363.52
  A 1.15 0.24 60.5 0 0 370.05 364.38
  L 371.65 363.75
  Q 372.39 363.46 371.34 362.65
  Q 369.83 361.49 370.29 359.49
  A 0.98 0.77 -9.8 0 1 370.82 358.90
  Q 372.59 358.08 374.19 359.00
  A 0.58 0.46 21.5 0 0 375.01 358.75
  L 375.08 358.32
  A 1.34 0.53 -26.9 0 1 375.74 357.57
  C 379.84 354.84 382.29 352.27 384.80 348.05
  Q 386.27 345.59 389.04 344.22
  Q 389.51 343.99 389.78 343.58
  Q 395.03 335.84 400.26 328.12
  C 401.65 326.07 402.38 323.23 404.39 321.08
  A 1.26 1.16 67.8 0 0 404.71 320.22
  Q 404.68 319.07 405.19 318.10
  A 1.45 0.51 -55.0 0 0 405.43 317.25
  Q 404.80 313.26 408.37 311.34
  Q 409.50 310.74 410.03 306.80
  C 410.62 302.44 412.71 298.41 413.37 294.68
  C 414.48 288.29 414.20 281.89 415.14 275.49
  A 1.74 1.12 45.1 0 0 414.94 274.56
  L 413.76 272.25
  A 1.63 1.12 -58.1 0 1 413.71 271.20
  L 414.83 267.32
  A 0.78 0.66 -0.5 0 1 415.40 266.83
  Q 417.70 266.33 416.65 264.54
  C 414.97 261.65 415.06 256.98 415.29 253.72
  A 1.10 1.06 -67.4 0 0 414.96 252.87
  C 414.37 252.32 408.18 248.52 411.43 247.98
  A 1.18 0.20 -47.0 0 0 412.16 247.42
  L 413.42 246.16
  A 1.02 0.47 -42.9 0 0 413.81 245.21
  L 412.92 243.82
  A 1.21 0.82 43.0 0 1 412.73 242.98
  Q 413.40 240.50 411.37 238.85
  A 0.66 0.61 -53.9 0 1 411.27 238.00
  Q 412.65 235.92 410.51 234.75
  Q 410.12 234.54 409.79 234.05
  C 407.84 231.12 405.08 229.51 403.68 225.48
  Q 403.34 224.51 404.01 224.90
  Q 405.76 225.92 405.73 224.10
  A 1.09 0.11 30.7 0 0 404.90 223.49
  C 402.96 222.35 401.99 220.57 400.38 218.23
  Q 399.14 216.43 399.46 213.99
  A 1.21 1.19 19.3 0 0 398.87 212.79
  Q 394.78 210.42 392.69 207.35
  C 392.26 206.71 391.40 204.30 390.61 204.18
  Q 390.17 204.12 388.28 202.73
  Q 385.75 200.87 384.97 197.85
  A 0.93 0.20 -29.6 0 1 385.64 197.25
  Q 386.62 196.68 386.29 195.25
  Z"
/>
<path fill="#383b3c" d="
  M 376.25 197.04
  Q 378.85 197.64 379.50 200.21
  L 376.25 197.04
  Z"
/>
<path fill="#8898a9" d="
  M 417.79 215.25
  C 449.72 256.26 451.12 305.50 423.04 349.34
  C 407.70 373.29 386.82 395.73 366.50 414.79
  C 352.11 410.85 331.50 409.56 317.97 416.80
  Q 312.79 419.56 308.17 423.50
  Q 315.73 411.59 325.79 401.75
  Q 329.59 397.89 336.96 392.46
  Q 351.88 381.47 373.27 363.51
  Q 392.05 347.75 404.58 324.19
  Q 428.10 279.97 411.75 232.29
  Q 412.57 232.27 412.82 231.52
  Q 415.48 223.44 417.79 215.25
  Z"
/>
<path fill="#74d0ff" d="
  M 67.45 256.04
  C 73.03 254.24 81.79 254.09 87.30 256.43
  Q 101.20 262.31 115.52 267.35
  Q 115.99 267.52 115.56 267.77
  Q 112.85 269.35 109.07 270.84
  Q 88.95 278.80 62.74 290.07
  A 0.99 0.95 -40.0 0 1 61.85 290.01
  C 50.16 282.75 37.41 276.89 25.20 270.53
  Q 24.76 270.30 25.24 270.14
  Q 46.27 262.84 67.45 256.04
  Z"
/>
<path fill="#2ab7ff" d="
  M 63.74 294.07
  C 66.37 290.74 67.51 291.51 70.76 290.14
  Q 93.50 280.56 116.19 270.96
  A 0.31 0.30 78.7 0 1 116.61 271.25
  L 116.70 302.00
  A 1.01 0.93 -21.4 0 1 116.34 302.74
  Q 113.05 305.49 112.20 305.96
  Q 88.18 319.39 63.43 331.45
  A 0.35 0.19 84.2 0 1 63.17 331.07
  L 63.29 295.75
  A 2.91 1.51 77.6 0 1 63.74 294.07
  Z"
/>
<path fill="#105e8a" d="
  M 32.61 279.41
  Q 43.61 284.72 54.49 290.26
  Q 57.18 291.63 58.73 292.16
  Q 60.90 292.90 60.79 295.26
  Q 59.98 313.36 60.34 331.50
  Q 60.35 332.01 59.79 331.64
  Q 44.36 321.66 28.24 312.81
  Q 26.24 311.71 25.89 309.45
  C 24.90 303.02 24.74 295.54 24.16 289.95
  Q 23.32 281.86 22.60 273.77
  Q 22.56 273.26 22.99 273.51
  C 26.28 275.41 29.31 277.82 32.61 279.41
  Z
  M 35.02 313.49
  L 38.06 315.46
  Q 39.66 316.49 39.44 314.18
  L 36.94 287.98
  A 1.42 1.04 -80.5 0 0 36.46 287.03
  L 33.42 284.84
  Q 31.88 283.74 32.19 285.76
  Q 34.19 298.80 34.50 312.00
  A 1.93 0.84 -85.7 0 0 35.02 313.49
  Z
  M 42.84 289.59
  L 40.04 288.82
  A 0.85 0.41 -88.4 0 0 39.56 289.75
  L 40.34 316.51
  A 1.66 1.39 -68.3 0 0 40.62 317.36
  Q 41.88 319.04 44.01 319.02
  A 0.66 0.64 -85.6 0 0 44.63 318.47
  C 45.92 310.08 44.16 300.20 43.74 291.61
  A 2.31 1.04 -89.8 0 0 42.84 289.59
  Z
  M 50.07 291.69
  Q 48.51 290.28 46.43 290.61
  A 0.88 0.30 87.3 0 0 46.18 291.47
  Q 46.79 304.63 46.77 317.81
  C 46.77 319.74 48.08 321.58 49.72 322.15
  A 1.33 1.32 -79.8 0 0 51.46 320.93
  Q 51.92 307.18 50.88 293.43
  A 2.80 2.35 -74.9 0 0 50.07 291.69
  Z
  M 56.55 326.02
  A 0.93 0.92 16.5 0 0 57.94 325.27
  Q 58.54 314.87 58.11 304.06
  C 58.02 301.71 58.51 298.59 58.06 295.79
  A 1.24 0.50 86.2 0 0 57.62 294.87
  L 55.39 293.81
  Q 53.35 292.85 53.44 295.59
  Q 53.86 308.82 53.77 320.60
  C 53.74 323.33 54.27 324.71 56.55 326.02
  Z"
/>
<path fill="#bac9d9" d="
  M 26.76 317.27
  L 36.48 330.37
  A 0.63 0.46 52.2 0 1 36.50 331.13
  Q 36.31 331.30 36.00 331.29
  C 18.17 326.76 7.14 322.70 7.11 302.60
  C 7.09 292.70 8.30 285.30 15.47 278.46
  Q 18.49 275.57 18.76 279.75
  Q 19.53 291.85 20.56 306.23
  Q 21.10 313.79 26.76 317.27
  Z"
/>
<path fill="#033f68" d="
  M 35.02 313.49
  A 1.93 0.84 -85.7 0 1 34.50 312.00
  Q 34.19 298.80 32.19 285.76
  Q 31.88 283.74 33.42 284.84
  L 36.46 287.03
  A 1.42 1.04 -80.5 0 1 36.94 287.98
  L 39.44 314.18
  Q 39.66 316.49 38.06 315.46
  L 35.02 313.49
  Z"
/>
<path fill="#033f68" d="
  M 42.84 289.59
  A 2.31 1.04 -89.8 0 1 43.74 291.61
  C 44.16 300.20 45.92 310.08 44.63 318.47
  A 0.66 0.64 -85.6 0 1 44.01 319.02
  Q 41.88 319.04 40.62 317.36
  A 1.66 1.39 -68.3 0 1 40.34 316.51
  L 39.56 289.75
  A 0.85 0.41 -88.4 0 1 40.04 288.82
  L 42.84 289.59
  Z"
/>
<path fill="#0a4e79" d="
  M 50.07 291.69
  A 2.80 2.35 -74.9 0 1 50.88 293.43
  Q 51.92 307.18 51.46 320.93
  A 1.33 1.32 -79.8 0 1 49.72 322.15
  C 48.08 321.58 46.77 319.74 46.77 317.81
  Q 46.79 304.63 46.18 291.47
  A 0.88 0.30 87.3 0 1 46.43 290.61
  Q 48.51 290.28 50.07 291.69
  Z"
/>
<path fill="#0a4e79" d="
  M 56.55 326.02
  C 54.27 324.71 53.74 323.33 53.77 320.60
  Q 53.86 308.82 53.44 295.59
  Q 53.35 292.85 55.39 293.81
  L 57.62 294.87
  A 1.24 0.50 86.2 0 1 58.06 295.79
  C 58.51 298.59 58.02 301.71 58.11 304.06
  Q 58.54 314.87 57.94 325.27
  A 0.93 0.92 16.5 0 1 56.55 326.02
  Z"
/>
<path fill="#8898a9" d="
  M 26.76 317.27
  L 41.00 326.04
  L 44.71 327.75
  L 45.00 328.04
  Q 46.28 329.26 47.96 329.75
  C 53.08 333.17 58.83 338.34 65.54 335.98
  Q 75.49 332.47 84.66 327.90
  A 1.09 1.09 0.0 0 1 86.06 328.28
  C 92.65 338.44 94.98 350.41 89.96 361.69
  Q 86.36 369.77 77.29 382.75
  Q 70.04 372.71 61.74 363.60
  C 63.20 346.75 50.65 336.12 36.00 331.29
  Q 36.31 331.30 36.50 331.13
  A 0.63 0.46 52.2 0 0 36.48 330.37
  L 26.76 317.27
  Z"
/>
<path fill="#383b3c" d="
  M 41.00 326.04
  Q 43.37 325.87 44.71 327.75
  L 41.00 326.04
  Z"
/>
<path fill="#383b3c" d="
  M 45.00 328.04
  Q 47.73 327.47 47.96 329.75
  Q 46.28 329.26 45.00 328.04
  Z"
/>
<ellipse fill="#383b3c" cx="0.00" cy="0.00" transform="translate(153.38,334.61) rotate(42.7)" rx="1.12" ry="0.63"/>
<path fill="#000000" d="
  M 257.46 362.50
  Q 256.63 363.74 257.04 365.25
  C 252.31 381.81 235.12 388.35 219.50 383.19
  C 211.51 380.55 207.52 374.73 206.24 366.42
  C 201.27 334.33 247.29 320.51 257.45 353.04
  Q 258.48 356.32 257.46 362.50
  Z
  M 229.81 337.81
  C 233.18 336.05 229.56 336.36 228.97 336.49
  Q 209.39 340.66 208.47 358.76
  C 207.92 369.59 212.16 378.85 223.48 380.97
  Q 239.21 383.91 247.91 373.70
  C 257.17 362.85 256.00 348.59 244.09 339.95
  Q 242.31 338.66 243.31 340.57
  A 1.51 1.33 39.6 0 1 243.46 341.50
  C 241.94 349.66 231.15 347.89 228.69 341.03
  Q 227.90 338.81 229.81 337.81
  Z"
/>
<path fill="#ffffff" d="
  M 229.81 337.81
  Q 227.90 338.81 228.69 341.03
  C 231.15 347.89 241.94 349.66 243.46 341.50
  A 1.51 1.33 39.6 0 0 243.31 340.57
  Q 242.31 338.66 244.09 339.95
  C 256.00 348.59 257.17 362.85 247.91 373.70
  Q 239.21 383.91 223.48 380.97
  C 212.16 378.85 207.92 369.59 208.47 358.76
  Q 209.39 340.66 228.97 336.49
  C 229.56 336.36 233.18 336.05 229.81 337.81
  Z"
/>
<path fill="#000000" d="
  M 266.95 387.79
  C 259.20 381.74 258.27 370.92 260.68 362.09
  C 263.50 351.78 271.49 345.43 281.59 343.04
  C 299.19 338.87 315.42 355.16 310.75 372.58
  Q 308.02 382.72 299.36 388.40
  C 290.29 394.34 276.14 394.97 266.95 387.79
  Z
  M 296.95 349.48
  C 294.83 360.79 276.84 351.69 283.94 345.38
  Q 285.49 344.01 283.45 344.36
  Q 265.61 347.47 262.58 362.69
  Q 260.57 372.77 264.74 380.34
  C 271.71 392.97 292.74 391.84 301.68 381.67
  C 308.16 374.31 309.82 362.64 304.20 354.21
  C 303.65 353.39 295.33 344.49 296.84 348.53
  A 1.99 1.37 49.0 0 1 296.95 349.48
  Z"
/>
<path fill="#ffffff" d="
  M 283.94 345.38
  C 276.84 351.69 294.83 360.79 296.95 349.48
  A 1.99 1.37 49.0 0 0 296.84 348.53
  C 295.33 344.49 303.65 353.39 304.20 354.21
  C 309.82 362.64 308.16 374.31 301.68 381.67
  C 292.74 391.84 271.71 392.97 264.74 380.34
  Q 260.57 372.77 262.58 362.69
  Q 265.61 347.47 283.45 344.36
  Q 285.49 344.01 283.94 345.38
  Z"
/>
<path fill="#383b3c" d="
  M 257.46 362.50
  L 257.04 365.25
  Q 256.63 363.74 257.46 362.50
  Z"
/>
<path fill="#bac9d9" d="
  M 463.35 395.90
  C 457.10 392.59 444.19 389.15 438.56 392.54
  C 429.65 397.92 418.52 399.04 408.77 401.55
  A 1.05 1.05 0.0 0 1 407.50 400.26
  C 411.86 384.58 427.17 374.53 442.51 371.76
  C 465.96 367.53 490.34 377.22 503.54 396.71
  C 514.67 413.15 518.01 433.86 516.35 453.28
  Q 512.98 492.88 477.29 511.22
  Q 446.17 527.22 411.45 531.54
  A 0.37 0.31 -0.1 0 1 411.03 531.18
  Q 413.70 516.90 410.27 502.81
  A 0.49 0.40 82.8 0 1 410.65 502.21
  Q 423.18 502.58 435.49 500.72
  C 465.74 496.16 488.61 474.76 489.97 443.24
  C 490.81 423.69 480.83 405.15 463.35 395.90
  Z"
/>
<path fill="#74d0ff" d="
  M 397.93 407.39
  Q 397.00 406.76 398.12 406.80
  Q 399.83 406.86 402.03 406.38
  Q 428.48 400.65 437.02 398.08
  Q 444.52 395.82 449.64 394.90
  C 458.46 393.32 472.54 406.76 477.15 413.41
  A 1.07 0.39 53.6 0 1 477.45 414.44
  Q 476.96 414.93 476.25 414.73
  A 1.55 0.39 -23.4 0 0 475.22 414.90
  L 445.45 425.35
  A 1.69 1.43 38.2 0 1 444.51 425.38
  C 442.39 424.84 439.93 424.48 437.99 423.54
  Q 425.92 417.70 413.00 414.12
  C 406.85 412.41 402.74 410.63 397.93 407.39
  Z"
/>
<path fill="#74d0ff" d="
  M 518.79 398.43
  L 513.80 400.35
  A 0.38 0.38 0.0 0 1 513.34 400.19
  L 510.54 395.64
  A 0.38 0.38 0.0 0 1 510.98 395.08
  L 518.77 397.71
  A 0.38 0.38 0.0 0 1 518.79 398.43
  Z"
/>
<path fill="#2ab7ff" d="
  M 520.80 414.56
  C 520.69 416.63 519.82 414.77 519.72 414.35
  Q 518.20 408.48 515.03 403.23
  A 0.55 0.51 62.6 0 1 515.24 402.46
  L 520.79 400.09
  A 0.43 0.32 81.8 0 1 521.23 400.54
  Q 521.18 407.58 520.80 414.56
  Z"
/>
<path fill="#105e8a" d="
  M 400.38 446.73
  A 2.70 2.70 0.0 0 1 399.09 444.54
  Q 398.57 432.84 396.95 420.50
  Q 396.48 416.93 396.81 411.26
  A 0.30 0.29 18.3 0 1 397.27 411.04
  Q 402.21 414.18 407.72 416.22
  Q 425.92 422.96 444.49 428.61
  A 0.68 0.61 10.4 0 1 444.98 429.25
  Q 444.00 448.00 445.11 466.74
  A 0.40 0.30 13.5 0 1 444.56 466.98
  C 429.70 460.51 414.31 455.18 400.38 446.73
  Z
  M 402.01 444.47
  L 406.08 446.67
  A 1.15 1.12 -73.4 0 0 407.73 445.75
  C 408.57 436.65 406.76 428.10 405.43 419.16
  A 1.13 0.78 -87.3 0 0 404.92 418.35
  L 400.99 416.51
  A 1.00 0.93 -79.2 0 0 399.66 417.49
  C 399.92 426.30 401.43 434.80 401.51 443.61
  A 0.99 0.95 -76.4 0 0 402.01 444.47
  Z
  M 410.23 446.67
  C 410.30 449.06 414.22 450.79 416.10 450.27
  A 0.68 0.64 81.2 0 0 416.56 449.60
  Q 416.16 437.44 415.08 425.32
  C 414.74 421.45 411.89 421.84 409.58 420.10
  Q 408.28 419.12 408.45 420.74
  Q 409.84 433.68 410.23 446.67
  Z
  M 419.57 423.76
  C 418.18 421.54 417.97 424.41 418.00 425.12
  Q 418.51 438.27 419.22 451.47
  A 1.50 0.43 -89.0 0 0 419.50 452.52
  Q 421.76 454.75 425.03 454.76
  A 1.16 0.95 85.6 0 0 425.94 453.45
  C 424.78 444.40 425.01 434.99 423.23 426.12
  A 1.24 0.53 83.5 0 0 422.72 425.22
  L 420.18 424.32
  A 1.38 0.79 72.4 0 1 419.57 423.76
  Z
  M 428.44 456.09
  L 432.48 457.87
  Q 434.83 458.91 434.47 455.84
  Q 433.03 443.42 432.76 430.97
  Q 432.65 425.94 427.58 426.93
  A 1.51 1.26 -7.3 0 0 426.36 428.25
  L 427.28 454.00
  A 2.52 1.85 -82.7 0 0 428.44 456.09
  Z
  M 436.96 459.38
  C 442.26 464.11 441.87 459.26 441.53 456.11
  Q 440.24 444.10 440.53 432.00
  A 1.27 0.36 -86.5 0 0 440.28 430.86
  L 436.35 429.03
  A 0.67 0.46 -82.4 0 0 435.70 429.75
  L 436.17 458.00
  A 2.21 1.32 29.4 0 0 436.96 459.38
  Z"
/>
<path fill="#033f68" d="
  M 402.01 444.47
  A 0.99 0.95 -76.4 0 1 401.51 443.61
  C 401.43 434.80 399.92 426.30 399.66 417.49
  A 1.00 0.93 -79.2 0 1 400.99 416.51
  L 404.92 418.35
  A 1.13 0.78 -87.3 0 1 405.43 419.16
  C 406.76 428.10 408.57 436.65 407.73 445.75
  A 1.15 1.12 -73.4 0 1 406.08 446.67
  L 402.01 444.47
  Z
  M 403.94 443.56
  Q 404.67 444.37 405.75 444.44
  A 0.51 0.45 -87.9 0 0 406.24 443.93
  Q 406.19 432.28 404.07 420.85
  C 403.79 419.35 402.86 418.59 401.39 418.67
  A 0.52 0.50 84.3 0 0 400.92 419.26
  Q 402.57 430.82 403.09 442.50
  A 1.20 0.82 -80.9 0 0 403.50 443.37
  Q 403.71 443.51 403.94 443.56
  Z"
/>
<path fill="#2ab7ff" d="
  M 447.44 433.19
  Q 447.53 430.84 447.51 428.52
  A 0.72 0.68 -8.5 0 1 448.03 427.86
  Q 463.57 423.46 478.43 417.18
  A 0.64 0.58 64.9 0 1 479.20 417.50
  Q 488.25 435.38 481.80 454.47
  A 1.02 0.94 -86.2 0 1 481.10 455.13
  Q 477.10 456.07 470.96 458.49
  Q 459.44 463.03 448.29 467.63
  A 0.65 0.65 0.0 0 1 447.39 467.05
  Q 446.80 450.00 447.44 433.19
  Z"
/>
<ellipse fill="#161617" cx="0.00" cy="0.00" transform="translate(520.36,417.99) rotate(100.3)" rx="1.05" ry="0.34"/>
<path fill="#105e8a" d="
  M 403.94 443.56
  Q 403.71 443.51 403.50 443.37
  A 1.20 0.82 -80.9 0 1 403.09 442.50
  Q 402.57 430.82 400.92 419.26
  A 0.52 0.50 84.3 0 1 401.39 418.67
  C 402.86 418.59 403.79 419.35 404.07 420.85
  Q 406.19 432.28 406.24 443.93
  A 0.51 0.45 -87.9 0 1 405.75 444.44
  Q 404.67 444.37 403.94 443.56
  Z"
/>
<path fill="#033f68" d="
  M 416.10 450.27
  C 414.22 450.79 410.30 449.06 410.23 446.67
  Q 409.84 433.68 408.45 420.74
  Q 408.28 419.12 409.58 420.10
  C 411.89 421.84 414.74 421.45 415.08 425.32
  Q 416.16 437.44 416.56 449.60
  A 0.68 0.64 81.2 0 1 416.10 450.27
  Z
  M 414.33 448.44
  A 0.38 0.37 -80.3 0 0 414.85 448.07
  Q 414.25 436.85 413.51 425.50
  Q 413.35 423.06 410.94 422.63
  A 0.38 0.37 -87.9 0 0 410.50 423.05
  Q 411.82 434.43 412.11 445.83
  C 412.15 447.57 412.95 447.85 414.33 448.44
  Z"
/>
<path fill="#105e8a" d="
  M 414.33 448.44
  C 412.95 447.85 412.15 447.57 412.11 445.83
  Q 411.82 434.43 410.50 423.05
  A 0.38 0.37 -87.9 0 1 410.94 422.63
  Q 413.35 423.06 413.51 425.50
  Q 414.25 436.85 414.85 448.07
  A 0.38 0.37 -80.3 0 1 414.33 448.44
  Z"
/>
<path fill="#033f68" d="
  M 420.18 424.32
  L 422.72 425.22
  A 1.24 0.53 83.5 0 1 423.23 426.12
  C 425.01 434.99 424.78 444.40 425.94 453.45
  A 1.16 0.95 85.6 0 1 425.03 454.76
  Q 421.76 454.75 419.50 452.52
  A 1.50 0.43 -89.0 0 1 419.22 451.47
  Q 418.51 438.27 418.00 425.12
  C 417.97 424.41 418.18 421.54 419.57 423.76
  A 1.38 0.79 72.4 0 0 420.18 424.32
  Z
  M 421.28 452.00
  L 423.49 453.02
  A 0.49 0.30 -86.0 0 0 423.89 452.46
  Q 422.99 440.50 422.11 428.57
  C 421.96 426.51 419.55 424.18 419.85 428.47
  Q 420.64 439.98 420.90 451.02
  A 1.17 0.53 -87.0 0 0 421.28 452.00
  Z"
/>
<path fill="#105e8a" d="
  M 421.28 452.00
  A 1.17 0.53 -87.0 0 1 420.90 451.02
  Q 420.64 439.98 419.85 428.47
  C 419.55 424.18 421.96 426.51 422.11 428.57
  Q 422.99 440.50 423.89 452.46
  A 0.49 0.30 -86.0 0 1 423.49 453.02
  L 421.28 452.00
  Z"
/>
<path fill="#033f68" d="
  M 428.44 456.09
  A 2.52 1.85 -82.7 0 1 427.28 454.00
  L 426.36 428.25
  A 1.51 1.26 -7.3 0 1 427.58 426.93
  Q 432.65 425.94 432.76 430.97
  Q 433.03 443.42 434.47 455.84
  Q 434.83 458.91 432.48 457.87
  L 428.44 456.09
  Z
  M 432.19 455.90
  A 0.41 0.38 -82.1 0 0 432.72 455.47
  Q 431.43 443.38 431.03 431.03
  C 430.97 429.24 430.25 428.37 428.53 428.11
  A 0.38 0.38 0.0 0 0 428.09 428.50
  L 429.13 453.75
  A 1.24 0.51 -88.8 0 0 429.53 454.79
  L 432.19 455.90
  Z"
/>
<path fill="#105e8a" d="
  M 432.19 455.90
  L 429.53 454.79
  A 1.24 0.51 -88.8 0 1 429.13 453.75
  L 428.09 428.50
  A 0.38 0.38 0.0 0 1 428.53 428.11
  C 430.25 428.37 430.97 429.24 431.03 431.03
  Q 431.43 443.38 432.72 455.47
  A 0.41 0.38 -82.1 0 1 432.19 455.90
  Z"
/>
<path fill="#033f68" d="
  M 436.96 459.38
  A 2.21 1.32 29.4 0 1 436.17 458.00
  L 435.70 429.75
  A 0.67 0.46 -82.4 0 1 436.35 429.03
  L 440.28 430.86
  A 1.27 0.36 -86.5 0 1 440.53 432.00
  Q 440.24 444.10 441.53 456.11
  C 441.87 459.26 442.26 464.11 436.96 459.38
  Z
  M 438.7793 431.6488
  A 0.27 0.27 0.0 0 0 438.4995 431.3888
  L 437.3803 431.4299
  A 0.27 0.27 0.0 0 0 437.1204 431.7096
  L 438.1207 458.9912
  A 0.27 0.27 0.0 0 0 438.4005 459.2512
  L 439.5197 459.2101
  A 0.27 0.27 0.0 0 0 439.7796 458.9304
  L 438.7793 431.6488
  Z"
/>
<rect fill="#105e8a" x="-0.83" y="-13.92" transform="translate(438.45,445.32) rotate(-2.1)" width="1.66" height="27.84" rx="0.27"/>
<path fill="#383b3c" d="
  M 524.46 434.75
  L 524.46 437.25
  Q 518.10 436.44 524.46 434.75
  Z"
/>
<path fill="#383b3c" d="
  M 250.04 452.50
  L 249.75 451.96
  Q 257.96 448.81 250.04 452.50
  Z"
/>
<path fill="#bac9d9" d="
  M 244.04 457.25
  L 243.71 456.75
  Q 244.12 455.57 245.21 455.19
  Q 245.75 454.99 245.55 455.54
  Q 245.16 456.65 244.04 457.25
  Z"
/>
<path fill="#383b3c" d="
  M 365.25 460.54
  Q 369.12 461.43 372.00 464.21
  L 365.25 460.54
  Z"
/>
<path fill="#9cb4cf" d="
  M 242.35 463.78
  Q 243.91 464.36 245.44 464.57
  C 256.67 466.14 262.97 475.76 263.12 486.72
  Q 263.12 487.15 262.73 489.48
  C 261.54 496.60 254.87 503.23 248.99 506.48
  Q 244.12 509.19 237.51 510.16
  Q 233.63 486.21 242.35 463.78
  Z"
/>
<path fill="#8898a9" d="
  M 337.36 478.14
  Q 349.44 488.36 364.88 491.74
  A 1.20 1.17 -8.9 0 1 365.64 492.28
  C 371.57 502.19 371.23 515.31 365.61 525.20
  A 0.91 0.87 12.8 0 1 364.86 525.65
  Q 352.31 526.20 339.88 523.46
  Q 344.96 508.36 342.33 492.73
  Q 341.68 488.85 337.36 478.14
  Z"
/>
<path fill="#383b3c" d="
  M 361.00 485.21
  Q 362.16 485.28 362.38 486.19
  A 0.36 0.35 0.7 0 1 361.94 486.61
  Q 361.10 486.39 360.71 485.50
  L 361.00 485.21
  Z"
/>
<path fill="#383b3c" d="
  M 273.96 488.75
  L 273.71 491.75
  Q 272.43 490.14 273.96 488.75
  Z"
/>
<path fill="#383b3c" d="
  M 228.21 499.50
  Q 227.73 503.37 227.29 499.75
  L 228.21 499.50
  Z"
/>
<path fill="#9cb4cf" d="
  M 269.96 504.50
  Q 270.24 518.25 277.00 530.21
  C 268.74 535.80 257.62 534.85 255.33 523.46
  C 254.98 521.74 255.96 518.19 256.31 515.79
  C 257.13 510.10 264.01 506.37 269.00 506.03
  A 0.79 0.71 5.1 0 0 269.68 505.52
  L 269.96 504.50
  Z"
/>
<path fill="#383b3c" d="
  M 203.72 527.77
  Q 203.77 529.66 202.96 531.50
  Q 202.16 529.62 203.72 527.77
  Z"
/>
<path fill="#383b3c" d="
  M 357.54 535.00
  L 357.25 534.46
  Q 357.88 533.23 358.64 534.04
  A 0.60 0.56 45.8 0 1 358.66 534.84
  Q 358.20 535.31 357.54 535.00
  Z"
/>
<ellipse fill="#383b3c" cx="0.00" cy="0.00" transform="translate(245.71,539.02) rotate(42.5)" rx="0.96" ry="0.53"/>
<path fill="#383b3c" d="
  M 243.54 549.25
  L 242.25 548.79
  Q 240.99 548.05 241.92 547.14
  A 0.52 0.52 0.0 0 1 242.67 547.16
  Q 243.47 548.04 243.54 549.25
  Z"
/>
<path fill="#383b3c" d="
  M 126.71 552.25
  L 118.75 548.46
  Q 123.19 549.36 126.71 552.25
  Z"
/>
<path fill="#9cb4cf" d="
  M 150.71 598.00
  Q 127.90 591.23 109.12 577.02
  Q 107.67 566.35 117.26 563.25
  C 134.25 557.76 150.20 574.09 153.10 589.71
  Q 154.01 594.57 150.71 598.00
  Z"
/>
<path fill="#74d0ff" d="
  M 353.25 587.04
  Q 356.34 589.15 360.10 590.12
  Q 363.90 592.31 368.29 593.50
  L 369.75 594.71
  L 370.95 595.18
  Q 373.14 597.25 376.14 597.57
  L 380.25 599.54
  L 382.17 600.77
  Q 362.09 609.10 343.73 620.75
  A 2.14 2.13 45.1 0 1 341.43 620.74
  C 319.64 606.71 295.18 597.78 273.32 583.64
  Q 270.91 582.07 273.69 581.17
  L 314.76 567.79
  A 1.29 0.98 -33.5 0 1 315.70 567.85
  C 328.23 575.14 340.42 582.22 353.25 587.04
  Z"
/>
<path fill="#2ab7ff" d="
  M 341.03 627.40
  C 341.10 638.54 339.90 650.64 341.83 661.53
  Q 341.90 661.95 341.53 661.74
  C 329.23 654.95 315.64 645.63 305.94 639.52
  Q 288.26 628.39 273.98 618.02
  Q 271.90 616.51 271.56 613.53
  Q 269.95 599.42 269.60 585.25
  Q 269.59 584.74 270.02 585.00
  C 280.94 591.51 291.09 598.89 302.50 604.65
  Q 321.45 614.22 339.19 624.27
  Q 341.02 625.31 341.03 627.40
  Z"
/>
<path fill="#383b3c" d="
  M 360.10 590.12
  Q 356.34 589.15 353.25 587.04
  L 354.29 586.70
  A 1.50 0.81 -30.9 0 1 355.20 586.66
  Q 358.11 587.80 360.10 590.12
  Z"
/>
<path fill="#383b3c" d="
  M 369.75 594.71
  L 368.29 593.50
  Q 369.88 592.92 369.75 594.71
  Z"
/>
<path fill="#383b3c" d="
  M 376.14 597.57
  Q 373.14 597.25 370.95 595.18
  Q 374.43 594.67 376.14 597.57
  Z"
/>
<path fill="#383b3c" d="
  M 382.17 600.77
  L 380.25 599.54
  Q 381.20 599.82 382.05 599.48
  A 0.62 0.34 -18.7 0 1 382.81 599.61
  Q 382.88 600.02 382.17 600.77
  Z"
/>
<path fill="#105e8a" d="
  M 344.57 625.50
  Q 344.55 623.62 346.14 622.83
  L 386.80 602.55
  Q 389.45 601.22 389.21 604.26
  L 386.90 633.76
  A 1.26 0.60 -26.4 0 1 386.31 634.51
  Q 379.44 639.18 372.10 643.01
  C 362.71 647.90 354.92 654.70 345.39 659.58
  A 0.35 0.33 77.6 0 1 344.91 659.25
  L 344.57 625.50
  Z
  M 380.47 610.19
  Q 379.83 621.81 380.39 633.24
  A 1.17 1.17 0.0 0 0 382.06 634.24
  C 384.96 632.84 384.68 630.79 384.75 627.36
  Q 384.97 617.21 385.49 607.45
  A 0.77 0.77 0.0 0 0 384.61 606.65
  Q 380.63 607.23 380.47 610.19
  Z
  M 372.67 613.18
  Q 372.43 620.30 372.70 627.41
  C 372.82 630.41 371.90 634.93 373.21 638.94
  A 0.76 0.35 72.1 0 0 373.76 639.54
  Q 376.38 638.90 378.19 636.95
  A 1.25 0.36 85.0 0 0 378.37 636.03
  C 378.28 627.49 377.33 618.98 377.57 610.64
  Q 377.61 609.21 376.63 609.79
  L 372.85 612.03
  A 1.26 0.16 -88.4 0 0 372.67 613.18
  Z
  M 364.95 641.02
  A 1.21 1.21 0.0 0 0 366.86 642.00
  L 370.41 639.52
  A 1.21 1.21 0.0 0 0 370.92 638.50
  L 370.36 615.34
  A 1.21 1.21 0.0 0 0 368.64 614.27
  L 365.36 615.81
  A 1.21 1.21 0.0 0 0 364.67 616.92
  L 364.95 641.02
  Z
  M 358.67 647.06
  C 361.83 647.11 363.63 645.43 363.42 642.10
  Q 362.73 631.37 363.08 619.95
  Q 363.17 617.23 360.75 618.19
  L 358.00 619.29
  A 2.39 1.99 -12.8 0 0 356.49 621.26
  Q 356.53 633.91 357.96 646.50
  A 0.74 0.63 -2.1 0 0 358.67 647.06
  Z"
/>
<path fill="#161617" d="
  M 159.54 608.69
  Q 155.00 608.62 150.99 606.56
  Q 155.55 606.48 159.54 608.69
  Z"
/>
<path fill="#033f68" d="
  M 380.47 610.19
  Q 380.63 607.23 384.61 606.65
  A 0.77 0.77 0.0 0 1 385.49 607.45
  Q 384.97 617.21 384.75 627.36
  C 384.68 630.79 384.96 632.84 382.06 634.24
  A 1.17 1.17 0.0 0 1 380.39 633.24
  Q 379.83 621.81 380.47 610.19
  Z
  M 382.44 609.10
  C 381.55 610.17 381.83 629.04 382.05 631.78
  A 0.24 0.20 86.9 0 0 382.25 632.00
  L 382.50 632.00
  A 0.41 0.20 -85.0 0 0 382.72 631.63
  C 383.25 626.76 382.72 621.52 383.13 617.14
  Q 383.49 613.22 383.91 609.27
  A 0.56 0.49 -84.0 0 0 383.48 608.66
  Q 382.86 608.60 382.44 609.10
  Z"
/>
<path fill="#105e8a" d="
  M 382.05 631.78
  C 381.83 629.04 381.55 610.17 382.44 609.10
  Q 382.86 608.60 383.48 608.66
  A 0.56 0.49 -84.0 0 1 383.91 609.27
  Q 383.49 613.22 383.13 617.14
  C 382.72 621.52 383.25 626.76 382.72 631.63
  A 0.41 0.20 -85.0 0 1 382.50 632.00
  L 382.25 632.00
  A 0.24 0.20 86.9 0 1 382.05 631.78
  Z"
/>
<path fill="#383b3c" d="
  M 165.25 610.29
  L 164.25 610.29
  C 162.31 609.16 165.92 608.59 165.25 610.29
  Z"
/>
<path fill="#033f68" d="
  M 372.85 612.03
  L 376.63 609.79
  Q 377.61 609.21 377.57 610.64
  C 377.33 618.98 378.28 627.49 378.37 636.03
  A 1.25 0.36 85.0 0 1 378.19 636.95
  Q 376.38 638.90 373.76 639.54
  A 0.76 0.35 72.1 0 1 373.21 638.94
  C 371.90 634.93 372.82 630.41 372.70 627.41
  Q 372.43 620.30 372.67 613.18
  A 1.26 0.16 -88.4 0 1 372.85 612.03
  Z
  M 375.9849 612.6017
  A 0.26 0.26 0.0 0 0 375.7195 612.3472
  L 374.2398 612.3782
  A 0.26 0.26 0.0 0 0 373.9854 612.6436
  L 374.4951 636.9783
  A 0.26 0.26 0.0 0 0 374.7605 637.2328
  L 376.2402 637.2018
  A 0.26 0.26 0.0 0 0 376.4946 636.9364
  L 375.9849 612.6017
  Z"
/>
<rect fill="#105e8a" x="-1.00" y="-12.43" transform="translate(375.24,624.79) rotate(-1.2)" width="2.00" height="24.86" rx="0.26"/>
<path fill="#033f68" d="
  M 364.95 641.02
  L 364.67 616.92
  A 1.21 1.21 0.0 0 1 365.36 615.81
  L 368.64 614.27
  A 1.21 1.21 0.0 0 1 370.36 615.34
  L 370.92 638.50
  A 1.21 1.21 0.0 0 1 370.41 639.52
  L 366.86 642.00
  A 1.21 1.21 0.0 0 1 364.95 641.02
  Z
  M 366.44 622.69
  Q 366.47 631.05 366.46 639.45
  A 0.42 0.40 83.6 0 0 366.95 639.87
  C 368.55 639.46 369.19 638.35 369.10 636.65
  Q 368.52 626.68 368.87 616.68
  Q 368.91 615.78 368.33 616.09
  L 366.40 617.14
  A 1.17 0.35 81.4 0 0 366.25 618.21
  Q 366.43 619.59 366.44 622.69
  Z"
/>
<path fill="#105e8a" d="
  M 366.44 622.69
  Q 366.43 619.59 366.25 618.21
  A 1.17 0.35 81.4 0 1 366.40 617.14
  L 368.33 616.09
  Q 368.91 615.78 368.87 616.68
  Q 368.52 626.68 369.10 636.65
  C 369.19 638.35 368.55 639.46 366.95 639.87
  A 0.42 0.40 83.6 0 1 366.46 639.45
  Q 366.47 631.05 366.44 622.69
  Z"
/>
<path fill="#033f68" d="
  M 358.67 647.06
  A 0.74 0.63 -2.1 0 1 357.96 646.50
  Q 356.53 633.91 356.49 621.26
  A 2.39 1.99 -12.8 0 1 358.00 619.29
  L 360.75 618.19
  Q 363.17 617.23 363.08 619.95
  Q 362.73 631.37 363.42 642.10
  C 363.63 645.43 361.83 647.11 358.67 647.06
  Z
  M 361.55 643.10
  Q 361.45 631.84 361.17 620.54
  A 0.55 0.31 82.0 0 0 360.72 619.95
  L 358.93 620.92
  A 1.04 0.75 80.6 0 0 358.52 621.75
  Q 358.34 633.03 359.57 644.24
  A 0.71 0.59 89.9 0 0 360.08 644.85
  C 361.13 644.99 361.56 644.09 361.55 643.10
  Z"
/>
<path fill="#105e8a" d="
  M 361.55 643.10
  C 361.56 644.09 361.13 644.99 360.08 644.85
  A 0.71 0.59 89.9 0 1 359.57 644.24
  Q 358.34 633.03 358.52 621.75
  A 1.04 0.75 80.6 0 1 358.93 620.92
  L 360.72 619.95
  A 0.55 0.31 82.0 0 1 361.17 620.54
  Q 361.45 631.84 361.55 643.10
  Z"
/>
</svg>
