<?xml version="1.0" encoding="UTF-8" standalone="no"?>
<!DOCTYPE svg PUBLIC "-//W3C//DTD SVG 1.1//EN" "http://www.w3.org/Graphics/SVG/1.1/DTD/svg11.dtd">
<svg xmlns="http://www.w3.org/2000/svg" version="1.1" viewBox="0 0 800 800">
<path stroke="#826834" stroke-width="2.00" fill="none" stroke-linecap="butt" vector-effect="non-scaling-stroke" d="
  M 541.27 245.75
  L 468.42 699.43
  A 0.50 0.36 -84.1 0 0 468.75 700.00
  L 556.25 700.00
  A 0.63 0.56 -80.1 0 0 556.80 699.56
  L 716.50 200.50
  A 0.72 0.57 -66.5 0 0 716.29 199.73
  L 555.94 100.55
  A 1.04 0.01 31.8 0 0 555.06 100.01
  L 467.25 100.00
  A 0.44 0.30 69.7 0 0 467.10 100.63
  C 473.32 111.55 539.43 226.74 539.16 227.23
  A 0.31 0.25 34.8 0 1 538.73 227.26
  L 380.43 100.32
  A 1.53 1.37 -22.9 0 0 379.50 100.00
  L 292.50 100.00
  A 0.51 0.50 -13.2 0 0 292.04 100.73
  L 370.97 255.29
  Q 371.64 256.60 370.61 255.64
  L 205.40 100.35
  A 1.33 1.32 -23.5 0 0 204.50 100.00
  L 117.06 100.00
  A 0.25 0.22 -9.9 0 0 116.81 100.31
  L 204.78 299.49
  A 1.73 1.41 44.4 0 1 204.89 300.48
  L 116.77 699.51
  A 0.41 0.32 -82.2 0 0 117.06 700.00
  L 204.50 700.00
  A 0.81 0.72 -78.3 0 0 205.20 699.48
  L 372.39 274.06
  Q 372.64 273.44 372.73 274.04
  Q 372.79 274.42 372.69 274.94
  Q 332.32 486.81 291.79 699.30
  A 0.59 0.49 -83.8 0 0 292.25 700.00
  L 379.50 700.00
  A 0.77 0.69 -79.3 0 0 380.17 699.49
  Q 460.50 472.65 540.79 245.81
  Q 540.84 245.67 540.96 245.61
  Q 541.32 245.43 541.27 245.75"
/>
<path fill="#ffd02f" d="
  M 169.31 0.00
  L 630.31 0.00
  C 723.08 2.69 797.32 76.97 800.00 169.81
  L 800.00 630.06
  C 796.44 724.38 723.75 796.71 629.44 800.00
  L 170.19 800.00
  C 77.19 797.49 2.88 723.33 0.00 630.44
  L 0.00 169.19
  C 3.28 76.40 76.54 3.34 169.31 0.00
  Z
  M 541.27 245.75
  L 468.42 699.43
  A 0.50 0.36 -84.1 0 0 468.75 700.00
  L 556.25 700.00
  A 0.63 0.56 -80.1 0 0 556.80 699.56
  L 716.50 200.50
  A 0.72 0.57 -66.5 0 0 716.29 199.73
  L 555.94 100.55
  A 1.04 0.01 31.8 0 0 555.06 100.01
  L 467.25 100.00
  A 0.44 0.30 69.7 0 0 467.10 100.63
  C 473.32 111.55 539.43 226.74 539.16 227.23
  A 0.31 0.25 34.8 0 1 538.73 227.26
  L 380.43 100.32
  A 1.53 1.37 -22.9 0 0 379.50 100.00
  L 292.50 100.00
  A 0.51 0.50 -13.2 0 0 292.04 100.73
  L 370.97 255.29
  Q 371.64 256.60 370.61 255.64
  L 205.40 100.35
  A 1.33 1.32 -23.5 0 0 204.50 100.00
  L 117.06 100.00
  A 0.25 0.22 -9.9 0 0 116.81 100.31
  L 204.78 299.49
  A 1.73 1.41 44.4 0 1 204.89 300.48
  L 116.77 699.51
  A 0.41 0.32 -82.2 0 0 117.06 700.00
  L 204.50 700.00
  A 0.81 0.72 -78.3 0 0 205.20 699.48
  L 372.39 274.06
  Q 372.64 273.44 372.73 274.04
  Q 372.79 274.42 372.69 274.94
  Q 332.32 486.81 291.79 699.30
  A 0.59 0.49 -83.8 0 0 292.25 700.00
  L 379.50 700.00
  A 0.77 0.69 -79.3 0 0 380.17 699.49
  Q 460.50 472.65 540.79 245.81
  Q 540.84 245.67 540.96 245.61
  Q 541.32 245.43 541.27 245.75
  Z"
/>
<path fill="#050038" d="
  M 540.96 245.61
  Q 540.84 245.67 540.79 245.81
  Q 460.50 472.65 380.17 699.49
  A 0.77 0.69 -79.3 0 1 379.50 700.00
  L 292.25 700.00
  A 0.59 0.49 -83.8 0 1 291.79 699.30
  Q 332.32 486.81 372.69 274.94
  Q 372.79 274.42 372.73 274.04
  Q 372.64 273.44 372.39 274.06
  L 205.20 699.48
  A 0.81 0.72 -78.3 0 1 204.50 700.00
  L 117.06 700.00
  A 0.41 0.32 -82.2 0 1 116.77 699.51
  L 204.89 300.48
  A 1.73 1.41 44.4 0 0 204.78 299.49
  L 116.81 100.31
  A 0.25 0.22 -9.9 0 1 117.06 100.00
  L 204.50 100.00
  A 1.33 1.32 -23.5 0 1 205.40 100.35
  L 370.61 255.64
  Q 371.64 256.60 370.97 255.29
  L 292.04 100.73
  A 0.51 0.50 -13.2 0 1 292.50 100.00
  L 379.50 100.00
  A 1.53 1.37 -22.9 0 1 380.43 100.32
  L 538.73 227.26
  A 0.31 0.25 34.8 0 0 539.16 227.23
  C 539.43 226.74 473.32 111.55 467.10 100.63
  A 0.44 0.30 69.7 0 1 467.25 100.00
  L 555.06 100.01
  A 1.04 0.01 31.8 0 1 555.94 100.55
  L 716.29 199.73
  A 0.72 0.57 -66.5 0 1 716.50 200.50
  L 556.80 699.56
  A 0.63 0.56 -80.1 0 1 556.25 700.00
  L 468.75 700.00
  A 0.50 0.36 -84.1 0 1 468.42 699.43
  L 541.27 245.75
  Q 541.32 245.43 540.96 245.61
  Z"
/>
</svg>
