<?xml version="1.0" encoding="UTF-8" standalone="no"?>
<!DOCTYPE svg PUBLIC "-//W3C//DTD SVG 1.1//EN" "http://www.w3.org/Graphics/SVG/1.1/DTD/svg11.dtd">
<svg xmlns="http://www.w3.org/2000/svg" version="1.1" viewBox="0 0 1024 1024">
<g stroke-width="2.00" fill="none" stroke-linecap="butt">
<path stroke="#ab98a3" vector-effect="non-scaling-stroke" d="
  M 302.56 0.00
  C 252.24 19.57 203.62 48.27 161.75 82.26
  Q 160.02 83.67 158.96 85.27
  A 0.62 0.61 -59.4 0 1 158.15 85.48
  Q 142.05 76.79 126.04 68.48
  Q 116.49 63.52 107.58 61.19
  C 101.80 59.67 97.19 56.19 90.96 57.99
  Q 84.93 59.74 79.42 65.09
  C 75.52 68.86 73.67 74.39 71.76 79.46
  C 64.36 99.19 57.26 119.59 52.68 140.18
  Q 44.80 175.59 41.53 211.76
  Q 41.31 214.23 40.05 216.37
  Q 23.67 244.24 9.13 273.16
  Q 3.76 283.84 0.00 295.19"
/>
<path stroke="#834f85" vector-effect="non-scaling-stroke" d="
  M 446.31 0.00
  L 447.16 0.38
  Q 448.00 0.75 447.11 0.81
  C 407.60 3.29 368.75 10.94 332.38 24.47
  Q 291.66 39.63 259.32 57.33
  Q 226.79 75.14 189.25 102.81
  A 0.32 0.32 0.0 0 0 189.29 103.35
  Q 194.20 105.97 196.25 107.25
  Q 228.72 127.58 261.72 147.93
  Q 263.74 149.18 265.91 148.22
  C 280.01 141.99 293.85 132.12 306.94 125.71
  C 368.79 95.43 443.45 82.65 511.41 87.00
  C 532.73 88.36 554.48 90.78 574.89 97.47
  A 1.59 1.58 -54.9 0 0 576.34 97.21
  C 606.42 73.47 637.71 51.14 667.89 27.36
  A 0.30 0.29 36.5 0 0 667.81 26.86
  Q 647.34 18.45 640.01 16.48
  Q 609.54 8.29 578.43 3.11
  Q 568.07 1.39 557.57 0.96
  A 0.98 0.57 -3.3 0 1 556.75 0.54
  L 556.56 0.00"
/>
<path stroke="#ab98a3" vector-effect="non-scaling-stroke" d="
  M 745.36 0.05
  Q 743.30 1.88 736.44 6.68
  Q 730.56 10.80 710.76 25.77
  Q 648.34 72.97 585.92 120.20
  Q 584.16 121.53 581.96 121.56
  C 578.69 121.60 574.53 122.72 571.27 121.54
  Q 565.19 119.34 557.26 117.48
  C 514.05 107.33 469.15 108.04 425.47 114.63
  C 418.97 115.61 412.45 117.05 405.90 118.15
  C 399.58 119.20 393.03 121.20 386.50 122.52
  C 383.07 123.21 380.09 124.96 376.81 125.59
  C 371.46 126.63 367.18 128.20 361.15 130.06
  C 330.54 139.53 302.24 154.28 275.63 171.37
  C 271.23 174.19 267.47 175.10 262.55 174.92
  C 259.64 174.81 257.52 173.26 254.96 171.97
  C 247.91 168.44 241.18 163.48 233.31 158.69
  C 189.07 131.76 145.91 105.77 100.70 83.58
  Q 100.37 83.42 100.45 83.78
  Q 103.27 96.35 107.19 108.65
  C 125.37 165.74 147.39 224.74 166.39 277.83
  Q 167.60 281.22 168.73 286.29
  A 1.48 1.48 0.0 0 1 168.64 287.22
  Q 165.72 293.75 163.70 296.45
  C 144.74 321.79 131.18 340.78 118.08 367.93
  C 114.78 374.78 111.47 382.80 108.18 390.27
  C 106.60 393.83 105.67 397.62 104.34 401.37
  C 99.97 413.71 96.36 427.28 93.68 439.95
  C 90.43 455.31 89.45 467.26 87.88 481.06
  A 0.32 0.32 0.0 0 0 88.22 481.42
  C 115.80 479.64 143.47 477.82 170.95 475.01
  C 200.15 472.03 227.06 468.42 254.88 465.54
  Q 259.56 465.06 264.20 464.23
  C 275.15 462.26 286.27 461.59 297.28 459.89
  C 306.08 458.53 315.99 457.92 325.27 456.28
  Q 333.75 454.78 338.33 454.37
  Q 343.67 453.89 351.50 453.28
  Q 377.64 451.24 400.56 460.43
  C 406.71 462.90 413.17 466.89 419.34 470.35
  A 0.65 0.63 36.3 0 0 420.12 470.24
  C 434.68 454.88 454.14 447.34 474.62 443.85
  C 487.54 441.64 500.39 444.23 512.57 448.70
  A 0.51 0.51 0.0 0 0 513.23 448.40
  Q 524.06 419.55 550.15 404.94
  C 557.68 400.72 567.15 397.45 575.83 394.62
  C 594.89 388.41 613.86 381.85 633.15 376.37
  C 685.69 361.45 718.16 349.96 760.50 339.00
  Q 769.64 336.63 780.76 336.24
  Q 781.17 336.23 781.74 335.96
  Q 783.34 335.19 784.93 336.14
  A 1.60 1.35 -27.1 0 0 785.80 336.34
  Q 805.24 335.39 820.31 347.39
  A 1.21 1.01 54.9 0 0 821.25 347.64
  C 830.84 345.57 841.03 344.93 850.76 344.16
  A 0.52 0.51 -14.2 0 0 851.19 343.44
  C 847.73 335.56 844.08 328.25 839.44 320.77
  C 806.64 267.92 761.87 224.47 709.00 191.50
  Q 703.11 187.82 697.97 182.19
  A 1.19 1.18 26.2 0 1 697.67 181.33
  Q 697.89 177.08 698.23 172.85
  C 698.73 166.47 701.76 160.67 704.20 154.87
  C 724.60 106.47 744.66 57.90 765.77 9.80
  Q 768.49 3.60 771.06 0.00"
/>
<path stroke="#8c5c8c" vector-effect="non-scaling-stroke" d="
  M 794.56 0.00
  Q 796.18 3.30 795.02 5.48
  Q 788.41 17.91 782.83 30.82
  Q 752.38 101.21 722.41 171.38
  A 1.09 1.08 -63.5 0 0 722.86 172.75
  C 772.32 201.64 810.14 240.65 845.10 285.43
  Q 845.35 285.75 845.43 285.35
  C 851.32 256.85 854.80 227.73 852.47 198.75
  Q 848.00 142.91 834.82 87.79
  Q 832.61 78.53 829.53 68.50
  C 823.17 47.78 816.30 25.76 808.34 5.76
  Q 808.05 5.04 806.87 2.98
  Q 806.08 1.59 805.72 0.03"
/>
<path stroke="#ab98a3" vector-effect="non-scaling-stroke" d="
  M 833.06 0.00
  C 837.68 14.56 843.28 28.94 847.38 43.44
  C 851.08 56.54 855.41 69.69 858.54 82.80
  C 860.14 89.51 861.39 100.51 863.90 102.61
  C 926.75 155.18 975.69 223.67 1008.55 298.48
  Q 1019.26 322.85 1024.03 342.30"
/>
<path stroke="#ab98a3" vector-effect="non-scaling-stroke" d="
  M 1024.02 717.07
  Q 1017.65 730.06 1011.95 743.35
  Q 1010.73 746.19 1010.46 749.41
  C 1007.70 782.33 1002.30 818.77 973.98 840.48
  Q 972.32 841.75 963.26 845.83
  A 1.60 1.55 2.2 0 0 962.55 846.47
  Q 957.93 854.44 955.30 858.05
  C 924.63 900.06 889.23 936.38 849.18 969.35
  C 833.09 982.59 816.67 994.13 798.58 1006.34
  Q 782.95 1016.88 768.95 1024.03"
/>
<path stroke="#834f85" vector-effect="non-scaling-stroke" d="
  M 702.44 1024.00
  L 701.30 1023.66
  Q 700.89 1023.54 701.26 1023.34
  C 712.94 1017.13 725.73 1010.94 736.35 1004.85
  Q 787.68 975.38 833.50 937.79"
/>
<path stroke="#612e5a" vector-effect="non-scaling-stroke" d="
  M 833.50 937.79
  Q 837.18 935.52 840.55 932.80
  Q 859.79 917.29 877.60 900.16
  A 0.57 0.46 71.5 0 0 877.75 899.75
  L 877.75 899.51
  A 0.41 0.34 -6.9 0 0 877.26 899.20
  C 849.03 905.16 825.91 906.98 798.80 897.98
  C 781.19 892.14 761.63 875.08 752.07 858.94
  C 742.13 842.17 734.65 821.33 734.26 801.30
  C 734.14 794.81 735.02 787.25 735.72 780.39
  Q 735.86 779.00 734.59 779.58
  C 695.44 797.22 654.69 810.69 613.40 823.25
  C 610.97 823.99 608.20 824.28 605.66 824.66
  Q 604.40 824.86 605.29 825.77
  C 632.53 853.59 647.08 888.85 637.29 928.00"
/>
<path stroke="#834f85" vector-effect="non-scaling-stroke" d="
  M 637.29 928.00
  C 627.09 967.44 589.33 994.39 552.19 1005.46
  C 530.41 1011.96 510.45 1015.54 487.41 1015.76
  C 485.92 1015.77 484.19 1016.18 482.75 1016.16
  C 443.25 1015.37 403.58 1007.50 368.41 988.97
  A 1.80 1.71 54.9 0 0 367.47 988.78
  Q 357.08 989.71 346.75 989.46"
/>
<path stroke="#612e5a" vector-effect="non-scaling-stroke" d="
  M 346.75 989.46
  Q 302.97 992.28 259.78 985.48
  C 246.72 983.42 237.04 979.86 226.79 972.75"
/>
<path stroke="#834f85" vector-effect="non-scaling-stroke" d="
  M 226.79 972.75
  C 220.35 966.38 217.13 958.47 214.66 949.48
  Q 207.16 922.18 209.65 894.24
  C 212.07 867.10 225.53 851.75 245.34 834.84
  A 0.70 0.69 -50.2 0 0 245.24 833.71
  Q 232.24 826.26 219.07 818.61
  C 198.32 806.56 178.98 792.07 162.02 775.10
  C 105.22 718.26 71.66 639.41 64.11 560.65
  A 0.67 0.67 0.0 0 0 63.59 560.05
  C 55.49 558.19 50.08 556.72 45.20 552.30
  C 36.20 544.16 31.51 532.04 33.17 519.86
  C 35.27 504.45 48.62 492.56 62.64 488.18
  A 1.57 1.56 83.1 0 0 63.74 486.77
  Q 65.97 446.90 76.49 408.41
  C 76.89 406.95 77.82 405.69 78.34 404.23
  A 1.20 1.12 43.1 0 0 78.28 403.31
  C 60.22 366.15 46.27 326.79 45.20 285.06
  Q 45.18 284.19 44.68 284.91
  C 38.43 293.85 31.93 303.08 27.42 312.63
  C 17.37 333.92 8.89 358.55 3.13 379.33
  Q 1.62 384.78 0.60 392.56"
/>
<path stroke="#ab98a3" vector-effect="non-scaling-stroke" d="
  M 0.60 392.56
  L 0.00 389.19"
/>
<path stroke="#8c5c8c" vector-effect="non-scaling-stroke" d="
  M 89.69 371.74
  C 93.47 362.02 98.78 353.15 103.50 343.85
  C 111.72 327.71 121.06 313.35 131.94 299.17
  Q 136.94 292.65 141.77 285.83
  Q 142.74 284.47 142.18 282.89
  C 122.68 227.25 102.51 171.49 84.99 114.95
  Q 84.78 114.28 84.60 114.96
  C 83.95 117.32 83.73 120.13 83.04 122.34
  C 62.94 186.26 58.85 253.00 72.75 318.56
  C 76.55 336.50 82.91 354.27 89.15 371.73
  Q 89.41 372.46 89.69 371.74"
/>
<path stroke="#834f85" vector-effect="non-scaling-stroke" d="
  M 921.04 356.98
  C 928.57 377.98 924.77 399.96 905.12 412.49
  A 0.68 0.68 0.0 0 0 904.82 413.23
  Q 918.57 467.62 916.77 523.75
  Q 916.48 532.75 912.83 566.24
  A 0.57 0.57 0.0 0 0 913.26 566.85
  C 939.96 573.06 964.04 597.79 976.74 621.59
  C 981.13 629.83 986.00 638.41 989.40 646.40
  Q 995.42 660.55 1000.06 675.25
  Q 1000.53 676.75 1000.95 675.24
  C 1006.10 656.73 1011.24 637.64 1014.53 618.66
  C 1025.02 558.12 1025.90 492.78 1015.77 431.85
  C 1011.74 407.65 1004.90 382.93 997.04 360.49
  Q 958.36 250.17 878.69 163.59
  C 876.73 161.46 875.10 159.17 873.32 156.89
  Q 873.01 156.49 873.07 156.98
  C 877.60 192.42 878.54 231.50 872.88 268.19
  Q 869.56 289.74 860.81 309.77
  A 1.07 0.94 44.1 0 0 860.88 310.65
  Q 868.63 324.29 877.54 337.21
  A 1.28 1.16 -17.2 0 0 878.61 337.71
  C 882.98 337.52 887.43 338.18 891.86 338.58
  C 903.56 339.62 916.81 345.16 921.04 356.98"
/>
<path stroke="#ab98a3" vector-effect="non-scaling-stroke" d="
  M 871.01 367.29
  L 869.27 367.81
  A 1.05 0.26 50.1 0 1 868.50 367.25
  L 863.99 362.26
  A 1.65 1.28 65.9 0 0 863.00 361.73
  L 858.50 361.44
  A 0.51 0.40 85.1 0 0 858.11 362.04
  C 858.62 365.17 858.62 367.94 859.59 371.10
  Q 860.77 374.96 860.77 378.72
  A 2.10 2.09 80.7 0 1 859.35 380.71
  C 855.44 382.05 849.65 382.00 850.68 388.02
  C 851.37 392.06 855.85 395.17 859.48 396.48
  Q 862.18 397.45 866.02 396.84
  C 874.54 395.49 895.62 390.34 900.13 383.85
  C 903.70 378.71 898.91 362.98 893.16 358.03
  Q 891.12 356.28 889.32 358.59
  Q 887.65 360.75 886.99 363.53
  Q 886.38 366.12 884.41 364.09
  C 880.38 359.92 878.76 355.17 872.49 353.06
  A 1.35 1.19 39.5 0 0 871.55 353.09
  C 867.66 354.80 870.44 363.28 871.35 366.55
  A 0.63 0.53 74.8 0 1 871.01 367.29"
/>
<path stroke="#ab98a3" vector-effect="non-scaling-stroke" d="
  M 565.63 517.72
  C 566.51 520.09 573.26 527.54 575.80 527.58
  Q 577.93 527.62 579.08 525.55
  C 600.31 487.64 620.27 449.13 642.01 411.48
  C 643.52 408.85 646.68 403.43 646.81 399.98
  C 647.08 392.78 640.46 389.02 634.41 392.62
  Q 632.32 393.87 630.28 397.50
  C 620.04 415.70 610.97 434.60 600.61 452.68
  C 595.19 462.14 590.78 471.73 586.03 480.45
  C 579.31 492.78 573.90 506.01 565.77 516.85
  A 0.96 0.87 -38.6 0 0 565.63 517.72"
/>
<path stroke="#ab98a3" vector-effect="non-scaling-stroke" d="
  M 877.34 426.60
  Q 876.24 425.06 876.36 423.24
  Q 876.39 422.78 876.06 423.09
  C 872.29 426.60 868.07 427.96 864.36 430.24
  Q 862.20 431.57 862.38 434.10
  Q 864.07 458.04 858.47 479.88
  C 851.49 507.15 842.33 533.27 822.88 553.75
  C 812.97 564.19 800.97 571.62 787.79 577.76
  C 760.88 590.31 731.84 601.67 703.18 606.93
  C 655.88 615.61 606.26 601.95 568.05 573.69
  C 539.05 552.25 512.32 516.07 509.18 478.64
  A 1.14 1.10 -74.4 0 0 508.74 477.83
  Q 502.00 472.76 494.80 468.40
  C 481.59 460.40 459.16 469.46 447.10 476.39
  Q 444.04 478.15 443.44 481.94
  Q 442.52 487.73 438.02 491.28
  A 1.86 1.43 58.6 0 0 437.79 493.40
  C 460.70 537.18 453.32 594.04 429.70 635.93
  C 388.99 708.16 310.38 725.43 234.25 708.97
  C 223.63 706.68 211.51 702.35 202.12 696.19
  C 169.67 674.92 147.48 638.34 131.18 603.30
  C 128.12 596.72 125.16 590.40 122.49 583.60
  C 120.56 578.71 117.55 573.26 113.70 570.81
  Q 102.97 563.96 90.66 557.50
  A 1.35 1.35 0.0 0 0 88.69 558.60
  Q 88.48 561.63 88.93 565.95
  C 92.64 601.34 102.37 635.58 117.58 667.71"
/>
<path stroke="#936492" vector-effect="non-scaling-stroke" d="
  M 117.58 667.71
  Q 122.71 680.85 131.01 695.28
  C 157.27 740.92 192.52 776.40 239.04 802.45
  Q 247.19 807.01 269.06 817.72
  A 0.95 0.93 -46.9 0 0 269.95 817.68
  L 293.59 803.90"
/>
<path stroke="#ab98a3" vector-effect="non-scaling-stroke" d="
  M 293.59 803.90
  Q 318.70 790.57 327.22 787.27
  Q 357.39 775.58 381.25 770.52
  Q 411.74 764.05 448.00 765.53
  C 486.65 767.11 521.25 775.92 555.05 791.88
  C 557.71 793.13 561.82 794.63 565.44 796.80
  Q 568.65 798.72 575.50 801.50"
/>
<path stroke="#936492" vector-effect="non-scaling-stroke" d="
  M 575.50 801.50
  L 583.97 806.19
  A 1.47 1.02 -29.3 0 0 584.92 806.28
  C 620.69 797.78 661.12 783.77 693.94 770.44
  C 730.53 755.58 768.06 734.69 801.54 710.04
  C 826.81 691.44 846.92 668.64 861.29 641.21
  C 892.49 581.66 898.22 517.03 888.26 450.50
  C 887.89 448.00 887.03 445.55 886.78 443.13
  Q 885.67 432.73 883.50 422.50
  Q 883.30 421.55 883.21 418.28
  Q 883.19 417.76 882.77 418.04
  Q 878.38 420.90 877.34 426.60"
/>
<path stroke="#e6caed" vector-effect="non-scaling-stroke" d="
  M 575.50 801.50
  Q 581.62 798.92 597.07 794.10
  Q 605.69 791.40 632.41 780.92
  C 650.31 773.91 673.97 763.27 685.69 757.67
  Q 712.77 744.73 745.04 725.29
  C 776.28 706.47 802.90 683.38 825.07 654.32
  C 828.18 650.24 832.86 644.60 836.16 639.17
  Q 844.11 626.11 851.27 612.60
  C 856.91 601.96 859.25 593.47 863.50 583.83
  C 867.23 575.37 869.81 564.08 871.63 555.59
  C 880.65 513.41 880.69 469.13 877.34 426.60"
/>
<path stroke="#e6caed" vector-effect="non-scaling-stroke" d="
  M 293.59 803.90
  Q 289.10 801.77 265.03 790.71
  Q 198.77 760.26 148.11 706.89
  Q 135.18 693.27 131.77 687.73
  Q 125.33 677.26 117.58 667.71"
/>
<path stroke="#ab98a3" vector-effect="non-scaling-stroke" d="
  M 225.26 492.13
  Q 210.56 527.96 197.61 564.45
  C 189.59 587.04 182.25 609.94 173.76 632.36
  A 1.54 1.36 50.5 0 0 173.73 633.29
  Q 175.97 641.11 180.33 647.92
  A 0.55 0.54 58.1 0 0 181.07 648.10
  C 183.93 646.38 185.45 645.46 186.48 642.03
  Q 190.23 629.62 194.82 617.50
  C 208.62 581.01 221.53 544.16 235.05 507.56
  C 237.22 501.67 239.25 495.26 241.38 489.16
  Q 241.69 488.26 240.75 488.48
  Q 233.59 490.12 226.26 490.32
  A 0.83 0.67 7.8 0 0 225.56 490.74
  C 225.42 491.09 225.41 491.77 225.26 492.13"
/>
<path stroke="#ab98a3" vector-effect="non-scaling-stroke" d="
  M 60.82 533.45
  Q 65.61 537.25 70.90 535.79
  C 77.27 534.02 82.87 533.41 89.50 533.73
  Q 90.28 533.77 92.75 534.22
  C 101.48 535.83 110.45 540.56 117.63 545.60
  Q 118.44 546.17 118.48 545.18
  C 119.07 528.06 123.44 511.85 135.71 499.33
  Q 136.82 498.20 135.28 498.55
  C 118.75 502.35 103.56 503.08 85.18 505.88
  C 79.80 506.70 75.09 508.72 70.06 510.62
  C 64.10 512.86 60.69 515.03 56.95 519.68
  C 53.70 523.71 57.68 530.96 60.82 533.45"
/>
<path stroke="#ab98a3" vector-effect="non-scaling-stroke" d="
  M 793.75 868.72
  Q 810.58 879.47 832.29 880.98
  Q 837.28 881.33 839.76 880.85
  Q 840.21 880.76 840.74 880.85
  Q 841.16 880.93 841.52 880.90
  Q 858.44 879.63 873.54 872.04
  C 889.71 863.90 902.77 849.85 911.46 833.38
  C 918.85 819.37 922.34 803.70 923.46 788.02
  C 923.95 781.19 923.48 771.82 923.91 764.95
  C 924.39 757.39 930.62 751.43 938.09 754.11
  C 945.50 756.77 949.48 771.97 950.78 779.26
  Q 955.21 804.15 956.61 809.42
  Q 957.70 813.55 962.06 815.39
  A 1.10 1.07 -46.0 0 0 962.96 815.36
  C 974.55 809.54 980.31 787.90 982.27 776.20
  Q 986.32 752.14 983.91 727.77
  C 983.12 719.76 982.60 711.50 981.14 703.81
  Q 977.50 684.65 973.23 671.75
  Q 972.15 668.47 966.20 654.13
  C 960.22 639.74 951.73 627.34 942.49 614.95
  C 938.02 608.94 931.03 602.84 926.46 599.05
  Q 918.56 592.50 907.20 590.73
  A 0.64 0.64 0.0 0 0 906.51 591.12
  C 903.81 598.00 901.94 606.53 900.03 612.11
  Q 889.61 642.49 874.20 667.71
  C 859.53 691.73 840.45 710.54 818.05 728.08
  Q 795.31 745.90 773.01 764.26
  C 768.96 767.59 759.18 775.44 758.13 780.51
  C 754.98 795.68 758.11 812.84 763.02 827.99
  C 768.43 844.69 778.98 859.29 793.75 868.72"
/>
<path stroke="#ab98a3" vector-effect="non-scaling-stroke" d="
  M 256.69 961.56
  C 280.64 966.60 305.63 967.00 330.00 965.99
  C 347.44 965.26 356.01 964.56 370.92 964.76
  Q 373.43 964.79 375.71 965.86
  Q 396.91 975.80 403.82 978.67
  C 439.76 993.63 481.12 996.52 519.24 990.22
  C 536.86 987.31 553.49 981.47 569.75 972.75
  C 596.20 958.56 615.25 936.47 616.44 905.73
  C 617.24 885.06 609.37 865.46 596.16 849.77
  C 577.21 827.27 551.32 814.88 524.68 804.03
  C 520.60 802.37 516.01 801.41 511.65 799.87
  C 505.68 797.74 500.32 795.95 496.01 795.00
  C 445.78 783.89 395.86 786.89 347.95 804.97
  C 309.36 819.53 271.84 840.53 243.58 870.41
  Q 238.55 875.72 236.67 880.01
  C 232.17 890.24 232.60 902.74 233.02 913.36
  C 233.51 925.81 237.06 938.71 241.37 950.63
  C 244.13 958.27 249.35 960.02 256.69 961.56"
/>
<path stroke="#ab98a3" vector-effect="non-scaling-stroke" d="
  M 584.69 364.81
  C 588.72 367.95 591.46 365.55 594.84 363.24
  Q 661.80 317.36 712.82 281.33
  C 720.39 275.99 717.82 265.32 707.76 267.01
  C 700.35 268.25 696.95 272.58 690.63 276.83
  Q 641.94 309.59 594.25 343.77
  C 587.23 348.80 575.27 357.47 584.69 364.81"
/>
<path stroke="#8d4c97" vector-effect="non-scaling-stroke" d="
  M 226.79 972.75
  L 225.96 974.25"
/>
<path stroke="#834f85" vector-effect="non-scaling-stroke" d="
  M 225.96 974.25
  Q 195.79 954.12 166.87 927.63
  C 143.37 906.11 121.62 883.73 102.63 859.32
  C 58.46 802.56 24.26 736.72 3.59 667.18
  Q 1.94 661.63 0.90 655.91
  A 0.54 0.37 73.7 0 0 0.32 655.43
  C 0.05 655.59 0.53 657.11 0.00 657.69"
/>
<path stroke="#d6b5e0" vector-effect="non-scaling-stroke" d="
  M 0.00 394.19
  L 0.60 392.56"
/>
<path stroke="#ab98a3" vector-effect="non-scaling-stroke" d="
  M 738.50 651.80
  C 731.00 656.61 736.19 666.12 743.58 666.31
  Q 745.86 666.38 748.93 664.38
  Q 794.39 634.92 840.09 605.83
  C 845.05 602.67 847.76 599.35 849.14 593.95
  A 2.50 1.71 -68.1 0 0 848.62 591.60
  L 841.93 586.51
  A 1.21 0.64 -34.2 0 0 840.82 586.63
  Q 836.84 588.83 833.00 591.26
  Q 790.23 618.27 747.63 645.55
  C 744.78 647.38 741.61 649.80 738.50 651.80"
/>
<path stroke="#ab98a3" vector-effect="non-scaling-stroke" d="
  M 523.25 654.05
  C 524.72 666.15 523.73 678.83 513.57 687.26
  Q 505.65 693.83 495.27 695.80
  C 490.16 696.77 488.26 701.47 490.09 706.13
  C 493.27 714.27 504.56 709.21 509.80 706.82
  Q 526.45 699.22 533.76 681.89
  A 0.41 0.41 0.0 0 1 534.37 681.72
  C 547.98 691.37 561.35 698.09 578.19 697.39
  C 585.80 697.07 604.47 691.63 607.12 683.26
  C 609.22 676.61 602.35 671.41 595.87 673.74
  A 1.84 1.47 -76.1 0 0 595.11 674.32
  C 587.60 684.19 568.88 682.81 558.55 679.23
  C 553.64 677.52 543.84 673.76 540.29 669.22
  Q 534.02 661.20 530.68 650.79
  A 0.38 0.37 80.5 0 1 531.02 650.30
  C 542.43 650.00 552.01 636.46 541.17 627.91
  C 536.77 624.44 530.64 626.04 526.60 629.56
  C 524.94 631.00 523.56 633.22 522.05 635.02
  A 0.60 0.59 35.2 0 1 521.29 635.14
  C 513.33 630.39 503.24 629.47 500.69 640.49
  C 499.02 647.74 507.31 652.16 513.43 653.38
  Q 515.47 653.79 522.68 653.58
  A 0.55 0.54 -4.5 0 1 523.25 654.05"
/>
<path stroke="#612e5a" vector-effect="non-scaling-stroke" d="
  M 225.96 974.25
  Q 230.54 978.67 237.10 983.13
  Q 261.56 999.76 286.50 1012.39
  C 292.21 1015.28 298.60 1019.53 305.04 1022.50
  A 1.28 0.87 10.4 0 1 305.71 1023.16
  Q 305.84 1023.59 305.69 1024.00"
/>
<path stroke="#ab98a3" vector-effect="non-scaling-stroke" d="
  M 243.18 1024.01
  Q 235.96 1020.03 226.28 1013.95
  C 165.63 975.85 111.79 927.44 68.31 871.44
  C 51.60 849.91 34.72 824.96 20.95 799.51
  C 13.35 785.47 5.35 771.27 0.00 756.19"
/>
<path stroke="#8d4c97" vector-effect="non-scaling-stroke" d="
  M 833.50 937.79
  Q 774.69 939.92 716.06 934.96
  Q 676.66 931.62 637.29 928.00"
/>
<path stroke="#ab98a3" vector-effect="non-scaling-stroke" d="
  M 569.79 905.63
  C 556.91 909.45 538.16 946.89 559.36 952.70
  Q 562.54 953.57 566.06 952.28
  C 576.91 948.28 584.88 935.01 587.51 924.45
  C 590.32 913.18 582.19 901.95 569.79 905.63"
/>
<path stroke="#8d4c97" vector-effect="non-scaling-stroke" d="
  M 403.23 1023.93
  Q 381.26 1011.83 359.30 999.72
  Q 356.05 997.93 346.75 989.46"
/>
</g>
<path fill="#fefefe" d="
  M 0.00 0.00
  L 302.56 0.00
  C 252.24 19.57 203.62 48.27 161.75 82.26
  Q 160.02 83.67 158.96 85.27
  A 0.62 0.61 -59.4 0 1 158.15 85.48
  Q 142.05 76.79 126.04 68.48
  Q 116.49 63.52 107.58 61.19
  C 101.80 59.67 97.19 56.19 90.96 57.99
  Q 84.93 59.74 79.42 65.09
  C 75.52 68.86 73.67 74.39 71.76 79.46
  C 64.36 99.19 57.26 119.59 52.68 140.18
  Q 44.80 175.59 41.53 211.76
  Q 41.31 214.23 40.05 216.37
  Q 23.67 244.24 9.13 273.16
  Q 3.76 283.84 0.00 295.19
  L 0.00 0.00
  Z"
/>
<path fill="#573148" d="
  M 302.56 0.00
  L 446.31 0.00
  L 447.16 0.38
  Q 448.00 0.75 447.11 0.81
  C 407.60 3.29 368.75 10.94 332.38 24.47
  Q 291.66 39.63 259.32 57.33
  Q 226.79 75.14 189.25 102.81
  A 0.32 0.32 0.0 0 0 189.29 103.35
  Q 194.20 105.97 196.25 107.25
  Q 228.72 127.58 261.72 147.93
  Q 263.74 149.18 265.91 148.22
  C 280.01 141.99 293.85 132.12 306.94 125.71
  C 368.79 95.43 443.45 82.65 511.41 87.00
  C 532.73 88.36 554.48 90.78 574.89 97.47
  A 1.59 1.58 -54.9 0 0 576.34 97.21
  C 606.42 73.47 637.71 51.14 667.89 27.36
  A 0.30 0.29 36.5 0 0 667.81 26.86
  Q 647.34 18.45 640.01 16.48
  Q 609.54 8.29 578.43 3.11
  Q 568.07 1.39 557.57 0.96
  A 0.98 0.57 -3.3 0 1 556.75 0.54
  L 556.56 0.00
  L 745.36 0.05
  Q 743.30 1.88 736.44 6.68
  Q 730.56 10.80 710.76 25.77
  Q 648.34 72.97 585.92 120.20
  Q 584.16 121.53 581.96 121.56
  C 578.69 121.60 574.53 122.72 571.27 121.54
  Q 565.19 119.34 557.26 117.48
  C 514.05 107.33 469.15 108.04 425.47 114.63
  C 418.97 115.61 412.45 117.05 405.90 118.15
  C 399.58 119.20 393.03 121.20 386.50 122.52
  C 383.07 123.21 380.09 124.96 376.81 125.59
  C 371.46 126.63 367.18 128.20 361.15 130.06
  C 330.54 139.53 302.24 154.28 275.63 171.37
  C 271.23 174.19 267.47 175.10 262.55 174.92
  C 259.64 174.81 257.52 173.26 254.96 171.97
  C 247.91 168.44 241.18 163.48 233.31 158.69
  C 189.07 131.76 145.91 105.77 100.70 83.58
  Q 100.37 83.42 100.45 83.78
  Q 103.27 96.35 107.19 108.65
  C 125.37 165.74 147.39 224.74 166.39 277.83
  Q 167.60 281.22 168.73 286.29
  A 1.48 1.48 0.0 0 1 168.64 287.22
  Q 165.72 293.75 163.70 296.45
  C 144.74 321.79 131.18 340.78 118.08 367.93
  C 114.78 374.78 111.47 382.80 108.18 390.27
  C 106.60 393.83 105.67 397.62 104.34 401.37
  C 99.97 413.71 96.36 427.28 93.68 439.95
  C 90.43 455.31 89.45 467.26 87.88 481.06
  A 0.32 0.32 0.0 0 0 88.22 481.42
  C 115.80 479.64 143.47 477.82 170.95 475.01
  C 200.15 472.03 227.06 468.42 254.88 465.54
  Q 259.56 465.06 264.20 464.23
  C 275.15 462.26 286.27 461.59 297.28 459.89
  C 306.08 458.53 315.99 457.92 325.27 456.28
  Q 333.75 454.78 338.33 454.37
  Q 343.67 453.89 351.50 453.28
  Q 377.64 451.24 400.56 460.43
  C 406.71 462.90 413.17 466.89 419.34 470.35
  A 0.65 0.63 36.3 0 0 420.12 470.24
  C 434.68 454.88 454.14 447.34 474.62 443.85
  C 487.54 441.64 500.39 444.23 512.57 448.70
  A 0.51 0.51 0.0 0 0 513.23 448.40
  Q 524.06 419.55 550.15 404.94
  C 557.68 400.72 567.15 397.45 575.83 394.62
  C 594.89 388.41 613.86 381.85 633.15 376.37
  C 685.69 361.45 718.16 349.96 760.50 339.00
  Q 769.64 336.63 780.76 336.24
  Q 781.17 336.23 781.74 335.96
  Q 783.34 335.19 784.93 336.14
  A 1.60 1.35 -27.1 0 0 785.80 336.34
  Q 805.24 335.39 820.31 347.39
  A 1.21 1.01 54.9 0 0 821.25 347.64
  C 830.84 345.57 841.03 344.93 850.76 344.16
  A 0.52 0.51 -14.2 0 0 851.19 343.44
  C 847.73 335.56 844.08 328.25 839.44 320.77
  C 806.64 267.92 761.87 224.47 709.00 191.50
  Q 703.11 187.82 697.97 182.19
  A 1.19 1.18 26.2 0 1 697.67 181.33
  Q 697.89 177.08 698.23 172.85
  C 698.73 166.47 701.76 160.67 704.20 154.87
  C 724.60 106.47 744.66 57.90 765.77 9.80
  Q 768.49 3.60 771.06 0.00
  L 794.56 0.00
  Q 796.18 3.30 795.02 5.48
  Q 788.41 17.91 782.83 30.82
  Q 752.38 101.21 722.41 171.38
  A 1.09 1.08 -63.5 0 0 722.86 172.75
  C 772.32 201.64 810.14 240.65 845.10 285.43
  Q 845.35 285.75 845.43 285.35
  C 851.32 256.85 854.80 227.73 852.47 198.75
  Q 848.00 142.91 834.82 87.79
  Q 832.61 78.53 829.53 68.50
  C 823.17 47.78 816.30 25.76 808.34 5.76
  Q 808.05 5.04 806.87 2.98
  Q 806.08 1.59 805.72 0.03
  L 833.06 0.00
  C 837.68 14.56 843.28 28.94 847.38 43.44
  C 851.08 56.54 855.41 69.69 858.54 82.80
  C 860.14 89.51 861.39 100.51 863.90 102.61
  C 926.75 155.18 975.69 223.67 1008.55 298.48
  Q 1019.26 322.85 1024.03 342.30
  L 1024.02 717.07
  Q 1017.65 730.06 1011.95 743.35
  Q 1010.73 746.19 1010.46 749.41
  C 1007.70 782.33 1002.30 818.77 973.98 840.48
  Q 972.32 841.75 963.26 845.83
  A 1.60 1.55 2.2 0 0 962.55 846.47
  Q 957.93 854.44 955.30 858.05
  C 924.63 900.06 889.23 936.38 849.18 969.35
  C 833.09 982.59 816.67 994.13 798.58 1006.34
  Q 782.95 1016.88 768.95 1024.03
  L 702.44 1024.00
  L 701.30 1023.66
  Q 700.89 1023.54 701.26 1023.34
  C 712.94 1017.13 725.73 1010.94 736.35 1004.85
  Q 787.68 975.38 833.50 937.79
  Q 837.18 935.52 840.55 932.80
  Q 859.79 917.29 877.60 900.16
  A 0.57 0.46 71.5 0 0 877.75 899.75
  L 877.75 899.51
  A 0.41 0.34 -6.9 0 0 877.26 899.20
  C 849.03 905.16 825.91 906.98 798.80 897.98
  C 781.19 892.14 761.63 875.08 752.07 858.94
  C 742.13 842.17 734.65 821.33 734.26 801.30
  C 734.14 794.81 735.02 787.25 735.72 780.39
  Q 735.86 779.00 734.59 779.58
  C 695.44 797.22 654.69 810.69 613.40 823.25
  C 610.97 823.99 608.20 824.28 605.66 824.66
  Q 604.40 824.86 605.29 825.77
  C 632.53 853.59 647.08 888.85 637.29 928.00
  C 627.09 967.44 589.33 994.39 552.19 1005.46
  C 530.41 1011.96 510.45 1015.54 487.41 1015.76
  C 485.92 1015.77 484.19 1016.18 482.75 1016.16
  C 443.25 1015.37 403.58 1007.50 368.41 988.97
  A 1.80 1.71 54.9 0 0 367.47 988.78
  Q 357.08 989.71 346.75 989.46
  Q 302.97 992.28 259.78 985.48
  C 246.72 983.42 237.04 979.86 226.79 972.75
  C 220.35 966.38 217.13 958.47 214.66 949.48
  Q 207.16 922.18 209.65 894.24
  C 212.07 867.10 225.53 851.75 245.34 834.84
  A 0.70 0.69 -50.2 0 0 245.24 833.71
  Q 232.24 826.26 219.07 818.61
  C 198.32 806.56 178.98 792.07 162.02 775.10
  C 105.22 718.26 71.66 639.41 64.11 560.65
  A 0.67 0.67 0.0 0 0 63.59 560.05
  C 55.49 558.19 50.08 556.72 45.20 552.30
  C 36.20 544.16 31.51 532.04 33.17 519.86
  C 35.27 504.45 48.62 492.56 62.64 488.18
  A 1.57 1.56 83.1 0 0 63.74 486.77
  Q 65.97 446.90 76.49 408.41
  C 76.89 406.95 77.82 405.69 78.34 404.23
  A 1.20 1.12 43.1 0 0 78.28 403.31
  C 60.22 366.15 46.27 326.79 45.20 285.06
  Q 45.18 284.19 44.68 284.91
  C 38.43 293.85 31.93 303.08 27.42 312.63
  C 17.37 333.92 8.89 358.55 3.13 379.33
  Q 1.62 384.78 0.60 392.56
  L 0.00 389.19
  L 0.00 295.19
  Q 3.76 283.84 9.13 273.16
  Q 23.67 244.24 40.05 216.37
  Q 41.31 214.23 41.53 211.76
  Q 44.80 175.59 52.68 140.18
  C 57.26 119.59 64.36 99.19 71.76 79.46
  C 73.67 74.39 75.52 68.86 79.42 65.09
  Q 84.93 59.74 90.96 57.99
  C 97.19 56.19 101.80 59.67 107.58 61.19
  Q 116.49 63.52 126.04 68.48
  Q 142.05 76.79 158.15 85.48
  A 0.62 0.61 -59.4 0 0 158.96 85.27
  Q 160.02 83.67 161.75 82.26
  C 203.62 48.27 252.24 19.57 302.56 0.00
  Z
  M 89.69 371.74
  C 93.47 362.02 98.78 353.15 103.50 343.85
  C 111.72 327.71 121.06 313.35 131.94 299.17
  Q 136.94 292.65 141.77 285.83
  Q 142.74 284.47 142.18 282.89
  C 122.68 227.25 102.51 171.49 84.99 114.95
  Q 84.78 114.28 84.60 114.96
  C 83.95 117.32 83.73 120.13 83.04 122.34
  C 62.94 186.26 58.85 253.00 72.75 318.56
  C 76.55 336.50 82.91 354.27 89.15 371.73
  Q 89.41 372.46 89.69 371.74
  Z
  M 921.04 356.98
  C 928.57 377.98 924.77 399.96 905.12 412.49
  A 0.68 0.68 0.0 0 0 904.82 413.23
  Q 918.57 467.62 916.77 523.75
  Q 916.48 532.75 912.83 566.24
  A 0.57 0.57 0.0 0 0 913.26 566.85
  C 939.96 573.06 964.04 597.79 976.74 621.59
  C 981.13 629.83 986.00 638.41 989.40 646.40
  Q 995.42 660.55 1000.06 675.25
  Q 1000.53 676.75 1000.95 675.24
  C 1006.10 656.73 1011.24 637.64 1014.53 618.66
  C 1025.02 558.12 1025.90 492.78 1015.77 431.85
  C 1011.74 407.65 1004.90 382.93 997.04 360.49
  Q 958.36 250.17 878.69 163.59
  C 876.73 161.46 875.10 159.17 873.32 156.89
  Q 873.01 156.49 873.07 156.98
  C 877.60 192.42 878.54 231.50 872.88 268.19
  Q 869.56 289.74 860.81 309.77
  A 1.07 0.94 44.1 0 0 860.88 310.65
  Q 868.63 324.29 877.54 337.21
  A 1.28 1.16 -17.2 0 0 878.61 337.71
  C 882.98 337.52 887.43 338.18 891.86 338.58
  C 903.56 339.62 916.81 345.16 921.04 356.98
  Z
  M 871.01 367.29
  L 869.27 367.81
  A 1.05 0.26 50.1 0 1 868.50 367.25
  L 863.99 362.26
  A 1.65 1.28 65.9 0 0 863.00 361.73
  L 858.50 361.44
  A 0.51 0.40 85.1 0 0 858.11 362.04
  C 858.62 365.17 858.62 367.94 859.59 371.10
  Q 860.77 374.96 860.77 378.72
  A 2.10 2.09 80.7 0 1 859.35 380.71
  C 855.44 382.05 849.65 382.00 850.68 388.02
  C 851.37 392.06 855.85 395.17 859.48 396.48
  Q 862.18 397.45 866.02 396.84
  C 874.54 395.49 895.62 390.34 900.13 383.85
  C 903.70 378.71 898.91 362.98 893.16 358.03
  Q 891.12 356.28 889.32 358.59
  Q 887.65 360.75 886.99 363.53
  Q 886.38 366.12 884.41 364.09
  C 880.38 359.92 878.76 355.17 872.49 353.06
  A 1.35 1.19 39.5 0 0 871.55 353.09
  C 867.66 354.80 870.44 363.28 871.35 366.55
  A 0.63 0.53 74.8 0 1 871.01 367.29
  Z
  M 565.63 517.72
  C 566.51 520.09 573.26 527.54 575.80 527.58
  Q 577.93 527.62 579.08 525.55
  C 600.31 487.64 620.27 449.13 642.01 411.48
  C 643.52 408.85 646.68 403.43 646.81 399.98
  C 647.08 392.78 640.46 389.02 634.41 392.62
  Q 632.32 393.87 630.28 397.50
  C 620.04 415.70 610.97 434.60 600.61 452.68
  C 595.19 462.14 590.78 471.73 586.03 480.45
  C 579.31 492.78 573.90 506.01 565.77 516.85
  A 0.96 0.87 -38.6 0 0 565.63 517.72
  Z
  M 877.34 426.60
  Q 876.24 425.06 876.36 423.24
  Q 876.39 422.78 876.06 423.09
  C 872.29 426.60 868.07 427.96 864.36 430.24
  Q 862.20 431.57 862.38 434.10
  Q 864.07 458.04 858.47 479.88
  C 851.49 507.15 842.33 533.27 822.88 553.75
  C 812.97 564.19 800.97 571.62 787.79 577.76
  C 760.88 590.31 731.84 601.67 703.18 606.93
  C 655.88 615.61 606.26 601.95 568.05 573.69
  C 539.05 552.25 512.32 516.07 509.18 478.64
  A 1.14 1.10 -74.4 0 0 508.74 477.83
  Q 502.00 472.76 494.80 468.40
  C 481.59 460.40 459.16 469.46 447.10 476.39
  Q 444.04 478.15 443.44 481.94
  Q 442.52 487.73 438.02 491.28
  A 1.86 1.43 58.6 0 0 437.79 493.40
  C 460.70 537.18 453.32 594.04 429.70 635.93
  C 388.99 708.16 310.38 725.43 234.25 708.97
  C 223.63 706.68 211.51 702.35 202.12 696.19
  C 169.67 674.92 147.48 638.34 131.18 603.30
  C 128.12 596.72 125.16 590.40 122.49 583.60
  C 120.56 578.71 117.55 573.26 113.70 570.81
  Q 102.97 563.96 90.66 557.50
  A 1.35 1.35 0.0 0 0 88.69 558.60
  Q 88.48 561.63 88.93 565.95
  C 92.64 601.34 102.37 635.58 117.58 667.71
  Q 122.71 680.85 131.01 695.28
  C 157.27 740.92 192.52 776.40 239.04 802.45
  Q 247.19 807.01 269.06 817.72
  A 0.95 0.93 -46.9 0 0 269.95 817.68
  L 293.59 803.90
  Q 318.70 790.57 327.22 787.27
  Q 357.39 775.58 381.25 770.52
  Q 411.74 764.05 448.00 765.53
  C 486.65 767.11 521.25 775.92 555.05 791.88
  C 557.71 793.13 561.82 794.63 565.44 796.80
  Q 568.65 798.72 575.50 801.50
  L 583.97 806.19
  A 1.47 1.02 -29.3 0 0 584.92 806.28
  C 620.69 797.78 661.12 783.77 693.94 770.44
  C 730.53 755.58 768.06 734.69 801.54 710.04
  C 826.81 691.44 846.92 668.64 861.29 641.21
  C 892.49 581.66 898.22 517.03 888.26 450.50
  C 887.89 448.00 887.03 445.55 886.78 443.13
  Q 885.67 432.73 883.50 422.50
  Q 883.30 421.55 883.21 418.28
  Q 883.19 417.76 882.77 418.04
  Q 878.38 420.90 877.34 426.60
  Z
  M 225.26 492.13
  Q 210.56 527.96 197.61 564.45
  C 189.59 587.04 182.25 609.94 173.76 632.36
  A 1.54 1.36 50.5 0 0 173.73 633.29
  Q 175.97 641.11 180.33 647.92
  A 0.55 0.54 58.1 0 0 181.07 648.10
  C 183.93 646.38 185.45 645.46 186.48 642.03
  Q 190.23 629.62 194.82 617.50
  C 208.62 581.01 221.53 544.16 235.05 507.56
  C 237.22 501.67 239.25 495.26 241.38 489.16
  Q 241.69 488.26 240.75 488.48
  Q 233.59 490.12 226.26 490.32
  A 0.83 0.67 7.8 0 0 225.56 490.74
  C 225.42 491.09 225.41 491.77 225.26 492.13
  Z
  M 60.82 533.45
  Q 65.61 537.25 70.90 535.79
  C 77.27 534.02 82.87 533.41 89.50 533.73
  Q 90.28 533.77 92.75 534.22
  C 101.48 535.83 110.45 540.56 117.63 545.60
  Q 118.44 546.17 118.48 545.18
  C 119.07 528.06 123.44 511.85 135.71 499.33
  Q 136.82 498.20 135.28 498.55
  C 118.75 502.35 103.56 503.08 85.18 505.88
  C 79.80 506.70 75.09 508.72 70.06 510.62
  C 64.10 512.86 60.69 515.03 56.95 519.68
  C 53.70 523.71 57.68 530.96 60.82 533.45
  Z
  M 793.75 868.72
  Q 810.58 879.47 832.29 880.98
  Q 837.28 881.33 839.76 880.85
  Q 840.21 880.76 840.74 880.85
  Q 841.16 880.93 841.52 880.90
  Q 858.44 879.63 873.54 872.04
  C 889.71 863.90 902.77 849.85 911.46 833.38
  C 918.85 819.37 922.34 803.70 923.46 788.02
  C 923.95 781.19 923.48 771.82 923.91 764.95
  C 924.39 757.39 930.62 751.43 938.09 754.11
  C 945.50 756.77 949.48 771.97 950.78 779.26
  Q 955.21 804.15 956.61 809.42
  Q 957.70 813.55 962.06 815.39
  A 1.10 1.07 -46.0 0 0 962.96 815.36
  C 974.55 809.54 980.31 787.90 982.27 776.20
  Q 986.32 752.14 983.91 727.77
  C 983.12 719.76 982.60 711.50 981.14 703.81
  Q 977.50 684.65 973.23 671.75
  Q 972.15 668.47 966.20 654.13
  C 960.22 639.74 951.73 627.34 942.49 614.95
  C 938.02 608.94 931.03 602.84 926.46 599.05
  Q 918.56 592.50 907.20 590.73
  A 0.64 0.64 0.0 0 0 906.51 591.12
  C 903.81 598.00 901.94 606.53 900.03 612.11
  Q 889.61 642.49 874.20 667.71
  C 859.53 691.73 840.45 710.54 818.05 728.08
  Q 795.31 745.90 773.01 764.26
  C 768.96 767.59 759.18 775.44 758.13 780.51
  C 754.98 795.68 758.11 812.84 763.02 827.99
  C 768.43 844.69 778.98 859.29 793.75 868.72
  Z
  M 256.69 961.56
  C 280.64 966.60 305.63 967.00 330.00 965.99
  C 347.44 965.26 356.01 964.56 370.92 964.76
  Q 373.43 964.79 375.71 965.86
  Q 396.91 975.80 403.82 978.67
  C 439.76 993.63 481.12 996.52 519.24 990.22
  C 536.86 987.31 553.49 981.47 569.75 972.75
  C 596.20 958.56 615.25 936.47 616.44 905.73
  C 617.24 885.06 609.37 865.46 596.16 849.77
  C 577.21 827.27 551.32 814.88 524.68 804.03
  C 520.60 802.37 516.01 801.41 511.65 799.87
  C 505.68 797.74 500.32 795.95 496.01 795.00
  C 445.78 783.89 395.86 786.89 347.95 804.97
  C 309.36 819.53 271.84 840.53 243.58 870.41
  Q 238.55 875.72 236.67 880.01
  C 232.17 890.24 232.60 902.74 233.02 913.36
  C 233.51 925.81 237.06 938.71 241.37 950.63
  C 244.13 958.27 249.35 960.02 256.69 961.56
  Z"
/>
<path fill="#ae6cc2" d="
  M 446.31 0.00
  L 556.56 0.00
  L 556.75 0.54
  A 0.98 0.57 -3.3 0 0 557.57 0.96
  Q 568.07 1.39 578.43 3.11
  Q 609.54 8.29 640.01 16.48
  Q 647.34 18.45 667.81 26.86
  A 0.30 0.29 36.5 0 1 667.89 27.36
  C 637.71 51.14 606.42 73.47 576.34 97.21
  A 1.59 1.58 -54.9 0 1 574.89 97.47
  C 554.48 90.78 532.73 88.36 511.41 87.00
  C 443.45 82.65 368.79 95.43 306.94 125.71
  C 293.85 132.12 280.01 141.99 265.91 148.22
  Q 263.74 149.18 261.72 147.93
  Q 228.72 127.58 196.25 107.25
  Q 194.20 105.97 189.29 103.35
  A 0.32 0.32 0.0 0 1 189.25 102.81
  Q 226.79 75.14 259.32 57.33
  Q 291.66 39.63 332.38 24.47
  C 368.75 10.94 407.60 3.29 447.11 0.81
  Q 448.00 0.75 447.16 0.38
  L 446.31 0.00
  Z"
/>
<path fill="#fefefe" d="
  M 745.36 0.05
  L 771.06 0.00
  Q 768.49 3.60 765.77 9.80
  C 744.66 57.90 724.60 106.47 704.20 154.87
  C 701.76 160.67 698.73 166.47 698.23 172.85
  Q 697.89 177.08 697.67 181.33
  A 1.19 1.18 26.2 0 0 697.97 182.19
  Q 703.11 187.82 709.00 191.50
  C 761.87 224.47 806.64 267.92 839.44 320.77
  C 844.08 328.25 847.73 335.56 851.19 343.44
  A 0.52 0.51 -14.2 0 1 850.76 344.16
  C 841.03 344.93 830.84 345.57 821.25 347.64
  A 1.21 1.01 54.9 0 1 820.31 347.39
  Q 805.24 335.39 785.80 336.34
  A 1.60 1.35 -27.1 0 1 784.93 336.14
  Q 783.34 335.19 781.74 335.96
  Q 781.17 336.23 780.76 336.24
  Q 769.64 336.63 760.50 339.00
  C 718.16 349.96 685.69 361.45 633.15 376.37
  C 613.86 381.85 594.89 388.41 575.83 394.62
  C 567.15 397.45 557.68 400.72 550.15 404.94
  Q 524.06 419.55 513.23 448.40
  A 0.51 0.51 0.0 0 1 512.57 448.70
  C 500.39 444.23 487.54 441.64 474.62 443.85
  C 454.14 447.34 434.68 454.88 420.12 470.24
  A 0.65 0.63 36.3 0 1 419.34 470.35
  C 413.17 466.89 406.71 462.90 400.56 460.43
  Q 377.64 451.24 351.50 453.28
  Q 343.67 453.89 338.33 454.37
  Q 333.75 454.78 325.27 456.28
  C 315.99 457.92 306.08 458.53 297.28 459.89
  C 286.27 461.59 275.15 462.26 264.20 464.23
  Q 259.56 465.06 254.88 465.54
  C 227.06 468.42 200.15 472.03 170.95 475.01
  C 143.47 477.82 115.80 479.64 88.22 481.42
  A 0.32 0.32 0.0 0 1 87.88 481.06
  C 89.45 467.26 90.43 455.31 93.68 439.95
  C 96.36 427.28 99.97 413.71 104.34 401.37
  C 105.67 397.62 106.60 393.83 108.18 390.27
  C 111.47 382.80 114.78 374.78 118.08 367.93
  C 131.18 340.78 144.74 321.79 163.70 296.45
  Q 165.72 293.75 168.64 287.22
  A 1.48 1.48 0.0 0 0 168.73 286.29
  Q 167.60 281.22 166.39 277.83
  C 147.39 224.74 125.37 165.74 107.19 108.65
  Q 103.27 96.35 100.45 83.78
  Q 100.37 83.42 100.70 83.58
  C 145.91 105.77 189.07 131.76 233.31 158.69
  C 241.18 163.48 247.91 168.44 254.96 171.97
  C 257.52 173.26 259.64 174.81 262.55 174.92
  C 267.47 175.10 271.23 174.19 275.63 171.37
  C 302.24 154.28 330.54 139.53 361.15 130.06
  C 367.18 128.20 371.46 126.63 376.81 125.59
  C 380.09 124.96 383.07 123.21 386.50 122.52
  C 393.03 121.20 399.58 119.20 405.90 118.15
  C 412.45 117.05 418.97 115.61 425.47 114.63
  C 469.15 108.04 514.05 107.33 557.26 117.48
  Q 565.19 119.34 571.27 121.54
  C 574.53 122.72 578.69 121.60 581.96 121.56
  Q 584.16 121.53 585.92 120.20
  Q 648.34 72.97 710.76 25.77
  Q 730.56 10.80 736.44 6.68
  Q 743.30 1.88 745.36 0.05
  Z
  M 584.69 364.81
  C 588.72 367.95 591.46 365.55 594.84 363.24
  Q 661.80 317.36 712.82 281.33
  C 720.39 275.99 717.82 265.32 707.76 267.01
  C 700.35 268.25 696.95 272.58 690.63 276.83
  Q 641.94 309.59 594.25 343.77
  C 587.23 348.80 575.27 357.47 584.69 364.81
  Z"
/>
<path fill="#c186d0" d="
  M 794.56 0.00
  L 805.72 0.03
  Q 806.08 1.59 806.87 2.98
  Q 808.05 5.04 808.34 5.76
  C 816.30 25.76 823.17 47.78 829.53 68.50
  Q 832.61 78.53 834.82 87.79
  Q 848.00 142.91 852.47 198.75
  C 854.80 227.73 851.32 256.85 845.43 285.35
  Q 845.35 285.75 845.10 285.43
  C 810.14 240.65 772.32 201.64 722.86 172.75
  A 1.09 1.08 -63.5 0 1 722.41 171.38
  Q 752.38 101.21 782.83 30.82
  Q 788.41 17.91 795.02 5.48
  Q 796.18 3.30 794.56 0.00
  Z"
/>
<path fill="#fefefe" d="
  M 833.06 0.00
  L 1024.00 0.00
  L 1024.03 342.30
  Q 1019.26 322.85 1008.55 298.48
  C 975.69 223.67 926.75 155.18 863.90 102.61
  C 861.39 100.51 860.14 89.51 858.54 82.80
  C 855.41 69.69 851.08 56.54 847.38 43.44
  C 843.28 28.94 837.68 14.56 833.06 0.00
  Z"
/>
<path fill="#c186d0" d="
  M 89.69 371.74
  Q 89.41 372.46 89.15 371.73
  C 82.91 354.27 76.55 336.50 72.75 318.56
  C 58.85 253.00 62.94 186.26 83.04 122.34
  C 83.73 120.13 83.95 117.32 84.60 114.96
  Q 84.78 114.28 84.99 114.95
  C 102.51 171.49 122.68 227.25 142.18 282.89
  Q 142.74 284.47 141.77 285.83
  Q 136.94 292.65 131.94 299.17
  C 121.06 313.35 111.72 327.71 103.50 343.85
  C 98.78 353.15 93.47 362.02 89.69 371.74
  Z"
/>
<path fill="#ae6cc2" d="
  M 905.12 412.49
  C 924.77 399.96 928.57 377.98 921.04 356.98
  C 916.81 345.16 903.56 339.62 891.86 338.58
  C 887.43 338.18 882.98 337.52 878.61 337.71
  A 1.28 1.16 -17.2 0 1 877.54 337.21
  Q 868.63 324.29 860.88 310.65
  A 1.07 0.94 44.1 0 1 860.81 309.77
  Q 869.56 289.74 872.88 268.19
  C 878.54 231.50 877.60 192.42 873.07 156.98
  Q 873.01 156.49 873.32 156.89
  C 875.10 159.17 876.73 161.46 878.69 163.59
  Q 958.36 250.17 997.04 360.49
  C 1004.90 382.93 1011.74 407.65 1015.77 431.85
  C 1025.90 492.78 1025.02 558.12 1014.53 618.66
  C 1011.24 637.64 1006.10 656.73 1000.95 675.24
  Q 1000.53 676.75 1000.06 675.25
  Q 995.42 660.55 989.40 646.40
  C 986.00 638.41 981.13 629.83 976.74 621.59
  C 964.04 597.79 939.96 573.06 913.26 566.85
  A 0.57 0.57 0.0 0 1 912.83 566.24
  Q 916.48 532.75 916.77 523.75
  Q 918.57 467.62 904.82 413.23
  A 0.68 0.68 0.0 0 1 905.12 412.49
  Z"
/>
<path fill="#573148" d="
  M 584.69 364.81
  C 575.27 357.47 587.23 348.80 594.25 343.77
  Q 641.94 309.59 690.63 276.83
  C 696.95 272.58 700.35 268.25 707.76 267.01
  C 717.82 265.32 720.39 275.99 712.82 281.33
  Q 661.80 317.36 594.84 363.24
  C 591.46 365.55 588.72 367.95 584.69 364.81
  Z"
/>
<path fill="#ae6cc2" d="
  M 226.79 972.75
  L 225.96 974.25
  Q 195.79 954.12 166.87 927.63
  C 143.37 906.11 121.62 883.73 102.63 859.32
  C 58.46 802.56 24.26 736.72 3.59 667.18
  Q 1.94 661.63 0.90 655.91
  A 0.54 0.37 73.7 0 0 0.32 655.43
  C 0.05 655.59 0.53 657.11 0.00 657.69
  L 0.00 394.19
  L 0.60 392.56
  Q 1.62 384.78 3.13 379.33
  C 8.89 358.55 17.37 333.92 27.42 312.63
  C 31.93 303.08 38.43 293.85 44.68 284.91
  Q 45.18 284.19 45.20 285.06
  C 46.27 326.79 60.22 366.15 78.28 403.31
  A 1.20 1.12 43.1 0 1 78.34 404.23
  C 77.82 405.69 76.89 406.95 76.49 408.41
  Q 65.97 446.90 63.74 486.77
  A 1.57 1.56 83.1 0 1 62.64 488.18
  C 48.62 492.56 35.27 504.45 33.17 519.86
  C 31.51 532.04 36.20 544.16 45.20 552.30
  C 50.08 556.72 55.49 558.19 63.59 560.05
  A 0.67 0.67 0.0 0 1 64.11 560.65
  C 71.66 639.41 105.22 718.26 162.02 775.10
  C 178.98 792.07 198.32 806.56 219.07 818.61
  Q 232.24 826.26 245.24 833.71
  A 0.70 0.69 -50.2 0 1 245.34 834.84
  C 225.53 851.75 212.07 867.10 209.65 894.24
  Q 207.16 922.18 214.66 949.48
  C 217.13 958.47 220.35 966.38 226.79 972.75
  Z"
/>
<path fill="#fefefe" d="
  M 871.01 367.29
  A 0.63 0.53 74.8 0 0 871.35 366.55
  C 870.44 363.28 867.66 354.80 871.55 353.09
  A 1.35 1.19 39.5 0 1 872.49 353.06
  C 878.76 355.17 880.38 359.92 884.41 364.09
  Q 886.38 366.12 886.99 363.53
  Q 887.65 360.75 889.32 358.59
  Q 891.12 356.28 893.16 358.03
  C 898.91 362.98 903.70 378.71 900.13 383.85
  C 895.62 390.34 874.54 395.49 866.02 396.84
  Q 862.18 397.45 859.48 396.48
  C 855.85 395.17 851.37 392.06 850.68 388.02
  C 849.65 382.00 855.44 382.05 859.35 380.71
  A 2.10 2.09 80.7 0 0 860.77 378.72
  Q 860.77 374.96 859.59 371.10
  C 858.62 367.94 858.62 365.17 858.11 362.04
  A 0.51 0.40 85.1 0 1 858.50 361.44
  L 863.00 361.73
  A 1.65 1.28 65.9 0 1 863.99 362.26
  L 868.50 367.25
  A 1.05 0.26 50.1 0 0 869.27 367.81
  L 871.01 367.29
  Z"
/>
<path fill="#fefefe" d="
  M 0.00 389.19
  L 0.60 392.56
  L 0.00 394.19
  L 0.00 389.19
  Z"
/>
<path fill="#fefefe" d="
  M 575.80 527.58
  C 573.26 527.54 566.51 520.09 565.63 517.72
  A 0.96 0.87 -38.6 0 1 565.77 516.85
  C 573.90 506.01 579.31 492.78 586.03 480.45
  C 590.78 471.73 595.19 462.14 600.61 452.68
  C 610.97 434.60 620.04 415.70 630.28 397.50
  Q 632.32 393.87 634.41 392.62
  C 640.46 389.02 647.08 392.78 646.81 399.98
  C 646.68 403.43 643.52 408.85 642.01 411.48
  C 620.27 449.13 600.31 487.64 579.08 525.55
  Q 577.93 527.62 575.80 527.58
  Z"
/>
<path fill="#ce96dc" d="
  M 575.50 801.50
  Q 581.62 798.92 597.07 794.10
  Q 605.69 791.40 632.41 780.92
  C 650.31 773.91 673.97 763.27 685.69 757.67
  Q 712.77 744.73 745.04 725.29
  C 776.28 706.47 802.90 683.38 825.07 654.32
  C 828.18 650.24 832.86 644.60 836.16 639.17
  Q 844.11 626.11 851.27 612.60
  C 856.91 601.96 859.25 593.47 863.50 583.83
  C 867.23 575.37 869.81 564.08 871.63 555.59
  C 880.65 513.41 880.69 469.13 877.34 426.60
  Q 878.38 420.90 882.77 418.04
  Q 883.19 417.76 883.21 418.28
  Q 883.30 421.55 883.50 422.50
  Q 885.67 432.73 886.78 443.13
  C 887.03 445.55 887.89 448.00 888.26 450.50
  C 898.22 517.03 892.49 581.66 861.29 641.21
  C 846.92 668.64 826.81 691.44 801.54 710.04
  C 768.06 734.69 730.53 755.58 693.94 770.44
  C 661.12 783.77 620.69 797.78 584.92 806.28
  A 1.47 1.02 -29.3 0 1 583.97 806.19
  L 575.50 801.50
  Z"
/>
<path fill="#fefefe" d="
  M 877.34 426.60
  C 880.69 469.13 880.65 513.41 871.63 555.59
  C 869.81 564.08 867.23 575.37 863.50 583.83
  C 859.25 593.47 856.91 601.96 851.27 612.60
  Q 844.11 626.11 836.16 639.17
  C 832.86 644.60 828.18 650.24 825.07 654.32
  C 802.90 683.38 776.28 706.47 745.04 725.29
  Q 712.77 744.73 685.69 757.67
  C 673.97 763.27 650.31 773.91 632.41 780.92
  Q 605.69 791.40 597.07 794.10
  Q 581.62 798.92 575.50 801.50
  Q 568.65 798.72 565.44 796.80
  C 561.82 794.63 557.71 793.13 555.05 791.88
  C 521.25 775.92 486.65 767.11 448.00 765.53
  Q 411.74 764.05 381.25 770.52
  Q 357.39 775.58 327.22 787.27
  Q 318.70 790.57 293.59 803.90
  Q 289.10 801.77 265.03 790.71
  Q 198.77 760.26 148.11 706.89
  Q 135.18 693.27 131.77 687.73
  Q 125.33 677.26 117.58 667.71
  C 102.37 635.58 92.64 601.34 88.93 565.95
  Q 88.48 561.63 88.69 558.60
  A 1.35 1.35 0.0 0 1 90.66 557.50
  Q 102.97 563.96 113.70 570.81
  C 117.55 573.26 120.56 578.71 122.49 583.60
  C 125.16 590.40 128.12 596.72 131.18 603.30
  C 147.48 638.34 169.67 674.92 202.12 696.19
  C 211.51 702.35 223.63 706.68 234.25 708.97
  C 310.38 725.43 388.99 708.16 429.70 635.93
  C 453.32 594.04 460.70 537.18 437.79 493.40
  A 1.86 1.43 58.6 0 1 438.02 491.28
  Q 442.52 487.73 443.44 481.94
  Q 444.04 478.15 447.10 476.39
  C 459.16 469.46 481.59 460.40 494.80 468.40
  Q 502.00 472.76 508.74 477.83
  A 1.14 1.10 -74.4 0 1 509.18 478.64
  C 512.32 516.07 539.05 552.25 568.05 573.69
  C 606.26 601.95 655.88 615.61 703.18 606.93
  C 731.84 601.67 760.88 590.31 787.79 577.76
  C 800.97 571.62 812.97 564.19 822.88 553.75
  C 842.33 533.27 851.49 507.15 858.47 479.88
  Q 864.07 458.04 862.38 434.10
  Q 862.20 431.57 864.36 430.24
  C 868.07 427.96 872.29 426.60 876.06 423.09
  Q 876.39 422.78 876.36 423.24
  Q 876.24 425.06 877.34 426.60
  Z
  M 738.50 651.80
  C 731.00 656.61 736.19 666.12 743.58 666.31
  Q 745.86 666.38 748.93 664.38
  Q 794.39 634.92 840.09 605.83
  C 845.05 602.67 847.76 599.35 849.14 593.95
  A 2.50 1.71 -68.1 0 0 848.62 591.60
  L 841.93 586.51
  A 1.21 0.64 -34.2 0 0 840.82 586.63
  Q 836.84 588.83 833.00 591.26
  Q 790.23 618.27 747.63 645.55
  C 744.78 647.38 741.61 649.80 738.50 651.80
  Z
  M 523.25 654.05
  C 524.72 666.15 523.73 678.83 513.57 687.26
  Q 505.65 693.83 495.27 695.80
  C 490.16 696.77 488.26 701.47 490.09 706.13
  C 493.27 714.27 504.56 709.21 509.80 706.82
  Q 526.45 699.22 533.76 681.89
  A 0.41 0.41 0.0 0 1 534.37 681.72
  C 547.98 691.37 561.35 698.09 578.19 697.39
  C 585.80 697.07 604.47 691.63 607.12 683.26
  C 609.22 676.61 602.35 671.41 595.87 673.74
  A 1.84 1.47 -76.1 0 0 595.11 674.32
  C 587.60 684.19 568.88 682.81 558.55 679.23
  C 553.64 677.52 543.84 673.76 540.29 669.22
  Q 534.02 661.20 530.68 650.79
  A 0.38 0.37 80.5 0 1 531.02 650.30
  C 542.43 650.00 552.01 636.46 541.17 627.91
  C 536.77 624.44 530.64 626.04 526.60 629.56
  C 524.94 631.00 523.56 633.22 522.05 635.02
  A 0.60 0.59 35.2 0 1 521.29 635.14
  C 513.33 630.39 503.24 629.47 500.69 640.49
  C 499.02 647.74 507.31 652.16 513.43 653.38
  Q 515.47 653.79 522.68 653.58
  A 0.55 0.54 -4.5 0 1 523.25 654.05
  Z"
/>
<path fill="#fefefe" d="
  M 225.26 492.13
  C 225.41 491.77 225.42 491.09 225.56 490.74
  A 0.83 0.67 7.8 0 1 226.26 490.32
  Q 233.59 490.12 240.75 488.48
  Q 241.69 488.26 241.38 489.16
  C 239.25 495.26 237.22 501.67 235.05 507.56
  C 221.53 544.16 208.62 581.01 194.82 617.50
  Q 190.23 629.62 186.48 642.03
  C 185.45 645.46 183.93 646.38 181.07 648.10
  A 0.55 0.54 58.1 0 1 180.33 647.92
  Q 175.97 641.11 173.73 633.29
  A 1.54 1.36 50.5 0 1 173.76 632.36
  C 182.25 609.94 189.59 587.04 197.61 564.45
  Q 210.56 527.96 225.26 492.13
  Z"
/>
<path fill="#fefefe" d="
  M 60.82 533.45
  C 57.68 530.96 53.70 523.71 56.95 519.68
  C 60.69 515.03 64.10 512.86 70.06 510.62
  C 75.09 508.72 79.80 506.70 85.18 505.88
  C 103.56 503.08 118.75 502.35 135.28 498.55
  Q 136.82 498.20 135.71 499.33
  C 123.44 511.85 119.07 528.06 118.48 545.18
  Q 118.44 546.17 117.63 545.60
  C 110.45 540.56 101.48 535.83 92.75 534.22
  Q 90.28 533.77 89.50 533.73
  C 82.87 533.41 77.27 534.02 70.90 535.79
  Q 65.61 537.25 60.82 533.45
  Z"
/>
<path fill="#573148" d="
  M 743.58 666.31
  C 736.19 666.12 731.00 656.61 738.50 651.80
  C 741.61 649.80 744.78 647.38 747.63 645.55
  Q 790.23 618.27 833.00 591.26
  Q 836.84 588.83 840.82 586.63
  A 1.21 0.64 -34.2 0 1 841.93 586.51
  L 848.62 591.60
  A 2.50 1.71 -68.1 0 1 849.14 593.95
  C 847.76 599.35 845.05 602.67 840.09 605.83
  Q 794.39 634.92 748.93 664.38
  Q 745.86 666.38 743.58 666.31
  Z"
/>
<path fill="#fefefe" d="
  M 793.75 868.72
  C 778.98 859.29 768.43 844.69 763.02 827.99
  C 758.11 812.84 754.98 795.68 758.13 780.51
  C 759.18 775.44 768.96 767.59 773.01 764.26
  Q 795.31 745.90 818.05 728.08
  C 840.45 710.54 859.53 691.73 874.20 667.71
  Q 889.61 642.49 900.03 612.11
  C 901.94 606.53 903.81 598.00 906.51 591.12
  A 0.64 0.64 0.0 0 1 907.20 590.73
  Q 918.56 592.50 926.46 599.05
  C 931.03 602.84 938.02 608.94 942.49 614.95
  C 951.73 627.34 960.22 639.74 966.20 654.13
  Q 972.15 668.47 973.23 671.75
  Q 977.50 684.65 981.14 703.81
  C 982.60 711.50 983.12 719.76 983.91 727.77
  Q 986.32 752.14 982.27 776.20
  C 980.31 787.90 974.55 809.54 962.96 815.36
  A 1.10 1.07 -46.0 0 1 962.06 815.39
  Q 957.70 813.55 956.61 809.42
  Q 955.21 804.15 950.78 779.26
  C 949.48 771.97 945.50 756.77 938.09 754.11
  C 930.62 751.43 924.39 757.39 923.91 764.95
  C 923.48 771.82 923.95 781.19 923.46 788.02
  C 922.34 803.70 918.85 819.37 911.46 833.38
  C 902.77 849.85 889.71 863.90 873.54 872.04
  Q 858.44 879.63 841.52 880.90
  Q 841.16 880.93 840.74 880.85
  Q 840.21 880.76 839.76 880.85
  Q 837.28 881.33 832.29 880.98
  Q 810.58 879.47 793.75 868.72
  Z"
/>
<path fill="#573148" d="
  M 522.68 653.58
  Q 515.47 653.79 513.43 653.38
  C 507.31 652.16 499.02 647.74 500.69 640.49
  C 503.24 629.47 513.33 630.39 521.29 635.14
  A 0.60 0.59 35.2 0 0 522.05 635.02
  C 523.56 633.22 524.94 631.00 526.60 629.56
  C 530.64 626.04 536.77 624.44 541.17 627.91
  C 552.01 636.46 542.43 650.00 531.02 650.30
  A 0.38 0.37 80.5 0 0 530.68 650.79
  Q 534.02 661.20 540.29 669.22
  C 543.84 673.76 553.64 677.52 558.55 679.23
  C 568.88 682.81 587.60 684.19 595.11 674.32
  A 1.84 1.47 -76.1 0 1 595.87 673.74
  C 602.35 671.41 609.22 676.61 607.12 683.26
  C 604.47 691.63 585.80 697.07 578.19 697.39
  C 561.35 698.09 547.98 691.37 534.37 681.72
  A 0.41 0.41 0.0 0 0 533.76 681.89
  Q 526.45 699.22 509.80 706.82
  C 504.56 709.21 493.27 714.27 490.09 706.13
  C 488.26 701.47 490.16 696.77 495.27 695.80
  Q 505.65 693.83 513.57 687.26
  C 523.73 678.83 524.72 666.15 523.25 654.05
  A 0.55 0.54 -4.5 0 0 522.68 653.58
  Z"
/>
<path fill="#573148" d="
  M 225.96 974.25
  Q 230.54 978.67 237.10 983.13
  Q 261.56 999.76 286.50 1012.39
  C 292.21 1015.28 298.60 1019.53 305.04 1022.50
  A 1.28 0.87 10.4 0 1 305.71 1023.16
  Q 305.84 1023.59 305.69 1024.00
  L 243.18 1024.01
  Q 235.96 1020.03 226.28 1013.95
  C 165.63 975.85 111.79 927.44 68.31 871.44
  C 51.60 849.91 34.72 824.96 20.95 799.51
  C 13.35 785.47 5.35 771.27 0.00 756.19
  L 0.00 657.69
  C 0.53 657.11 0.05 655.59 0.32 655.43
  A 0.54 0.37 73.7 0 1 0.90 655.91
  Q 1.94 661.63 3.59 667.18
  C 24.26 736.72 58.46 802.56 102.63 859.32
  C 121.62 883.73 143.37 906.11 166.87 927.63
  Q 195.79 954.12 225.96 974.25
  Z"
/>
<path fill="#ce96dc" d="
  M 117.58 667.71
  Q 125.33 677.26 131.77 687.73
  Q 135.18 693.27 148.11 706.89
  Q 198.77 760.26 265.03 790.71
  Q 289.10 801.77 293.59 803.90
  L 269.95 817.68
  A 0.95 0.93 -46.9 0 1 269.06 817.72
  Q 247.19 807.01 239.04 802.45
  C 192.52 776.40 157.27 740.92 131.01 695.28
  Q 122.71 680.85 117.58 667.71
  Z"
/>
<path fill="#fefefe" d="
  M 1024.02 717.07
  L 1024.00 1024.00
  L 768.95 1024.03
  Q 782.95 1016.88 798.58 1006.34
  C 816.67 994.13 833.09 982.59 849.18 969.35
  C 889.23 936.38 924.63 900.06 955.30 858.05
  Q 957.93 854.44 962.55 846.47
  A 1.60 1.55 2.2 0 1 963.26 845.83
  Q 972.32 841.75 973.98 840.48
  C 1002.30 818.77 1007.70 782.33 1010.46 749.41
  Q 1010.73 746.19 1011.95 743.35
  Q 1017.65 730.06 1024.02 717.07
  Z"
/>
<path fill="#fefefe" d="
  M 0.00 756.19
  C 5.35 771.27 13.35 785.47 20.95 799.51
  C 34.72 824.96 51.60 849.91 68.31 871.44
  C 111.79 927.44 165.63 975.85 226.28 1013.95
  Q 235.96 1020.03 243.18 1024.01
  L 0.00 1024.00
  L 0.00 756.19
  Z"
/>
<path fill="#6b2b6b" d="
  M 833.50 937.79
  Q 774.69 939.92 716.06 934.96
  Q 676.66 931.62 637.29 928.00
  C 647.08 888.85 632.53 853.59 605.29 825.77
  Q 604.40 824.86 605.66 824.66
  C 608.20 824.28 610.97 823.99 613.40 823.25
  C 654.69 810.69 695.44 797.22 734.59 779.58
  Q 735.86 779.00 735.72 780.39
  C 735.02 787.25 734.14 794.81 734.26 801.30
  C 734.65 821.33 742.13 842.17 752.07 858.94
  C 761.63 875.08 781.19 892.14 798.80 897.98
  C 825.91 906.98 849.03 905.16 877.26 899.20
  A 0.41 0.34 -6.9 0 1 877.75 899.51
  L 877.75 899.75
  A 0.57 0.46 71.5 0 1 877.60 900.16
  Q 859.79 917.29 840.55 932.80
  Q 837.18 935.52 833.50 937.79
  Z"
/>
<path fill="#fefefe" d="
  M 256.69 961.56
  C 249.35 960.02 244.13 958.27 241.37 950.63
  C 237.06 938.71 233.51 925.81 233.02 913.36
  C 232.60 902.74 232.17 890.24 236.67 880.01
  Q 238.55 875.72 243.58 870.41
  C 271.84 840.53 309.36 819.53 347.95 804.97
  C 395.86 786.89 445.78 783.89 496.01 795.00
  C 500.32 795.95 505.68 797.74 511.65 799.87
  C 516.01 801.41 520.60 802.37 524.68 804.03
  C 551.32 814.88 577.21 827.27 596.16 849.77
  C 609.37 865.46 617.24 885.06 616.44 905.73
  C 615.25 936.47 596.20 958.56 569.75 972.75
  C 553.49 981.47 536.86 987.31 519.24 990.22
  C 481.12 996.52 439.76 993.63 403.82 978.67
  Q 396.91 975.80 375.71 965.86
  Q 373.43 964.79 370.92 964.76
  C 356.01 964.56 347.44 965.26 330.00 965.99
  C 305.63 967.00 280.64 966.60 256.69 961.56
  Z
  M 569.79 905.63
  C 556.91 909.45 538.16 946.89 559.36 952.70
  Q 562.54 953.57 566.06 952.28
  C 576.91 948.28 584.88 935.01 587.51 924.45
  C 590.32 913.18 582.19 901.95 569.79 905.63
  Z"
/>
<path fill="#573148" d="
  M 559.36 952.70
  C 538.16 946.89 556.91 909.45 569.79 905.63
  C 582.19 901.95 590.32 913.18 587.51 924.45
  C 584.88 935.01 576.91 948.28 566.06 952.28
  Q 562.54 953.57 559.36 952.70
  Z"
/>
<path fill="#ae6cc2" d="
  M 637.29 928.00
  Q 676.66 931.62 716.06 934.96
  Q 774.69 939.92 833.50 937.79
  Q 787.68 975.38 736.35 1004.85
  C 725.73 1010.94 712.94 1017.13 701.26 1023.34
  Q 700.89 1023.54 701.30 1023.66
  L 702.44 1024.00
  L 403.23 1023.93
  Q 381.26 1011.83 359.30 999.72
  Q 356.05 997.93 346.75 989.46
  Q 357.08 989.71 367.47 988.78
  A 1.80 1.71 54.9 0 1 368.41 988.97
  C 403.58 1007.50 443.25 1015.37 482.75 1016.16
  C 484.19 1016.18 485.92 1015.77 487.41 1015.76
  C 510.45 1015.54 530.41 1011.96 552.19 1005.46
  C 589.33 994.39 627.09 967.44 637.29 928.00
  Z"
/>
<path fill="#6b2b6b" d="
  M 226.79 972.75
  C 237.04 979.86 246.72 983.42 259.78 985.48
  Q 302.97 992.28 346.75 989.46
  Q 356.05 997.93 359.30 999.72
  Q 381.26 1011.83 403.23 1023.93
  L 305.69 1024.00
  Q 305.84 1023.59 305.71 1023.16
  A 1.28 0.87 10.4 0 0 305.04 1022.50
  C 298.60 1019.53 292.21 1015.28 286.50 1012.39
  Q 261.56 999.76 237.10 983.13
  Q 230.54 978.67 225.96 974.25
  L 226.79 972.75
  Z"
/>
</svg>
